<?xml version="1.0" encoding="UTF-8"?>
<svg version="1.1" xmlns="http://www.w3.org/2000/svg" width="512" height="512">
<path d="M0 0 C0.86020752 0.67289063 0.86020752 0.67289063 1.73779297 1.359375 C14.80197872 11.739432 24.84520842 23.39077763 33 38 C33.60585938 39.06476563 34.21171875 40.12953125 34.8359375 41.2265625 C38.47277779 48.00791973 41.08238024 54.7760865 43.3125 62.125 C43.55500488 62.92365479 43.79750977 63.72230957 44.04736328 64.54516602 C53.21046433 96.37641917 48.67224976 131.2407236 32.875 160.1875 C16.73371129 188.44627714 -10.39423799 208.86262736 -41.51171875 217.8671875 C-53.25134689 220.99880062 -65.39630747 222.05573446 -77.5 222.5 C-95.69395355 223.17886623 -112.69239427 226.3735242 -130 232 C-130.70431152 232.22526367 -131.40862305 232.45052734 -132.13427734 232.68261719 C-176.65338783 247.2075062 -213.88797512 281.18538018 -235 322.5625 C-248.21852822 349.34348476 -254.93164044 377.37694336 -255.49609375 407.29296875 C-256.14262943 410.76621859 -257.59120204 412.4651341 -260 415 C-263.45739557 416.72869779 -267.21975568 416.48966895 -271 416 C-273.87029869 414.20606332 -275.49131638 413.01736724 -277 410 C-281.14542381 361.18449414 -260.79676614 310.83820482 -230 273.75 C-203.76730756 243.03088848 -171.36284857 221.52564198 -133 209 C-136.04333265 206.65126327 -139.2012089 204.57263148 -142.4375 202.5 C-170.55876658 183.75248894 -189.53102685 156.52107617 -196.56201172 123.34838867 C-198.0891385 115.20530187 -198.38624982 107.20970044 -198.375 98.9375 C-198.37445618 98.25879852 -198.37391235 97.58009705 -198.37335205 96.88082886 C-198.25270022 64.01382274 -185.067327 33.67792296 -162.1875 10.09765625 C-119.29437788 -32.46368121 -47.68523242 -37.33014873 0 0 Z M-149.56103516 28.49951172 C-167.87358864 47.59502473 -177.57971008 73.87240489 -177.35571289 100.20483398 C-176.65805201 123.94319282 -167.99080471 145.74196862 -153 164 C-152.19175781 165.05380859 -152.19175781 165.05380859 -151.3671875 166.12890625 C-136.91101959 184.10831106 -112.00001316 196.90195381 -89.27197266 199.78466797 C-58.93877932 202.65957411 -32.93487739 194.86631512 -9 176 C-8.3915625 175.5359375 -7.783125 175.071875 -7.15625 174.59375 C11.23085966 160.11879134 22.6022134 135.67397367 26.3125 113 C29.42440323 86.57874472 23.7210313 58.92546819 7.0625 37.6875 C5.72270803 36.11265681 4.36834498 34.55009858 3 33 C2.28972656 32.15824219 1.57945312 31.31648438 0.84765625 30.44921875 C-16.44523226 10.42107547 -40.92866276 -1.30134091 -67.16625977 -3.65844727 C-98.66683826 -5.91949436 -127.35299937 6.3941212 -149.56103516 28.49951172 Z " fill="#000000" transform="translate(287,45)"/>
<path d="M0 0 C1.22748325 2.78918224 2.26653792 5.49974519 3.25 8.375 C3.55156006 9.21756348 3.85312012 10.06012695 4.16381836 10.92822266 C5.75337863 15.37503502 7.28533615 19.83998769 8.80078125 24.3125 C9.09629883 25.16150879 9.39181641 26.01051758 9.69628906 26.88525391 C10.26045664 28.50683816 10.80884637 30.1340257 11.33886719 31.76708984 C13.22168534 37.14440917 15.26798802 39.77899842 20 43 C29.70302311 46.23434104 43.53869847 42.48949206 53.46020508 41.01660156 C63.54150557 39.54195535 63.54150557 39.54195535 67 40 C78.82143351 48.81529578 85.19340312 65.80876013 91 79 C91.37511719 79.85207031 91.75023437 80.70414062 92.13671875 81.58203125 C93.60730401 85.16866226 94.31684907 87.33401847 93 91 C91.21845726 93.27031015 89.41953522 95.41589781 87.5 97.5625 C86.40532649 98.81299426 85.3115862 100.06430601 84.21875 101.31640625 C83.67476562 101.93660645 83.13078125 102.55680664 82.5703125 103.19580078 C71.92820414 114.21644866 71.92820414 114.21644866 67 128 C67.74194901 134.43022478 71.13431973 137.713495 75.49609375 142.3203125 C78.80576925 145.86233651 81.81414061 149.61285334 84.84375 153.39453125 C87.36538553 156.44150752 90.0712793 159.27048731 92.8828125 162.05078125 C94 164 94 164 93.91015625 166.6875 C92.75523382 170.89082283 91.12346 174.72930649 89.3125 178.6875 C88.76795166 179.88669067 88.76795166 179.88669067 88.21240234 181.11010742 C82.9845496 192.50784107 76.97207903 202.34020028 69 212 C68.55011719 212.63164062 68.10023438 213.26328125 67.63671875 213.9140625 C64.82772719 215.77778482 62.23405532 214.86402046 59 214.375 C58.30374512 214.27525879 57.60749023 214.17551758 56.89013672 214.07275391 C52.94184679 213.49625299 49.00693726 212.83818178 45.0703125 212.1875 C31.19441756 209.22885779 31.19441756 209.22885779 17.625 211.4375 C12.82650755 216.12174263 11.14567392 222.38556822 9.16638184 228.69377136 C8.27217723 231.53438827 7.33440789 234.36000402 6.39526367 237.18603516 C5.92209208 238.6494558 5.4699736 240.11984575 5.03881836 241.59619141 C3.57901558 246.54625491 2.06268403 250.80673294 -1 255 C-5.98225317 257.32208711 -10.60161893 257.72882216 -16 258 C-17.61183206 258.21548877 -19.22279362 258.43779757 -20.83203125 258.671875 C-36.64983275 260.13368349 -52.40653579 258.83339666 -68 256 C-68.67147568 255.89773605 -69.34295135 255.79547211 -70.03477478 255.69010925 C-70.6832991 255.4623732 -71.33182343 255.23463715 -72 255 C-73.2452266 252.30303265 -74.19752714 249.79788232 -75.09375 246.984375 C-75.3671521 246.17639465 -75.6405542 245.36841431 -75.92224121 244.53594971 C-76.79705479 241.94553992 -77.65010712 239.3486832 -78.5 236.75 C-79.35189284 234.16639058 -80.20857127 231.58474213 -81.07775879 229.00689697 C-81.61820991 227.40214652 -82.14857615 225.79395385 -82.6673584 224.18206787 C-84.3961197 219.02383088 -86.25077423 214.7925912 -90.9855957 211.70532227 C-100.22014784 208.47194193 -112.11030237 212.32234924 -121.50024414 213.93920898 C-123.62010745 214.30136917 -125.74154028 214.65294264 -127.86328125 215.00390625 C-129.11407471 215.21861572 -130.36486816 215.4333252 -131.65356445 215.65454102 C-135.95559777 216.0986482 -138.73323019 216.01942607 -142.140625 213.27734375 C-152.88915002 201.35444285 -164.08954199 182.92576459 -167 167 C-166.48649337 163.8165826 -165.52478095 162.13713785 -163.3046875 159.828125 C-162.7569165 159.2501416 -162.20914551 158.6721582 -161.64477539 158.07666016 C-161.06074951 157.4738623 -160.47672363 156.87106445 -159.875 156.25 C-158.68287845 154.99286543 -157.4914662 153.73505783 -156.30078125 152.4765625 C-155.7279541 151.87489258 -155.15512695 151.27322266 -154.56494141 150.65332031 C-151.60299087 147.52409582 -148.76009225 144.3077868 -146 141 C-145.43410156 140.33613281 -144.86820312 139.67226563 -144.28515625 138.98828125 C-140.86466243 134.76296535 -138.89734656 131.64593937 -139 126 C-140.6083657 119.91118698 -144.27915733 116.22190022 -148.52734375 111.68359375 C-151.82695862 108.10249514 -154.86594324 104.33764112 -157.91015625 100.5390625 C-159.73565903 98.32116193 -161.64432224 96.26423834 -163.625 94.1875 C-166 91 -166 91 -165.84765625 88.28125 C-164.85684041 84.44583383 -163.43707296 80.91184031 -161.8125 77.3125 C-161.49788818 76.60843018 -161.18327637 75.90436035 -160.85913086 75.17895508 C-156.236809 64.96603571 -150.81887798 55.9087502 -144 47 C-143.45730469 46.17371094 -142.91460937 45.34742188 -142.35546875 44.49609375 C-140.68926253 42.16502665 -139.3514767 40.63800373 -137 39 C-134.44165039 38.82885742 -134.44165039 38.82885742 -131.53515625 39.16796875 C-130.47151855 39.28865723 -129.40788086 39.4093457 -128.31201172 39.53369141 C-122.03308645 40.41772113 -115.79981689 41.50068889 -109.56054688 42.62695312 C-98.40583489 44.7432956 -98.40583489 44.7432956 -88 41 C-83.96538511 37.71351244 -82.52585338 33.84469348 -80.87109375 29.05859375 C-80.59531998 28.29450699 -80.3195462 27.53042023 -80.03541565 26.74317932 C-79.15872739 24.31163286 -78.29678984 21.87524437 -77.4375 19.4375 C-76.57366491 16.99658251 -75.70650705 14.55710109 -74.82887268 12.12110901 C-74.28405923 10.6082352 -73.74721088 9.0924633 -73.21934509 7.57359314 C-70.8558359 0.99767383 -70.8558359 0.99767383 -68 -1 C-65.28693433 -1.73579794 -62.76519271 -2.26927894 -60 -2.6875 C-59.17693359 -2.8127002 -58.35386719 -2.93790039 -57.50585938 -3.06689453 C-39.07431928 -5.55170414 -17.86090116 -5.95363372 0 0 Z M-54 17 C-55.64737953 19.49651331 -55.64737953 19.49651331 -56.59765625 22.6015625 C-57.00693359 23.73207031 -57.41621094 24.86257812 -57.83789062 26.02734375 C-58.24201172 27.21457031 -58.64613281 28.40179688 -59.0625 29.625 C-63.36952927 41.91330152 -67.39226124 52.70692189 -79.33984375 59.2890625 C-91.06275076 64.71163845 -102.17856415 63.05359254 -114.625 61 C-116.41744141 60.71382812 -116.41744141 60.71382812 -118.24609375 60.421875 C-121.16524742 59.95481041 -124.08306978 59.48072135 -127 59 C-131.23968261 64.22673022 -135.02007457 69.30120228 -138.0625 75.3125 C-138.38154297 75.90611328 -138.70058594 76.49972656 -139.02929688 77.11132812 C-140.74353816 80.46577752 -140.74353816 80.46577752 -140.44140625 84.09765625 C-138.63154435 86.48628158 -136.79877883 88.82584969 -134.875 91.125 C-134.07449219 92.094375 -133.27398437 93.06375 -132.44921875 94.0625 C-130.89752817 95.92353879 -129.33850173 97.77850584 -127.76953125 99.625 C-120.06582133 108.8752333 -116.65648489 116.7622743 -117 129 C-118.67239178 142.10576252 -125.9357959 150.23921175 -134.50537109 159.68481445 C-138.8026925 164.27432445 -138.8026925 164.27432445 -141 170 C-140.13246942 172.52126075 -139.27070581 174.5118044 -138 176.8125 C-137.66822754 177.42617432 -137.33645508 178.03984863 -136.99462891 178.67211914 C-136.01294915 180.45726963 -135.00690774 182.22895674 -134 184 C-133.55398438 184.89976562 -133.10796875 185.79953125 -132.6484375 186.7265625 C-131.27758425 189.10663286 -130.30933729 190.50320731 -128 192 C-123.52821913 192.52275748 -119.40835781 191.78617322 -115 191 C-87.99236883 186.89271255 -87.99236883 186.89271255 -75.41796875 194.578125 C-65.6049195 201.8036538 -62.400128 210.66894386 -58.75 221.875 C-58.08371938 223.88730209 -57.41411398 225.89844116 -56.74176025 227.90872192 C-56.13909044 229.71559711 -55.5453841 231.52545466 -54.95214844 233.33544922 C-54.25415311 235.88848989 -54.25415311 235.88848989 -53 237 C-46.97733431 237.97183924 -41.0914723 238.15268851 -35 238.125 C-34.14921875 238.12886719 -33.2984375 238.13273438 -32.421875 238.13671875 C-30.74461595 238.13414627 -29.0672332 238.11026869 -27.390625 238.06347656 C-25.83907199 238.02227928 -24.28538468 238.02679807 -22.734375 238.08496094 C-20.33344578 238.14388207 -20.33344578 238.14388207 -17 237 C-14.98037946 234.24564723 -14.0507608 231.22571624 -13 228 C-12.3380454 226.24430991 -11.6712935 224.49042183 -11 222.73828125 C-9.99104009 220.01290712 -8.99004896 217.28503746 -8 214.55273438 C-6.12933023 209.52165572 -4.11122497 205.36510228 -1 201 C-0.67 200.01 -0.34 199.02 0 198 C1.82421875 196.96875 1.82421875 196.96875 4 196 C5.27807473 195.17781584 6.54883282 194.34416056 7.8125 193.5 C19.19462862 186.44599341 32.23890909 188.55622077 44.7824707 190.93237305 C50.86036519 192.15797537 50.86036519 192.15797537 57 192 C59.07897777 189.95969663 59.07897777 189.95969663 60.5625 187.125 C61.14128906 186.1246875 61.72007812 185.124375 62.31640625 184.09375 C62.87199219 183.0728125 63.42757812 182.051875 64 181 C64.52464844 180.0821875 65.04929687 179.164375 65.58984375 178.21875 C68.24715394 173.62891284 68.24715394 173.62891284 68.875 168.49609375 C67.7879845 165.39518792 66.29065698 163.78780951 64 161.4375 C52.68963693 149.33215933 45.50643911 139.27350572 45.734375 122.40625 C46.62701881 110.95940579 52.92034087 103.6410832 60.42236328 95.44628906 C61.38864197 94.38833861 62.34742585 93.32349079 63.29833984 92.25170898 C64.6228986 90.76024186 65.97298305 89.29156062 67.32421875 87.82421875 C69.33180941 85.12755839 69.33180941 85.12755839 68.54296875 82.15625 C66.6642785 78.31325829 64.72658604 74.53835107 62.625 70.8125 C62.23828125 70.10158203 61.8515625 69.39066406 61.453125 68.65820312 C61.06898438 67.97306641 60.68484375 67.28792969 60.2890625 66.58203125 C59.94568848 65.96561768 59.60231445 65.3492041 59.24853516 64.71411133 C57.67166571 62.54923053 56.34558823 61.31825196 54 60 C51.16658464 59.87653902 51.16658464 59.87653902 48.08984375 60.3984375 C46.93419922 60.54796875 45.77855469 60.6975 44.58789062 60.8515625 C43.38326172 61.02429688 42.17863281 61.19703125 40.9375 61.375 C27.51303149 63.25604211 14.87097351 64.35493717 3.328125 56.0859375 C-6.08688314 48.20295731 -9.49173552 38.27204318 -13.3125 26.875 C-13.67150391 25.823125 -14.03050781 24.77125 -14.40039062 23.6875 C-15.27326303 21.12707427 -16.13966244 18.56465888 -17 16 C-23.2043072 14.84732803 -29.2072492 14.81613743 -35.5 14.8125 C-36.61503906 14.80025391 -37.73007812 14.78800781 -38.87890625 14.77539062 C-39.96042969 14.77345703 -41.04195313 14.77152344 -42.15625 14.76953125 C-43.13400391 14.76542236 -44.11175781 14.76131348 -45.11914062 14.75708008 C-48.46703196 15.03938108 -50.95791865 15.54733115 -54 17 Z " fill="#000000" transform="translate(401,230)"/>
<path d="M0 0 C10.76335632 6.90446812 16.01144341 16.37198118 20.125 28.125 C22.63275311 40.03074048 21.24421675 52.55367812 15.234375 63.16015625 C13.54209829 65.68713702 11.75189234 68.0336396 9.8125 70.375 C9.31234375 71.01050781 8.8121875 71.64601563 8.296875 72.30078125 C1.05748367 80.5456436 -11.38276361 85.82335633 -22.171875 86.5859375 C-34.96208735 86.97624914 -46.01398985 83.47922837 -56.4375 76.0625 C-66.79862515 65.93685497 -72.06896997 54.01697237 -72.5625 39.625 C-72.32989128 26.91361785 -67.84284894 15.83531555 -59.37890625 6.34765625 C-42.76179786 -9.44032407 -19.4379026 -10.49408239 0 0 Z M-46.1875 24.375 C-50.54122183 30.68474178 -51.89208204 37.28838396 -50.625 44.8125 C-48.80330729 51.79766608 -45.10272003 57.46386451 -39 61.375 C-32.61617892 65.00131256 -26.39691248 65.08116113 -19.1875 64.375 C-11.76270923 62.21027898 -6.88432783 58.1119823 -3.1875 51.375 C0.29809716 44.27565873 0.51426352 37.73168744 -1.875 30.2109375 C-4.58828572 23.93646427 -9.3321682 19.21459995 -15.49609375 16.2734375 C-27.03680591 12.10866111 -38.1473448 15.09075613 -46.1875 24.375 Z " fill="#000000" transform="translate(391.1875,317.625)"/>
</svg>
