<?xml version="1.0" encoding="UTF-8"?>
<!DOCTYPE svg PUBLIC "-//W3C//DTD SVG 1.1//EN" "http://www.w3.org/Graphics/SVG/1.1/DTD/svg11.dtd">
<svg xmlns="http://www.w3.org/2000/svg" version="1.1" width="233px" height="217px" style="shape-rendering:geometricPrecision; text-rendering:geometricPrecision; image-rendering:optimizeQuality; fill-rule:evenodd; clip-rule:evenodd" xmlns:xlink="http://www.w3.org/1999/xlink">
<g><path style="opacity:1" fill="#fefefe" d="M -0.5,-0.5 C 77.1667,-0.5 154.833,-0.5 232.5,-0.5C 232.5,71.8333 232.5,144.167 232.5,216.5C 154.833,216.5 77.1667,216.5 -0.5,216.5C -0.5,144.167 -0.5,71.8333 -0.5,-0.5 Z"/></g>
<g><path style="opacity:1" fill="#e7833d" d="M 98.5,9.5 C 138.883,5.49778 170.716,19.8311 194,52.5C 210.266,80.1942 212.932,109.194 202,139.5C 181.4,182.393 147.234,201.893 99.5,198C 54.7708,188.604 28.2708,161.438 20,116.5C 16.2974,75.7427 31.4641,44.2427 65.5,22C 75.9722,16.083 86.9722,11.9164 98.5,9.5 Z"/></g>
<g><path style="opacity:1" fill="#fefaf8" d="M 89.5,56.5 C 90.8734,56.3433 92.2068,56.51 93.5,57C 109.208,72.3741 124.542,88.0407 139.5,104C 124.301,120.699 108.301,136.532 91.5,151.5C 89.061,150.622 88.2277,148.955 89,146.5C 103.167,132.333 117.333,118.167 131.5,104C 117.333,89.8333 103.167,75.6667 89,61.5C 88.3603,59.735 88.5269,58.0683 89.5,56.5 Z"/></g>
</svg>
