<?xml version="1.0" encoding="UTF-8"?>
<!DOCTYPE svg PUBLIC "-//W3C//DTD SVG 1.1//EN" "http://www.w3.org/Graphics/SVG/1.1/DTD/svg11.dtd">
<svg xmlns="http://www.w3.org/2000/svg" version="1.1" width="271px" height="246px" style="shape-rendering:geometricPrecision; text-rendering:geometricPrecision; image-rendering:optimizeQuality; fill-rule:evenodd; clip-rule:evenodd" xmlns:xlink="http://www.w3.org/1999/xlink">
<g><path style="opacity:1" fill="#fefefe" d="M -0.5,-0.5 C 89.8333,-0.5 180.167,-0.5 270.5,-0.5C 270.5,81.5 270.5,163.5 270.5,245.5C 180.167,245.5 89.8333,245.5 -0.5,245.5C -0.5,163.5 -0.5,81.5 -0.5,-0.5 Z"/></g>
<g><path style="opacity:1" fill="#e7833d" d="M 120.5,5.5 C 177.104,2.53243 216.604,26.8658 239,78.5C 252.626,126.934 240.792,167.767 203.5,201C 169.188,225.533 132.188,230.533 92.5,216C 41.3107,190.127 19.8107,148.627 28,91.5C 41.3927,43.9366 72.226,15.2699 120.5,5.5 Z"/></g>
<g><path style="opacity:1" fill="#fef9f6" d="M 130.5,60.5 C 141.157,58.6581 145.657,62.9915 144,73.5C 139.684,79.9969 134.351,80.9969 128,76.5C 124.182,70.4087 125.015,65.0754 130.5,60.5 Z"/></g>
<g><path style="opacity:1" fill="#e88845" d="M 133.5,66.5 C 137.692,66.4028 139.025,68.2361 137.5,72C 132.728,72.8104 131.395,70.9771 133.5,66.5 Z"/></g>
<g><path style="opacity:1" fill="#fef9f6" d="M 131.5,105.5 C 141.869,104.554 146.036,109.221 144,119.5C 140.1,124.533 135.267,125.7 129.5,123C 123.701,116.312 124.368,110.479 131.5,105.5 Z"/></g>
<g><path style="opacity:1" fill="#e88744" d="M 133.5,111.5 C 137.485,111.629 138.818,113.463 137.5,117C 132.728,117.81 131.395,115.977 133.5,111.5 Z"/></g>
<g><path style="opacity:1" fill="#fef9f6" d="M 131.5,150.5 C 142.216,149.381 146.383,154.047 144,164.5C 140.938,168.943 136.771,170.443 131.5,169C 126.268,166.367 124.435,162.201 126,156.5C 127.36,153.977 129.193,151.977 131.5,150.5 Z"/></g>
<g><path style="opacity:1" fill="#e98c4b" d="M 133.5,156.5 C 139.076,157.555 139.743,159.889 135.5,163.5C 132.452,161.875 131.785,159.542 133.5,156.5 Z"/></g>
</svg>
