<?xml version="1.0" encoding="UTF-8"?>
<svg version="1.1" xmlns="http://www.w3.org/2000/svg" width="271" height="246">
<path d="M0 0 C0.77085937 0.70253906 1.54171875 1.40507812 2.3359375 2.12890625 C3.08617187 2.73863281 3.83640625 3.34835938 4.609375 3.9765625 C25.45153283 21.1987666 36.98008198 47.64508243 40.13964844 74.03564453 C42.82512512 102.67404887 34.76053916 131.55012797 16.90234375 154.16015625 C-2.1541004 176.20414035 -26.41515103 191.32755304 -55.6640625 195.12890625 C-87.11875505 197.23316317 -116.25191884 191.02178103 -140.6640625 170.12890625 C-141.47359375 169.45214844 -142.283125 168.77539062 -143.1171875 168.078125 C-163.75326496 150.25893541 -175.67833601 125.81855788 -179.6640625 99.12890625 C-181.61521336 67.62252959 -174.92329562 37.66654909 -153.67431641 13.50610352 C-152.34887647 12.03675471 -151.00693283 10.58234225 -149.6640625 9.12890625 C-148.68179688 8.02482422 -148.68179688 8.02482422 -147.6796875 6.8984375 C-110.55913753 -32.83958715 -40.56996309 -35.8888135 0 0 Z M-78.6640625 36.12890625 C-79.47550825 38.98335373 -79.42014583 41.26617851 -78.6640625 44.12890625 C-76.67053797 47.11919304 -75.26150755 48.7070004 -71.7265625 49.640625 C-69.48294336 49.83184254 -67.83212517 49.74523052 -65.6640625 49.12890625 C-62.36985463 46.24647436 -60.89521842 44.38742181 -60.1015625 40.06640625 C-60.79385611 36.45109517 -62.11997283 34.74782209 -64.6640625 32.12890625 C-70.48177234 29.22005133 -74.65305111 31.54489323 -78.6640625 36.12890625 Z M-76.1640625 78.06640625 C-78.9252108 81.44881291 -79.52403705 82.9565482 -79.1875 87.1953125 C-78.27379799 90.57055499 -76.41728151 92.10987897 -73.6640625 94.12890625 C-70.23149774 95.53713795 -68.98468709 95.24835463 -65.4765625 93.94140625 C-62.00556505 91.76537514 -62.00556505 91.76537514 -60.6640625 88.12890625 C-60.67851498 84.55914363 -60.99563166 81.34780954 -62.7265625 78.19140625 C-67.31652626 75.67432935 -71.83049752 75.00923571 -76.1640625 78.06640625 Z M-76.6640625 124.12890625 C-79.1556529 127.86629185 -79.12199535 129.70222208 -78.6640625 134.12890625 C-77.25528154 137.11907055 -77.25528154 137.11907055 -74.6640625 139.12890625 C-70.74497664 140.26900396 -68.63247746 140.53779257 -64.8515625 138.94140625 C-62.49486632 136.98871513 -61.48079741 136.06915191 -60.6640625 133.12890625 C-60.80133318 129.28532727 -61.10863004 126.91062601 -63.3515625 123.75390625 C-68.26872262 120.29860454 -71.97489509 120.48177605 -76.6640625 124.12890625 Z " fill="#E7833D" transform="translate(205.6640625,29.87109375)"/>
<path d="M0 0 C0.33 0 0.66 0 1 0 C1.69241678 14.34370819 2.1524147 28.6391479 2 43 C2.66 43 3.32 43 4 43 C4.98248524 47.0527516 5.08159574 50.83861737 5 55 C-4.33899972 40.99150042 -2.90240949 15.77117025 0 0 Z " fill="#E4A274" transform="translate(27,96)"/>
<path d="M0 0 C0 0.33 0 0.66 0 1 C-4.455 1.495 -4.455 1.495 -9 2 C-9.495 1.01 -9.495 1.01 -10 0 C-18.45113886 -2.27422674 -27.37666286 -2.18065537 -36.0625 -2.1875 C-37.56127686 -2.1887085 -37.56127686 -2.1887085 -39.09033203 -2.18994141 C-43.55949217 -2.15587192 -47.62005258 -1.93337112 -52 -1 C-53.43628457 -0.93733488 -54.8750555 -0.91313653 -56.3125 -0.9375 C-58.1378125 -0.9684375 -58.1378125 -0.9684375 -60 -1 C-60 -1.33 -60 -1.66 -60 -2 C-39.96798465 -6.38999485 -19.64250052 -6.24232008 0 0 Z " fill="#E7B087" transform="translate(169,10)"/>
<path d="M0 0 C0.99 0 1.98 0 3 0 C3 0.99 3 1.98 3 3 C3.66 3 4.32 3 5 3 C5.31578947 12.31578947 5.31578947 12.31578947 3 16 C-1.37516653 18.95069371 -4.79304044 19.31241757 -10 19 C-10.66 17.68 -11.32 16.36 -12 15 C-10.948125 15.20625 -9.89625 15.4125 -8.8125 15.625 C-4.96162032 16.00377505 -3.27479392 15.96487635 0 14 C1.70248251 11.98797522 2.02449425 10.64974219 1.92578125 8.03125 C1.60970112 5.17098387 1.29632591 2.59265181 0 0 Z " fill="#E29D6D" transform="translate(142,108)"/>
<path d="M0 0 C0.66 0 1.32 0 2 0 C2 0.66 2 1.32 2 2 C2.99 2 3.98 2 5 2 C4.63533431 8.84062537 4.04279671 14.8017104 1 21 C-0.9375 22.5625 -0.9375 22.5625 -3 23 C-5.25 22.625 -5.25 22.625 -7 22 C-4.69 21.34 -2.38 20.68 0 20 C0 19.34 0 18.68 0 18 C-3.63 18 -7.26 18 -11 18 C-11 17.34 -11 16.68 -11 16 C-9.9275 16.04125 -8.855 16.0825 -7.75 16.125 C-3.50919316 16.00575681 -3.50919316 16.00575681 0 14 C2.12733147 11.26485954 1.99591823 9.95346787 1.6875 6.4375 C1.08139779 3.03746883 1.08139779 3.03746883 0 0 Z " fill="#E3935B" transform="translate(142,153)"/>
<path d="M0 0 C0.33 0 0.66 0 1 0 C1.55806149 27.34501288 1.55806149 27.34501288 -3 36 C-2.21889502 11.22373113 -2.21889502 11.22373113 0 0 Z " fill="#E7AD81" transform="translate(245,106)"/>
<path d="M0 0 C0 4.07979322 -2.03859363 6.35787847 -4.3125 9.5625 C-4.71662109 10.15224609 -5.12074219 10.74199219 -5.53710938 11.34960938 C-7.52751339 14.19443072 -9.07978257 16.05318838 -12 18 C-11.67 15.03 -11.34 12.06 -11 9 C-9.35 9.33 -7.7 9.66 -6 10 C-6 8.68 -6 7.36 -6 6 C-5.34 6 -4.68 6 -4 6 C-3.67 4.35 -3.34 2.7 -3 1 C-2.01 0.67 -1.02 0.34 0 0 Z " fill="#E79866" transform="translate(230,170)"/>
<path d="M0 0 C2.64 0.33 5.28 0.66 8 1 C4.51943035 3.9553686 0.63590813 5.58197285 -3.5625 7.25 C-4.23474609 7.53101563 -4.90699219 7.81203125 -5.59960938 8.1015625 C-10.63492846 10.12169051 -10.63492846 10.12169051 -14 9 C-10.48812804 6.59185923 -8.27343092 5.63370592 -4 6 C-4 5.34 -4 4.68 -4 4 C-2.35 4 -0.7 4 1 4 C0.67 2.68 0.34 1.36 0 0 Z " fill="#E5A77A" transform="translate(180,211)"/>
<path d="M0 0 C3.73314048 3.35706017 4.9831256 7.3385368 6.75 11.9375 C7.07871094 12.74896484 7.40742188 13.56042969 7.74609375 14.39648438 C8.05160156 15.18216797 8.35710937 15.96785156 8.671875 16.77734375 C8.9512793 17.49140381 9.23068359 18.20546387 9.51855469 18.94116211 C10.07326644 21.31331433 9.76745067 22.71468104 9 25 C8.73445312 24.38511719 8.46890625 23.77023438 8.1953125 23.13671875 C7.84210938 22.32847656 7.48890625 21.52023438 7.125 20.6875 C6.77695313 19.88699219 6.42890625 19.08648437 6.0703125 18.26171875 C4.97428106 15.8038166 4.97428106 15.8038166 3 13 C2.40234375 11.1328125 2.40234375 11.1328125 1.9375 9.125 C1.77378906 8.42632812 1.61007813 7.72765625 1.44140625 7.0078125 C0.92909827 4.67749124 0.43971847 2.34516516 0 0 Z " fill="#E4A479" transform="translate(232,63)"/>
<path d="M0 0 C-0.45451184 1.73017508 -0.91378857 3.45909877 -1.375 5.1875 C-1.63023437 6.15042969 -1.88546875 7.11335937 -2.1484375 8.10546875 C-2.94766296 10.82210207 -3.9031362 13.39137175 -5 16 C-5.50493003 13.98027989 -6.00950643 11.96078598 -6.5 9.9375 C-6.92981688 8.2719596 -7.45605447 6.63183658 -8 5 C-3.375 0 -3.375 0 0 0 Z " fill="#E29A65" transform="translate(242,144)"/>
<path d="M0 0 C1.32 0.33 2.64 0.66 4 1 C-4.261959 9.6309795 -4.261959 9.6309795 -9 12 C-9 10.02 -9 8.04 -9 6 C-5.535 5.505 -5.535 5.505 -2 5 C-2 4.34 -2 3.68 -2 3 C-1.34 3 -0.68 3 0 3 C0 2.01 0 1.02 0 0 Z " fill="#E39E73" transform="translate(210,192)"/>
<path d="M0 0 C1.66611905 -0.042721 3.33382885 -0.04063832 5 0 C6 1 6 1 6.0625 3.5625 C6.041875 4.366875 6.02125 5.17125 6 6 C3.625 6.625 3.625 6.625 1 7 C0.34 6.34 -0.32 5.68 -1 5 C-0.625 2.375 -0.625 2.375 0 0 Z " fill="#E1A073" transform="translate(133,112)"/>
<path d="M0 0 C1.66611905 -0.042721 3.33382885 -0.04063832 5 0 C6 1 6 1 6.0625 3.5625 C6.041875 4.366875 6.02125 5.17125 6 6 C3.625 6.625 3.625 6.625 1 7 C0.34 6.34 -0.32 5.68 -1 5 C-0.625 2.375 -0.625 2.375 0 0 Z " fill="#E0A074" transform="translate(133,67)"/>
<path d="M0 0 C3.92247359 3.69833224 7.1189547 7.42422217 10 12 C9.67 12.99 9.34 13.98 9 15 C6 14 6 14 4.3125 11.0625 C3 8 3 8 3 6 C2.34 6 1.68 6 1 6 C0.67 4.02 0.34 2.04 0 0 Z " fill="#E49D68" transform="translate(220,45)"/>
<path d="M0 0 C1.67542976 0.28604898 3.34385343 0.61781233 5 1 C5 2.65 5 4.3 5 6 C2.625 6.625 2.625 6.625 0 7 C-0.66 6.34 -1.32 5.68 -2 5 C-1.46428571 1.46428571 -1.46428571 1.46428571 0 0 Z " fill="#DF9F70" transform="translate(134,157)"/>
<path d="M0 0 C1.51400391 0.01740234 1.51400391 0.01740234 3.05859375 0.03515625 C4.07050781 0.04417969 5.08242187 0.05320313 6.125 0.0625 C7.29869141 0.07990234 7.29869141 0.07990234 8.49609375 0.09765625 C8.82609375 1.41765625 9.15609375 2.73765625 9.49609375 4.09765625 C7.70171875 3.75734375 7.70171875 3.75734375 5.87109375 3.41015625 C1.62517415 2.85108499 -0.83943898 3.80736421 -4.50390625 6.09765625 C-3.43349052 0.13391149 -3.43349052 0.13391149 0 0 Z " fill="#E29A67" transform="translate(132.50390625,148.90234375)"/>
<path d="M0 0 C0.99 0.33 1.98 0.66 3 1 C3 1.99 3 2.98 3 4 C3.66 4 4.32 4 5 4 C5.28875 4.969375 5.5775 5.93875 5.875 6.9375 C6.64214682 10.10664203 6.64214682 10.10664203 9 11 C9.625 14.0625 9.625 14.0625 10 17 C6.81321628 14.07647233 4.78276705 11.18387159 2.75 7.375 C1.96882813 5.93253906 1.96882813 5.93253906 1.171875 4.4609375 C0 2 0 2 0 0 Z " fill="#E1A478" transform="translate(36,161)"/>
<path d="M0 0 C0.33 0 0.66 0 1 0 C1.10957031 0.62648438 1.21914062 1.25296875 1.33203125 1.8984375 C1.49058594 2.71570313 1.64914063 3.53296875 1.8125 4.375 C1.96332031 5.18710938 2.11414063 5.99921875 2.26953125 6.8359375 C2.87544942 9.35820641 2.87544942 9.35820641 6 11 C8.0492094 11.45139459 8.0492094 11.45139459 10.1875 11.625 C11.445625 11.74875 12.70375 11.8725 14 12 C14 12.66 14 13.32 14 14 C9.56330548 14.34797604 6.05041662 14.47161563 1.9375 12.625 C-1.00265679 8.64156176 -0.41121401 4.78835866 0 0 Z " fill="#E8AD83" transform="translate(126,67)"/>
<path d="M0 0 C3.5786304 1.65167557 6.74820188 3.78286492 10 6 C9.67 6.66 9.34 7.32 9 8 C5.33118845 7.29445932 2.29549466 5.72264494 -1 4 C-0.67 2.68 -0.34 1.36 0 0 Z M-1 5 C-0.67 5.66 -0.34 6.32 0 7 C-0.66 6.67 -1.32 6.34 -2 6 C-1.67 5.67 -1.34 5.34 -1 5 Z " fill="#E69764" transform="translate(195,23)"/>
<path d="M0 0 C6.16356805 1.6658292 11.48259656 4.87805286 17 8 C16.01 8.66 15.02 9.32 14 10 C13.59910156 9.52304687 13.19820312 9.04609375 12.78515625 8.5546875 C10.62235338 6.67110863 9.24951257 6.50487649 6.4375 6.125 C4.03125 5.671875 4.03125 5.671875 2 5 C0.4375 2.375 0.4375 2.375 0 0 Z " fill="#E7A172" transform="translate(178,14)"/>
<path d="M0 0 C0.66 0 1.32 0 2 0 C2 0.66 2 1.32 2 2 C2.99 2 3.98 2 5 2 C4.85915204 3.79206547 4.71216299 5.58364917 4.5625 7.375 C4.48128906 8.37273437 4.40007812 9.37046875 4.31640625 10.3984375 C4 13 4 13 3 15 C2.01 14.67 1.02 14.34 0 14 C0.350625 13.484375 0.70125 12.96875 1.0625 12.4375 C2.69464782 8.19391567 1.39679933 4.190398 0 0 Z " fill="#E4A97C" transform="translate(142,153)"/>
<path d="M0 0 C4.75 1.875 4.75 1.875 7 3 C7.625 6.0625 7.625 6.0625 8 9 C6.84775972 8.07038578 5.70340824 7.1309875 4.5625 6.1875 C3.60537109 5.40439453 3.60537109 5.40439453 2.62890625 4.60546875 C1 3 1 3 0 0 Z " fill="#E4A67C" transform="translate(52,186)"/>
<path d="M0 0 C0 3.38878512 -0.64361198 4.39757217 -2.4375 7.1875 C-2.88996094 7.90292969 -3.34242188 8.61835938 -3.80859375 9.35546875 C-4.20175781 9.89816406 -4.59492188 10.44085938 -5 11 C-5.33 11 -5.66 11 -6 11 C-6 9.35 -6 7.7 -6 6 C-5.34 6 -4.68 6 -4 6 C-3.67 4.35 -3.34 2.7 -3 1 C-2.01 0.67 -1.02 0.34 0 0 Z " fill="#E4A474" transform="translate(230,170)"/>
<path d="M0 0 C-4.65492322 3.56877447 -9.34849564 3.68175995 -15 4 C-12.83900627 1.83900627 -11.4789582 1.28436284 -8.625 0.3125 C-7.46871094 -0.09548828 -7.46871094 -0.09548828 -6.2890625 -0.51171875 C-3.79944692 -1.04278009 -2.38446982 -0.81115526 0 0 Z " fill="#E6AE86" transform="translate(109,10)"/>
<path d="M0 0 C5.52677733 -0.19392201 9.75614911 0.2520497 15 2 C15 2.33 15 2.66 15 3 C10.545 3.495 10.545 3.495 6 4 C5.67 3.34 5.34 2.68 5 2 C2.47266765 1.34444881 2.47266765 1.34444881 0 1 C0 0.67 0 0.34 0 0 Z " fill="#E49C69" transform="translate(154,8)"/>
<path d="M0 0 C0.66 0.33 1.32 0.66 2 1 C2 1.99 2 2.98 2 4 C2.99 3.67 3.98 3.34 5 3 C5 4.65 5 6.3 5 8 C2.36 6.02 -0.28 4.04 -3 2 C-2.01 1.34 -1.02 0.68 0 0 Z " fill="#E4A273" transform="translate(63,194)"/>
<path d="M0 0 C1 2 1 2 0.9375 4.4375 C0 7 0 7 -3.0625 8.8125 C-4.031875 9.204375 -5.00125 9.59625 -6 10 C-4.6302836 6.00499382 -2.74277578 3.19990508 0 0 Z " fill="#E6A578" transform="translate(49,47)"/>
<path d="M0 0 C0.66 0.99 1.32 1.98 2 3 C1.21718695 4.33855056 0.42348123 5.67073644 -0.375 7 C-0.81585938 7.7425 -1.25671875 8.485 -1.7109375 9.25 C-2.13632812 9.8275 -2.56171875 10.405 -3 11 C-3.66 11 -4.32 11 -5 11 C-3.77472971 6.94718288 -2.30119506 3.55639236 0 0 Z " fill="#E29F72" transform="translate(42,57)"/>
<path d="M0 0 C-0.25 2.375 -0.25 2.375 -1 5 C-2.875 6.375 -2.875 6.375 -5 7 C-5.99 6.67 -6.98 6.34 -8 6 C-7.0479279 4.99403703 -6.08812654 3.99538437 -5.125 3 C-4.59132812 2.443125 -4.05765625 1.88625 -3.5078125 1.3125 C-2 0 -2 0 0 0 Z " fill="#E4A578" transform="translate(66,31)"/>
<path d="M0 0 C0.66 0.33 1.32 0.66 2 1 C1.67 3.31 1.34 5.62 1 8 C-1 6.6875 -1 6.6875 -3 5 C-3 4.01 -3 3.02 -3 2 C-2.01 2 -1.02 2 0 2 C0 1.34 0 0.68 0 0 Z " fill="#E59A64" transform="translate(51,178)"/>
<path d="M0 0 C2.97 0 5.94 0 9 0 C9 0.33 9 0.66 9 1 C7.9275 1.268125 6.855 1.53625 5.75 1.8125 C2.43491072 2.86227827 0.56122354 3.74612328 -2 6 C-2.33 4.68 -2.66 3.36 -3 2 C-2.01 2 -1.02 2 0 2 C0 1.34 0 0.68 0 0 Z " fill="#E5A271" transform="translate(129,105)"/>
<path d="M0 0 C3.10011632 2.53645881 4.0575938 5.15184135 5 9 C4.546875 11.19140625 4.546875 11.19140625 4 13 C3.32404685 11.58774074 2.65959941 10.16997095 2 8.75 C1.62875 7.96109375 1.2575 7.1721875 0.875 6.359375 C0 4 0 4 0 0 Z " fill="#E6AF86" transform="translate(237,75)"/>
<path d="M0 0 C0 0.66 0 1.32 0 2 C-0.66 2 -1.32 2 -2 2 C-2 2.99 -2 3.98 -2 5 C-3.98 5 -5.96 5 -8 5 C-3.16129032 0 -3.16129032 0 0 0 Z " fill="#E29E6D" transform="translate(82,20)"/>
<path d="M0 0 C0.33 0 0.66 0 1 0 C1.08131463 1.43655854 1.13933559 2.8744483 1.1875 4.3125 C1.23970703 5.51326172 1.23970703 5.51326172 1.29296875 6.73828125 C0.93801608 9.47851584 0.10633718 10.29171079 -2 12 C-1 3.42857143 -1 3.42857143 0 0 Z " fill="#E7A678" transform="translate(30,83)"/>
<path d="M0 0 C0.33 0 0.66 0 1 0 C1.35233161 5.37305699 1.35233161 5.37305699 1 8 C-1 10 -1 10 -3 11 C-3.66 10.67 -4.32 10.34 -5 10 C-4.360625 9.278125 -3.72125 8.55625 -3.0625 7.8125 C-1.01326465 5.01808816 -0.38667054 3.38336726 0 0 Z " fill="#E7B189" transform="translate(145,68)"/>
<path d="M0 0 C2.5 2.3125 2.5 2.3125 5 5 C5 5.99 5 6.98 5 8 C4.34 8 3.68 8 3 8 C3 7.34 3 6.68 3 6 C2.34 6 1.68 6 1 6 C0.67 4.02 0.34 2.04 0 0 Z " fill="#E8AA7D" transform="translate(220,45)"/>
<path d="M0 0 C0.33 0 0.66 0 1 0 C1 2.64 1 5.28 1 8 C-0.98 8.99 -0.98 8.99 -3 10 C-2.01 6.7 -1.02 3.4 0 0 Z " fill="#E5A97B" transform="translate(34,72)"/>
<path d="M0 0 C2.31 0.33 4.62 0.66 7 1 C5.68 2.32 4.36 3.64 3 5 C2.34 4.67 1.68 4.34 1 4 C1.33 3.34 1.66 2.68 2 2 C1.34 2 0.68 2 0 2 C0 1.34 0 0.68 0 0 Z " fill="#E5A476" transform="translate(192,204)"/>
<path d="M0 0 C1.32 0.33 2.64 0.66 4 1 C2.25 4.875 2.25 4.875 0 6 C0 4.02 0 2.04 0 0 Z " fill="#E1965E" transform="translate(201,198)"/>
<path d="M0 0 C0.66 0 1.32 0 2 0 C1.46930939 3.82097239 0.50298434 6.06171403 -2 9 C-2.20140476 5.37471432 -1.85776765 3.13498292 0 0 Z " fill="#E3A170" transform="translate(233,161)"/>
<path d="M0 0 C0.33 0 0.66 0 1 0 C1.13277344 0.62648438 1.26554687 1.25296875 1.40234375 1.8984375 C1.57894531 2.71570313 1.75554687 3.53296875 1.9375 4.375 C2.11152344 5.18710938 2.28554687 5.99921875 2.46484375 6.8359375 C2.92330693 9.029463 2.92330693 9.029463 4 11 C2.68 10.67 1.36 10.34 0 10 C0 6.7 0 3.4 0 0 Z " fill="#EBB894" transform="translate(126,112)"/>
<path d="M0 0 C3.16115776 1.36983503 3.9927092 1.9890638 6 5 C5.34 5.66 4.68 6.32 4 7 C2.35 5.02 0.7 3.04 -1 1 C-0.67 0.67 -0.34 0.34 0 0 Z " fill="#E69E6C" transform="translate(140,60)"/>
<path d="M0 0 C0 0.33 0 0.66 0 1 C-1.093125 1.28875 -2.18625 1.5775 -3.3125 1.875 C-7.04013845 2.81893204 -7.04013845 2.81893204 -10 5 C-9.625 3.0625 -9.625 3.0625 -9 1 C-6.04335481 -0.4783226 -3.25770263 -0.06032783 0 0 Z " fill="#E6AD82" transform="translate(138,60)"/>
</svg>
