<?xml version="1.0" encoding="UTF-8"?>
<!DOCTYPE svg PUBLIC "-//W3C//DTD SVG 1.1//EN" "http://www.w3.org/Graphics/SVG/1.1/DTD/svg11.dtd">
<svg xmlns="http://www.w3.org/2000/svg" version="1.1" width="512px" height="512px" style="shape-rendering:geometricPrecision; text-rendering:geometricPrecision; image-rendering:optimizeQuality; fill-rule:evenodd; clip-rule:evenodd" xmlns:xlink="http://www.w3.org/1999/xlink">
<g><path style="opacity:0.997" fill="#f44336" d="M 234.5,31.5 C 319.587,26.8041 387.754,58.1374 439,125.5C 484.783,195.228 492.117,268.895 461,346.5C 423.571,423.895 362.071,468.061 276.5,479C 191.387,484.184 123.221,453.017 72,385.5C 26.2165,315.772 18.8832,242.105 50,164.5C 87.5858,87.0924 149.086,42.7591 234.5,31.5 Z"/></g>
<g><path style="opacity:1" fill="#fffdfd" d="M 163.5,119.5 C 193.812,149.479 224.146,179.479 254.5,209.5C 284.82,179.68 314.986,149.68 345,119.5C 360.014,134.681 375.181,149.681 390.5,164.5C 360.5,194.833 330.5,225.167 300.5,255.5C 330.32,285.82 360.32,315.986 390.5,346C 375.833,360.667 361.167,375.333 346.5,390C 345.5,390.667 344.5,390.667 343.5,390C 313.986,360.32 284.32,330.82 254.5,301.5C 224.5,331.167 194.5,360.833 164.5,390.5C 149.514,376.014 134.681,361.347 120,346.5C 119.333,345.833 119.333,345.167 120,344.5C 149.68,314.986 179.18,285.32 208.5,255.5C 178.68,225.18 148.68,195.014 118.5,165C 133.702,149.965 148.702,134.799 163.5,119.5 Z"/></g>
</svg>
