<?xml version="1.0" encoding="UTF-8"?>
<svg version="1.1" xmlns="http://www.w3.org/2000/svg" width="137" height="129">
<path d="M0 0 C1.95019531 1.19238281 1.95019531 1.19238281 3.828125 2.703125 C4.89111816 3.54556763 4.89111816 3.54556763 5.97558594 4.4050293 C6.72614258 5.01386963 7.47669922 5.62270996 8.25 6.25 C9.86398133 7.53330957 11.47857944 8.81584377 13.09375 10.09765625 C13.91101563 10.75008301 14.72828125 11.40250977 15.5703125 12.07470703 C19.25806687 14.99689664 23.00282143 17.84219644 26.75 20.6875 C32.19576104 24.83834066 37.61517401 29.02036001 43 33.25 C43.59393555 33.71623779 44.18787109 34.18247559 44.79980469 34.6628418 C48.86814828 37.86814828 48.86814828 37.86814828 50 39 C50.11516352 41.01792284 50.15968788 43.03990294 50.17700195 45.06103516 C50.19625481 47.00908554 50.19625481 47.00908554 50.21589661 48.99649048 C50.22406644 50.42734395 50.2315097 51.85820173 50.23828125 53.2890625 C50.24235678 54.00755749 50.2464323 54.72605247 50.25063133 55.46632004 C50.27152024 59.27393051 50.28580599 63.08150471 50.29516602 66.88916016 C50.3061975 70.81333076 50.34055053 74.73692911 50.38033772 78.66089821 C50.40656281 81.68420422 50.41486334 84.70737564 50.41844749 87.73078537 C50.42330341 89.17640392 50.43488907 90.62201686 50.45348549 92.06752396 C50.62382397 106.19358388 50.62382397 106.19358388 46 112 C40.72397153 115.95702136 35.82038777 116.14933942 29.4050293 116.14526367 C28.64515717 116.14862228 27.88528503 116.1519809 27.10238647 116.15544128 C24.59298055 116.16493157 22.0836415 116.16689354 19.57421875 116.16796875 C17.8255053 116.17118304 16.07679211 116.17454725 14.32807922 116.17805481 C10.6621539 116.18404154 6.99625213 116.18589522 3.33032227 116.18530273 C-1.35696981 116.18520123 -6.04411003 116.19884387 -10.73136616 116.21607494 C-14.34399605 116.22721889 -17.95658953 116.22922119 -21.56923485 116.22869301 C-23.29671946 116.22986988 -25.02420511 116.23427517 -26.75167274 116.24202538 C-29.17350372 116.25187215 -31.59500898 116.24892869 -34.0168457 116.24291992 C-34.72410294 116.24853943 -35.43136017 116.25415894 -36.16004944 116.25994873 C-42.15208738 116.2223552 -47.16173363 115.55231383 -51.8125 111.625 C-55.45863775 107.24963469 -56.25751795 104.3558919 -56.41748047 98.64599609 C-56.45606171 97.35720551 -56.49464294 96.06841492 -56.53439331 94.74057007 C-56.56401628 93.33490043 -56.59156181 91.9291857 -56.6171875 90.5234375 C-56.63033115 89.81143818 -56.64347481 89.09943886 -56.65701675 88.3658638 C-56.72211194 84.59376216 -56.7710244 80.82177088 -56.81005859 77.04931641 C-56.84561446 73.94215567 -56.91510465 70.83865213 -57.01513672 67.73291016 C-57.13625229 63.96711145 -57.19709497 60.20468377 -57.21640396 56.43703079 C-57.23340658 55.01027709 -57.27078697 53.58360078 -57.3298912 52.15797043 C-57.75337 41.35819364 -57.75337 41.35819364 -54.83269119 37.43002892 C-51.59668321 34.0911881 -47.87580444 31.55633777 -44 29 C-42.52421264 27.86792799 -41.05548166 26.72642973 -39.6015625 25.56640625 C-38.27793373 24.56260437 -36.95241775 23.56128599 -35.625 22.5625 C-34.16997381 21.45912293 -32.7155565 20.35494251 -31.26171875 19.25 C-30.54935059 18.70859375 -29.83698242 18.1671875 -29.10302734 17.609375 C-25.85650258 15.12492048 -22.64657319 12.59501146 -19.4375 10.0625 C-18.30208555 9.17317425 -17.16666898 8.28385121 -16.03125 7.39453125 C-14.18149093 5.93331693 -12.34451003 4.45548697 -10.53125 2.94921875 C-9.8403125 2.38847656 -9.149375 1.82773438 -8.4375 1.25 C-7.87933594 0.78078125 -7.32117188 0.3115625 -6.74609375 -0.171875 C-4.20451859 -1.3772753 -2.67475556 -0.73293218 0 0 Z M-11.9375 15.375 C-13.28817751 16.48675314 -14.63975514 17.59741353 -15.9921875 18.70703125 C-16.66733398 19.26471191 -17.34248047 19.82239258 -18.03808594 20.39697266 C-20.83411728 22.68153485 -23.69172272 24.87238613 -26.5625 27.0625 C-27.53896484 27.8467334 -28.51542969 28.6309668 -29.52148438 29.43896484 C-31.81235041 31.21609791 -34.04049381 32.56833367 -36.65380859 33.81616211 C-41.04179823 36.14257279 -44.49532187 38.62490227 -47 43 C-49.30725206 52.20638173 -48.51724838 61.97995122 -48.13616943 71.39416504 C-48.03751937 74.2140694 -48.00329714 77.03311745 -47.97176456 79.85445404 C-47.90351261 85.67940685 -47.78729478 91.50520756 -47.56274414 97.32617188 C-47.52717911 98.35222534 -47.49161407 99.37827881 -47.45497131 100.4354248 C-47.17883211 103.00448115 -47.17883211 103.00448115 -45.75657654 104.83630371 C-43.47438469 106.34820947 -42.05724616 106.34504292 -39.33203125 106.29296875 C-38.43935547 106.28330078 -37.54667969 106.27363281 -36.62695312 106.26367188 C-35.69818359 106.23853516 -34.76941406 106.21339844 -33.8125 106.1875 C-32.40194336 106.16719727 -32.40194336 106.16719727 -30.96289062 106.14648438 C-28.64134962 106.11113096 -26.32096347 106.06178674 -24 106 C-23.99413376 105.37803741 -23.98826752 104.75607483 -23.98222351 104.11526489 C-23.91843603 97.65905841 -23.83405531 91.20335722 -23.73754883 84.74755859 C-23.70423335 82.3361679 -23.67622232 79.92469798 -23.65356445 77.51318359 C-23.62014028 74.05271542 -23.56783047 70.59297773 -23.51171875 67.1328125 C-23.50532883 66.04944611 -23.4989389 64.96607971 -23.49235535 63.84988403 C-23.47256119 62.8489975 -23.45276703 61.84811096 -23.43237305 60.81689453 C-23.42126999 59.93309113 -23.41016693 59.04928772 -23.39872742 58.13870239 C-23.26714737 57.4329306 -23.13556732 56.72715881 -23 56 C-19.32974488 53.55316325 -16.58087258 53.72732063 -12.33984375 53.76953125 C-11.22132774 53.77021858 -11.22132774 53.77021858 -10.08021545 53.7709198 C-8.50585333 53.77393789 -6.93149408 53.78181098 -5.35717773 53.79418945 C-2.94308945 53.8124577 -0.5293846 53.81469899 1.88476562 53.81445312 C3.41406583 53.81936811 4.94336342 53.82519634 6.47265625 53.83203125 C7.19663101 53.83314407 7.92060577 53.8342569 8.66651917 53.83540344 C13.7678318 53.8839159 13.7678318 53.8839159 16 55 C16.33 72.16 16.66 89.32 17 107 C23.6 107 30.2 107 37 107 C41.33919505 102.7221711 41.33919505 102.7221711 41.70800781 97.24438477 C41.75934875 96.08540176 41.8106897 94.92641876 41.86358643 93.73231506 C41.89313416 92.48131516 41.92268188 91.23031525 41.953125 89.94140625 C41.98541199 88.6461351 42.01769897 87.35086395 42.05096436 86.01634216 C42.1110018 83.27011257 42.15036939 80.52429271 42.18066406 77.77758789 C42.21597643 74.9800545 42.298993 72.19056624 42.42675781 69.39575195 C43.85308006 52.83003394 43.85308006 52.83003394 37.56494141 38.35351562 C34.30743559 35.43689323 30.81586012 33.17052899 26.97415161 31.0997467 C24.03859033 29.46442456 21.51525569 27.44968962 18.875 25.375 C17.93398437 24.68277344 16.99296875 23.99054687 16.0234375 23.27734375 C13.73835329 21.55614983 11.50755347 19.80749729 9.2890625 18.00390625 C8.65887207 17.4948877 8.02868164 16.98586914 7.37939453 16.46142578 C6.15244755 15.4665436 4.93172975 14.46391551 3.71826172 13.45263672 C-2.92211777 8.08844015 -6.07385898 10.42093768 -11.9375 15.375 Z M-15 62 C-15.10119282 65.07912559 -15.13968327 68.13535499 -15.1328125 71.21484375 C-15.13376923 72.14091934 -15.13472595 73.06699493 -15.13571167 74.02113342 C-15.13639362 75.98406034 -15.13453832 77.9469895 -15.13037109 79.90991211 C-15.12502907 82.92111263 -15.13031247 85.93216357 -15.13671875 88.94335938 C-15.13605785 90.8463545 -15.13477645 92.74934953 -15.1328125 94.65234375 C-15.13483673 95.55758286 -15.13686096 96.46282196 -15.13894653 97.39549255 C-15.13579437 98.23298538 -15.13264221 99.07047821 -15.12939453 99.93334961 C-15.12859894 100.67201767 -15.12780334 101.41068573 -15.12698364 102.17173767 C-15.11077644 104.09858446 -15.11077644 104.09858446 -14 106 C-6.41 106 1.18 106 9 106 C9 91.48 9 76.96 9 62 C5.225625 61.814375 1.45125 61.62875 -2.4375 61.4375 C-3.62915771 61.37618896 -4.82081543 61.31487793 -6.04858398 61.25170898 C-6.98001221 61.20860596 -7.91144043 61.16550293 -8.87109375 61.12109375 C-9.82943115 61.0739624 -10.78776855 61.02683105 -11.77514648 60.97827148 C-13.97347702 60.74008782 -13.97347702 60.74008782 -15 62 Z " fill="#E9B07C" transform="translate(74,7)"/>
<path d="M0 0 C2.99826433 0.33314048 4.7288874 0.79186575 7.14349365 2.64556885 C9.57994491 5.7354892 9.48439478 7.51307357 9.45410156 11.42089844 C9.45379944 12.72194519 9.45349731 14.02299194 9.45318604 15.36346436 C9.43276086 16.77877415 9.4118969 18.19407768 9.390625 19.609375 C9.38316145 21.06096619 9.37746905 22.51256748 9.37347412 23.96417236 C9.35822643 27.77846258 9.31895309 31.59214021 9.2746582 35.40618896 C9.23368623 39.30065627 9.21545906 43.19522289 9.1953125 47.08984375 C9.15245713 54.72684129 9.08421739 62.3633347 9 70 C8.34 70 7.68 70 7 70 C7 71.65 7 73.3 7 75 C5.515 74.505 5.515 74.505 4 74 C4 74.99 4 75.98 4 77 C2.35 77 0.7 77 -1 77 C-1 77.66 -1 78.32 -1 79 C-11.37888777 79.0231497 -21.75776943 79.04092854 -32.13667774 79.05181217 C-36.95579247 79.05703523 -41.77488956 79.06412245 -46.59399414 79.07543945 C-51.24293377 79.08628877 -55.89185641 79.09228119 -60.54080772 79.09487724 C-62.3162532 79.09672779 -64.09169773 79.10034134 -65.867136 79.10573006 C-68.35000253 79.11296758 -70.83279848 79.11398979 -73.31567383 79.11352539 C-74.05294708 79.11712067 -74.79022034 79.12071594 -75.54983521 79.12442017 C-78.64583066 79.11813605 -81.03843772 78.98718743 -84 78 C-83.67 76.35 -83.34 74.7 -83 73 C-72.605 72.505 -72.605 72.505 -62 72 C-61.67 55.17 -61.34 38.34 -61 21 C-57.45584506 19.81861502 -54.24578422 19.8565262 -50.55859375 19.8671875 C-49.83511246 19.86623077 -49.11163116 19.86527405 -48.3662262 19.86428833 C-46.83895785 19.86360858 -45.3116866 19.86544859 -43.78442383 19.86962891 C-41.44280542 19.87498786 -39.10137813 19.86967305 -36.75976562 19.86328125 C-35.27604124 19.86394192 -33.79231698 19.86522284 -32.30859375 19.8671875 C-31.60649277 19.86516327 -30.90439178 19.86313904 -30.18101501 19.86105347 C-25.22993553 19.88503224 -25.22993553 19.88503224 -23 21 C-23 38.16 -23 55.32 -23 73 C-16.07 73 -9.14 73 -2 73 C-2 72.34 -2 71.68 -2 71 C-0.02 70.67 1.96 70.34 4 70 C4 48.55 4 27.1 4 5 C2.35 4.67 0.7 4.34 -1 4 C-0.67 2.68 -0.34 1.36 0 0 Z M-54 27 C-54.10119282 30.07912559 -54.13968327 33.13535499 -54.1328125 36.21484375 C-54.13376923 37.14091934 -54.13472595 38.06699493 -54.13571167 39.02113342 C-54.13639362 40.98406034 -54.13453832 42.9469895 -54.13037109 44.90991211 C-54.12502907 47.92111263 -54.13031247 50.93216357 -54.13671875 53.94335938 C-54.13605785 55.8463545 -54.13477645 57.74934953 -54.1328125 59.65234375 C-54.13483673 60.55758286 -54.13686096 61.46282196 -54.13894653 62.39549255 C-54.13579437 63.23298538 -54.13264221 64.07047821 -54.12939453 64.93334961 C-54.12859894 65.67201767 -54.12780334 66.41068573 -54.12698364 67.17173767 C-54.11077644 69.09858446 -54.11077644 69.09858446 -53 71 C-45.41 71 -37.82 71 -30 71 C-30 56.48 -30 41.96 -30 27 C-33.774375 26.814375 -37.54875 26.62875 -41.4375 26.4375 C-42.62915771 26.37618896 -43.82081543 26.31487793 -45.04858398 26.25170898 C-45.98001221 26.20860596 -46.91144043 26.16550293 -47.87109375 26.12109375 C-48.82943115 26.0739624 -49.78776855 26.02683105 -50.77514648 25.97827148 C-52.97347702 25.74008782 -52.97347702 25.74008782 -54 27 Z " fill="#E5833F" transform="translate(113,42)"/>
<path d="M0 0 C1.95019531 1.19238281 1.95019531 1.19238281 3.828125 2.703125 C4.89111816 3.54556763 4.89111816 3.54556763 5.97558594 4.4050293 C6.72614258 5.01386963 7.47669922 5.62270996 8.25 6.25 C9.86398133 7.53330957 11.47857944 8.81584377 13.09375 10.09765625 C13.91101563 10.75008301 14.72828125 11.40250977 15.5703125 12.07470703 C19.25806687 14.99689664 23.00282143 17.84219644 26.75 20.6875 C32.19576104 24.83834066 37.61517401 29.02036001 43 33.25 C43.59393555 33.71623779 44.18787109 34.18247559 44.79980469 34.6628418 C48.86814828 37.86814828 48.86814828 37.86814828 50 39 C50.10990901 41.02865944 50.14912451 43.06117434 50.16113281 45.09277344 C50.17074036 46.39792908 50.1803479 47.70308472 50.19024658 49.04779053 C50.19509516 50.48498358 50.19937384 51.92217866 50.203125 53.359375 C50.20887523 54.82570397 50.21463298 56.29203291 50.22039795 57.75836182 C50.23091973 60.83858593 50.23675407 63.91878387 50.24023438 66.99902344 C50.24570909 70.94122122 50.26970982 74.88307185 50.29820633 78.82516098 C50.31685912 81.85696409 50.32203979 84.88868422 50.32357025 87.92053986 C50.32659345 89.37337382 50.33461083 90.82620643 50.34775543 92.27898407 C50.36486243 94.31580241 50.36108415 96.35276354 50.35644531 98.38964844 C50.36191376 100.12719391 50.36191376 100.12719391 50.36749268 101.89984131 C49.96119029 105.32739771 49.03638969 107.24088766 47 110 C46.67 110 46.34 110 46 110 C46 108.35 46 106.7 46 105 C46.66 105 47.32 105 48 105 C47.9157192 96.55942974 47.82088439 88.11907303 47.71247292 79.67878151 C47.66246998 75.75984887 47.61614057 71.84094371 47.578125 67.921875 C47.5413223 64.14163767 47.49497657 60.36162809 47.44193649 56.58158493 C47.42336573 55.13749552 47.40826772 53.69335724 47.39665604 52.2491951 C47.37984008 50.23064937 47.34966895 48.21222812 47.31884766 46.19384766 C47.30552399 45.04357086 47.29220032 43.89329407 47.2784729 42.7081604 C47.27262362 39.85191072 47.27262362 39.85191072 45 38 C44.67 37.34 44.34 36.68 44 36 C42.35 36 40.7 36 39 36 C38.67 36.99 38.34 37.98 38 39 C39.65 39.33 41.3 39.66 43 40 C43 61.45 43 82.9 43 105 C42.01 105 41.02 105 40 105 C40.03108856 104.247686 40.06217712 103.49537201 40.09420776 102.72026062 C40.37618685 95.58682192 40.58855736 88.45612576 40.72537041 81.31854534 C40.79808533 77.64962046 40.89642396 73.98534123 41.05615234 70.3190918 C42.63154281 53.54707448 42.63154281 53.54707448 37.04980469 38.74072266 C34.23047978 36.25108322 31.22221673 34.50324311 27.82232666 32.92378235 C24.72535591 31.35385146 22.19747703 29.17630843 19.5 27 C18.43989845 26.18826433 17.37767225 25.37928905 16.3125 24.57421875 C13.91320687 22.73211086 11.57423441 20.83039897 9.25 18.89453125 C8.62416016 18.38083984 7.99832031 17.86714844 7.35351562 17.33789062 C6.14398311 16.34247978 4.94417418 15.33509977 3.75585938 14.31445312 C0.56528572 11.62437595 0.56528572 11.62437595 -3.42553711 11.18457031 C-6.27320984 12.08653588 -7.96944101 13.21554596 -10.28515625 15.08984375 C-11.45208008 16.01893555 -11.45208008 16.01893555 -12.64257812 16.96679688 C-13.44115234 17.61712891 -14.23972656 18.26746094 -15.0625 18.9375 C-16.65508207 20.22051994 -18.25005037 21.50058486 -19.84765625 22.77734375 C-20.54898682 23.34702881 -21.25031738 23.91671387 -21.97290039 24.50366211 C-23.91404888 25.93655373 -25.81158898 26.99589109 -28 28 C-28 27.34 -28 26.68 -28 26 C-28.66 26 -29.32 26 -30 26 C-30 26.66 -30 27.32 -30 28 C-30.99 28 -31.98 28 -33 28 C-34.71711243 30.44496043 -34.71711243 30.44496043 -36 33 C-36.99 32.67 -37.98 32.34 -39 32 C-36.28314009 23.30604829 -29.8321294 17.61092329 -22.6875 12.4375 C-21.17527354 11.31969695 -19.66354999 10.2012132 -18.15234375 9.08203125 C-17.4341748 8.55432129 -16.71600586 8.02661133 -15.97607422 7.48291016 C-12.8244833 5.11785416 -9.82857789 2.56541295 -6.859375 -0.0234375 C-4.22936042 -1.40474768 -2.82049387 -0.78492895 0 0 Z " fill="#E6955C" transform="translate(74,7)"/>
<path d="M0 0 C1.05904289 0.00212242 1.05904289 0.00212242 2.13948059 0.00428772 C4.39120751 0.00987861 6.64283446 0.02242937 8.89453125 0.03515625 C10.4225246 0.04017243 11.95051952 0.04473513 13.47851562 0.04882812 C17.2213926 0.05984505 20.96419498 0.07710338 24.70703125 0.09765625 C24.37703125 2.07765625 24.04703125 4.05765625 23.70703125 6.09765625 C23.04703125 6.09765625 22.38703125 6.09765625 21.70703125 6.09765625 C22.20203125 7.08765625 22.20203125 7.08765625 22.70703125 8.09765625 C22.79637531 9.51738898 22.82462103 10.94123416 22.82055664 12.36376953 C22.82048111 13.24453156 22.82040558 14.12529358 22.82032776 15.03274536 C22.81516647 15.98486908 22.81000519 16.9369928 22.8046875 17.91796875 C22.80327255 18.89176483 22.8018576 19.86556091 22.80039978 20.86886597 C22.79479098 23.98682698 22.78223698 27.10471685 22.76953125 30.22265625 C22.76451738 32.3333323 22.75995428 34.44400947 22.75585938 36.5546875 C22.7448187 41.73570146 22.72807198 46.91667377 22.70703125 52.09765625 C20.24582284 53.32826046 18.44926259 53.30342855 15.69921875 53.4140625 C14.22001953 53.4769043 14.22001953 53.4769043 12.7109375 53.54101562 C11.67839844 53.58033203 10.64585938 53.61964844 9.58203125 53.66015625 C8.02162109 53.72493164 8.02162109 53.72493164 6.4296875 53.79101562 C3.85560597 53.89728505 1.28142617 53.99932208 -1.29296875 54.09765625 C-1.62296875 54.75765625 -1.95296875 55.41765625 -2.29296875 56.09765625 C-1.63296875 56.09765625 -0.97296875 56.09765625 -0.29296875 56.09765625 C-0.62296875 57.08765625 -0.95296875 58.07765625 -1.29296875 59.09765625 C-5.36807313 59.12239075 -9.44314839 59.14053262 -13.51831055 59.15258789 C-14.904386 59.15761402 -16.29045616 59.16443591 -17.67651367 59.1730957 C-19.6697359 59.18523643 -21.66299694 59.19036646 -23.65625 59.1953125 C-24.85548096 59.20054932 -26.05471191 59.20578613 -27.2902832 59.21118164 C-30.29296875 59.09765625 -30.29296875 59.09765625 -33.29296875 58.09765625 C-32.96296875 56.44765625 -32.63296875 54.79765625 -32.29296875 53.09765625 C-21.89796875 52.60265625 -21.89796875 52.60265625 -11.29296875 52.09765625 C-10.96296875 35.26765625 -10.63296875 18.43765625 -10.29296875 1.09765625 C-6.78672445 -0.07109185 -3.64518215 -0.02748642 0 0 Z M-3.29296875 7.09765625 C-3.39416157 10.17678184 -3.43265202 13.23301124 -3.42578125 16.3125 C-3.42673798 17.23857559 -3.4276947 18.16465118 -3.42868042 19.11878967 C-3.42936237 21.08171659 -3.42750707 23.04464575 -3.42333984 25.00756836 C-3.41799782 28.01876888 -3.42328122 31.02981982 -3.4296875 34.04101562 C-3.4290266 35.94401075 -3.4277452 37.84700578 -3.42578125 39.75 C-3.42780548 40.65523911 -3.42982971 41.56047821 -3.43191528 42.4931488 C-3.42876312 43.33064163 -3.42561096 44.16813446 -3.42236328 45.03100586 C-3.42156769 45.76967392 -3.42077209 46.50834198 -3.41995239 47.26939392 C-3.40374519 49.19624071 -3.40374519 49.19624071 -2.29296875 51.09765625 C5.29703125 51.09765625 12.88703125 51.09765625 20.70703125 51.09765625 C20.70703125 36.57765625 20.70703125 22.05765625 20.70703125 7.09765625 C16.93265625 6.91203125 13.15828125 6.72640625 9.26953125 6.53515625 C8.07787354 6.47384521 6.88621582 6.41253418 5.65844727 6.34936523 C4.72701904 6.30626221 3.79559082 6.26315918 2.8359375 6.21875 C1.8776001 6.17161865 0.9192627 6.1244873 -0.06811523 6.07592773 C-2.26644577 5.83774407 -2.26644577 5.83774407 -3.29296875 7.09765625 Z " fill="#E7823E" transform="translate(62.29296875,61.90234375)"/>
<path d="M0 0 C0.33 1.32 0.66 2.64 1 4 C-0.98 4.33 -2.96 4.66 -5 5 C-4.99777939 5.73391968 -4.99555878 6.46783936 -4.99327087 7.22399902 C-4.97316738 14.16752302 -4.95797479 21.11104263 -4.94818783 28.05458832 C-4.94298699 31.62364451 -4.93594064 35.19267649 -4.92456055 38.76171875 C-4.91363161 42.21116878 -4.90770212 45.66059563 -4.90512276 49.11006165 C-4.90239765 51.05527511 -4.89460172 53.00047937 -4.88670349 54.94567871 C-4.88631872 61.06206168 -5.04637274 66.95486108 -6 73 C-4.68 73.66 -3.36 74.32 -2 75 C-4.16264785 77.16264785 -4.98188578 77.82246387 -8 78 C-10.77333918 75.78132865 -11.86873442 74.39379675 -13 71 C-13.10437669 68.88470492 -13.14863203 66.76626929 -13.16113281 64.6484375 C-13.17074036 63.33697754 -13.1803479 62.02551758 -13.19024658 60.67431641 C-13.19509344 59.2412127 -13.19937254 57.80810699 -13.203125 56.375 C-13.20887753 54.90673826 -13.21463525 53.43847654 -13.22039795 51.97021484 C-13.2308975 48.89355113 -13.23674754 45.81691348 -13.24023438 42.74023438 C-13.24572822 38.79565636 -13.2697792 34.85142195 -13.29820633 30.9069519 C-13.31681414 27.87523382 -13.32203722 24.84359899 -13.32357025 21.81182861 C-13.32659967 20.35734165 -13.33463798 18.90285626 -13.34775543 17.44842529 C-13.36478116 15.41620695 -13.36109592 13.38384684 -13.35644531 11.3515625 C-13.36009094 10.19479004 -13.36373657 9.03801758 -13.36749268 7.84619141 C-13 5 -13 5 -11.62615967 3.17724609 C-7.89971711 0.47951596 -4.55027311 -0.26001561 0 0 Z " fill="#E48441" transform="translate(31,41)"/>
<path d="M0 0 C10.56 0 21.12 0 32 0 C31.67 1.98 31.34 3.96 31 6 C30.34 6 29.68 6 29 6 C29.33 6.66 29.66 7.32 30 8 C30.08934406 9.41973273 30.11758978 10.84357791 30.11352539 12.26611328 C30.11344986 13.14687531 30.11337433 14.02763733 30.11329651 14.93508911 C30.10813522 15.88721283 30.10297394 16.83933655 30.09765625 17.8203125 C30.0962413 18.79410858 30.09482635 19.76790466 30.09336853 20.77120972 C30.08775973 23.88917073 30.07520573 27.0070606 30.0625 30.125 C30.05748613 32.23567605 30.05292303 34.34635322 30.04882812 36.45703125 C30.03778745 41.63804521 30.02104073 46.81901752 30 52 C27.28598706 53.35700647 25.15153684 53.1123861 22.1171875 53.09765625 C20.95058594 53.09443359 19.78398438 53.09121094 18.58203125 53.08789062 C17.35871094 53.07951172 16.13539062 53.07113281 14.875 53.0625 C13.64394531 53.05798828 12.41289063 53.05347656 11.14453125 53.04882812 C8.09630608 53.0370133 5.04817686 53.02054028 2 53 C1.97462356 46.39803896 1.95712196 39.79609052 1.94506836 33.1940918 C1.94004281 30.94864431 1.93322135 28.70320008 1.92456055 26.45776367 C1.91241719 23.22834466 1.90675386 19.99896895 1.90234375 16.76953125 C1.89718246 15.76727005 1.89202118 14.76500885 1.88670349 13.7323761 C1.88662796 12.79177841 1.88655243 11.85118073 1.88647461 10.88208008 C1.884254 10.05823318 1.88203339 9.23438629 1.87974548 8.38557434 C2.0079421 5.84244683 2.44270612 3.48159069 3 1 C2.01 0.67 1.02 0.34 0 0 Z M4 7 C3.89880718 10.07912559 3.86031673 13.13535499 3.8671875 16.21484375 C3.86623077 17.14091934 3.86527405 18.06699493 3.86428833 19.02113342 C3.86360638 20.98406034 3.86546168 22.9469895 3.86962891 24.90991211 C3.87497093 27.92111263 3.86968753 30.93216357 3.86328125 33.94335938 C3.86394215 35.8463545 3.86522355 37.74934953 3.8671875 39.65234375 C3.86516327 40.55758286 3.86313904 41.46282196 3.86105347 42.39549255 C3.86420563 43.23298538 3.86735779 44.07047821 3.87060547 44.93334961 C3.87140106 45.67201767 3.87219666 46.41068573 3.87301636 47.17173767 C3.88922356 49.09858446 3.88922356 49.09858446 5 51 C12.59 51 20.18 51 28 51 C28 36.48 28 21.96 28 7 C24.225625 6.814375 20.45125 6.62875 16.5625 6.4375 C15.37084229 6.37618896 14.17918457 6.31487793 12.95141602 6.25170898 C12.01998779 6.20860596 11.08855957 6.16550293 10.12890625 6.12109375 C9.17056885 6.0739624 8.21223145 6.02683105 7.22485352 5.97827148 C5.02652298 5.74008782 5.02652298 5.74008782 4 7 Z " fill="#E1894C" transform="translate(55,62)"/>
<path d="M0 0 C1.22995949 0.9156026 2.45892386 1.83254203 3.6875 2.75 C4.71423828 3.51570313 4.71423828 3.51570313 5.76171875 4.296875 C6.86966797 5.13992187 6.86966797 5.13992187 8 6 C8.85847534 6.56243912 9.71695068 7.12487823 10.60144043 7.70436096 C13 10 13 10 13.62145996 12.95298767 C13.61940552 14.10150711 13.61735107 15.25002655 13.61523438 16.43334961 C13.62453979 17.73827866 13.63384521 19.0432077 13.64343262 20.38768005 C13.62784418 21.80924562 13.61125898 23.23080055 13.59375 24.65234375 C13.59203825 26.11438397 13.59210523 27.57642726 13.59387207 29.03846741 C13.59221944 32.10105806 13.57353578 35.16291618 13.54199219 38.2253418 C13.50234894 42.14402645 13.49794301 46.06175041 13.50545502 49.9805975 C13.50853033 52.99960576 13.49638387 56.0183995 13.47932434 59.03735542 C13.4723099 60.4817832 13.46916792 61.92623529 13.47001648 63.37067986 C13.46821144 65.39293999 13.4445194 67.41514452 13.41992188 69.43725586 C13.41150269 70.58657089 13.4030835 71.73588593 13.39440918 72.92002869 C12.95896861 76.32041722 12.01791486 78.25495033 10 81 C9.67 81 9.34 81 9 81 C9 79.35 9 77.7 9 76 C9.66 76 10.32 76 11 76 C10.9157192 67.55942974 10.82088439 59.11907303 10.71247292 50.67878151 C10.66246998 46.75984887 10.61614057 42.84094371 10.578125 38.921875 C10.5413223 35.14163767 10.49497657 31.36162809 10.44193649 27.58158493 C10.42336573 26.13749552 10.40826772 24.69335724 10.39665604 23.2491951 C10.37984008 21.23064937 10.34966895 19.21222812 10.31884766 17.19384766 C10.30552399 16.04357086 10.29220032 14.89329407 10.2784729 13.7081604 C10.27262362 10.85191072 10.27262362 10.85191072 8 9 C7.67 8.34 7.34 7.68 7 7 C5.35 7 3.7 7 2 7 C1.67 7.99 1.34 8.98 1 10 C2.65 10.33 4.3 10.66 6 11 C6 32.45 6 53.9 6 76 C5.01 76 4.02 76 3 76 C3.01332367 75.23436234 3.02664734 74.46872467 3.04037476 73.67988586 C3.16071817 66.45589938 3.25200654 59.23240043 3.31087303 52.00767231 C3.34215521 48.29349743 3.38456675 44.58015236 3.45263672 40.86645508 C3.51794703 37.28077767 3.55372947 33.69589703 3.56926346 30.10967064 C3.58032948 28.743252 3.60194052 27.37687583 3.63438034 26.0107975 C4.11745506 18.68056841 4.11745506 18.68056841 1.62432861 12.09140015 C-0.17540923 10.56695806 -0.17540923 10.56695806 -3 9 C-3 8.34 -3 7.68 -3 7 C-2.01 6.67 -1.02 6.34 0 6 C0 4.02 0 2.04 0 0 Z " fill="#E8A474" transform="translate(111,36)"/>
<path d="M0 0 C1.11283607 -0.00074776 1.11283607 -0.00074776 2.24815369 -0.00151062 C3.8123544 0.00082451 5.37655924 0.01052003 6.94067383 0.02709961 C9.33513944 0.05073481 11.7284939 0.04765146 14.12304688 0.04101562 C15.64453789 0.04659142 17.16602422 0.05370068 18.6875 0.0625 C19.40317642 0.06158859 20.11885284 0.06067719 20.85621643 0.05973816 C24.54174082 0.11236269 26.12786293 0.26362737 29.27734375 2.36328125 C29.6381073 4.57791138 29.6381073 4.57791138 29.61791992 7.36376953 C29.61758003 8.92516159 29.61758003 8.92516159 29.61723328 10.51809692 C29.60174942 11.64521088 29.58626556 12.77232483 29.5703125 13.93359375 C29.56606766 15.08495819 29.56182281 16.23632263 29.55744934 17.4225769 C29.54061427 21.1113798 29.50295249 24.79964261 29.46484375 28.48828125 C29.44980319 30.98436713 29.4361137 33.48046154 29.42382812 35.9765625 C29.39069482 42.10567784 29.33887882 48.23438789 29.27734375 54.36328125 C35.87734375 54.36328125 42.47734375 54.36328125 49.27734375 54.36328125 C49.27734375 54.69328125 49.27734375 55.02328125 49.27734375 55.36328125 C42.34734375 55.36328125 35.41734375 55.36328125 28.27734375 55.36328125 C28.27734375 38.20328125 28.27734375 21.04328125 28.27734375 3.36328125 C15.73734375 3.36328125 3.19734375 3.36328125 -9.72265625 3.36328125 C-9.72265625 20.19328125 -9.72265625 37.02328125 -9.72265625 54.36328125 C-16.65265625 54.36328125 -23.58265625 54.36328125 -30.72265625 54.36328125 C-30.72265625 54.03328125 -30.72265625 53.70328125 -30.72265625 53.36328125 C-24.45265625 53.36328125 -18.18265625 53.36328125 -11.72265625 53.36328125 C-11.74360352 51.86434326 -11.76455078 50.36540527 -11.78613281 48.82104492 C-11.85843409 43.26938397 -11.90442047 37.71776477 -11.94238281 32.16577148 C-11.96252072 29.76107795 -11.98983295 27.3564335 -12.02441406 24.9519043 C-12.07283502 21.49906311 -12.09560336 18.04686827 -12.11328125 14.59375 C-12.13392639 13.51554489 -12.15457153 12.43733978 -12.17584229 11.32646179 C-12.17614441 10.32565079 -12.17644653 9.32483978 -12.17675781 8.29370117 C-12.18564026 7.41211838 -12.19452271 6.53053558 -12.20367432 5.62223816 C-11.72265625 3.36328125 -11.72265625 3.36328125 -9.91474915 1.57839966 C-6.7001035 -0.20353901 -3.57918711 -0.04618974 0 0 Z " fill="#EEB991" transform="translate(61.72265625,59.63671875)"/>
<path d="M0 0 C7.26 0 14.52 0 22 0 C23.1650499 2.3300998 23.1209358 3.67247077 23.11352539 6.26611328 C23.11344986 7.14687531 23.11337433 8.02763733 23.11329651 8.93508911 C23.10813522 9.88721283 23.10297394 10.83933655 23.09765625 11.8203125 C23.0962413 12.79410858 23.09482635 13.76790466 23.09336853 14.77120972 C23.08775973 17.88917073 23.07520573 21.0070606 23.0625 24.125 C23.05748613 26.23567605 23.05292303 28.34635322 23.04882812 30.45703125 C23.03863725 35.63807047 23.01906353 40.81895535 23 46 C14.42 46 5.84 46 -3 46 C-2.67 45.01 -2.34 44.02 -2 43 C-2 43.66 -2 44.32 -2 45 C5.59 45 13.18 45 21 45 C20.91621094 42.91300781 20.83242187 40.82601562 20.74609375 38.67578125 C20.66822601 36.6070754 20.59291043 34.53829082 20.51782227 32.46948242 C20.46513703 31.05466758 20.40988664 29.63994544 20.35180664 28.2253418 C19.97790871 19.06646826 20.12021725 10.14322366 21 1 C14.07 1 7.14 1 0 1 C0 0.67 0 0.34 0 0 Z " fill="#EABB91" transform="translate(62,68)"/>
<path d="M0 0 C0.66 0.33 1.32 0.66 2 1 C2 1.99 2 2.98 2 4 C0.68 4 -0.64 4 -2 4 C-2 25.45 -2 46.9 -2 69 C-2.33 69 -2.66 69 -3 69 C-3.06947395 60.4465123 -3.12279776 51.89314225 -3.15543652 43.33944225 C-3.17110056 39.36771373 -3.19235199 35.39617807 -3.22631836 31.42456055 C-3.25888596 27.59256911 -3.27684745 23.76076332 -3.28463173 19.92864418 C-3.29017996 18.46577341 -3.30101425 17.00291293 -3.31719017 15.54012108 C-3.33893079 13.49291304 -3.34196847 11.4464746 -3.34057617 9.39916992 C-3.34723801 8.23334885 -3.35389984 7.06752777 -3.36076355 5.86637878 C-3 3 -3 3 -1.47871399 1.10005188 C-0.99073837 0.73703476 -0.50276276 0.37401764 0 0 Z " fill="#EAAC80" transform="translate(21,43)"/>
<path d="M0 0 C2.64 0.33 5.28 0.66 8 1 C8.33 2.98 8.66 4.96 9 7 C7.02 7.66 5.04 8.32 3 9 C0.9375 6.75 0.9375 6.75 -1 4 C-0.75 1.6875 -0.75 1.6875 0 0 Z " fill="#E38E50" transform="translate(103,35)"/>
<path d="M0 0 C-0.57584432 2.38564077 -1.22227595 4.66682784 -2 7 C-2.99 7 -3.98 7 -5 7 C-6.71711243 9.44496043 -6.71711243 9.44496043 -8 12 C-8.99 11.67 -9.98 11.34 -11 11 C-9.07216318 5.37714261 -6.48160071 0 0 0 Z " fill="#E5823C" transform="translate(46,28)"/>
<path d="M0 0 C8.44646925 6.15034169 8.44646925 6.15034169 12 10 C11.01 10.495 11.01 10.495 10 11 C8 9 8 9 7 7 C5.35 7 3.7 7 2 7 C2 8.65 2 10.3 2 12 C0.0625 11.1875 0.0625 11.1875 -2 10 C-2.33 9.01 -2.66 8.02 -3 7 C-2.01 6.67 -1.02 6.34 0 6 C0 4.02 0 2.04 0 0 Z " fill="#E8A577" transform="translate(111,36)"/>
<path d="M0 0 C-0.66 1.65 -1.32 3.3 -2 5 C-2.33 4.34 -2.66 3.68 -3 3 C-3.66 3 -4.32 3 -5 3 C-5 3.99 -5 4.98 -5 6 C-6.65 5.67 -8.3 5.34 -10 5 C-9.75 3.125 -9.75 3.125 -9 1 C-5.84213022 -1.36840234 -3.69270227 -1.02575063 0 0 Z " fill="#E5823E" transform="translate(58,22)"/>
<path d="M0 0 C3.36591866 1.44253657 5.51047079 3.33264727 8 6 C5.66666667 6 3.33333333 6 1 6 C1.33 7.65 1.66 9.3 2 11 C-1.36591866 9.55746343 -3.51047079 7.66735273 -6 5 C-5.21625 5.04125 -4.4325 5.0825 -3.625 5.125 C-0.83883881 5.28728734 -0.83883881 5.28728734 1 3 C0.67 2.01 0.34 1.02 0 0 Z " fill="#E7A271" transform="translate(102,30)"/>
<path d="M0 0 C0.33 0 0.66 0 1 0 C1.08086376 2.93804996 1.1404283 5.87388075 1.1875 8.8125 C1.21263672 9.64587891 1.23777344 10.47925781 1.26367188 11.33789062 C1.27333984 12.14033203 1.28300781 12.94277344 1.29296875 13.76953125 C1.3086792 14.50792236 1.32438965 15.24631348 1.34057617 16.00708008 C0.91074167 18.52230522 -0.07463062 19.39441516 -2 21 C-2 19.35 -2 17.7 -2 16 C-1.34 16 -0.68 16 0 16 C0 10.72 0 5.44 0 0 Z " fill="#DF935E" transform="translate(122,96)"/>
<path d="M0 0 C1.65 0.33 3.3 0.66 5 1 C4.67 2.32 4.34 3.64 4 5 C2.35 4.67 0.7 4.34 -1 4 C-0.67 2.68 -0.34 1.36 0 0 Z " fill="#E8813A" transform="translate(103,35)"/>
<path d="M0 0 C7.57142857 4 7.57142857 4 10 8 C7.21788056 7.62403791 5.4120716 7.32681541 3.1875 5.5625 C2 4 2 4 2 2 C1.34 2 0.68 2 0 2 C0 1.34 0 0.68 0 0 Z " fill="#E5A576" transform="translate(74,8)"/>
<path d="M0 0 C1.32 0.66 2.64 1.32 4 2 C4 2.66 4 3.32 4 4 C1.09451118 6.04169485 -0.40142046 7 -4 7 C-4 6.01 -4 5.02 -4 4 C-2.68 3.67 -1.36 3.34 0 3 C0 2.01 0 1.02 0 0 Z " fill="#E4A274" transform="translate(116,115)"/>
<path d="M0 0 C0.66 0.33 1.32 0.66 2 1 C0.35 2.98 -1.3 4.96 -3 7 C-4.32 6.67 -5.64 6.34 -7 6 C-4.69 4.02 -2.38 2.04 0 0 Z " fill="#E9AE82" transform="translate(39,29)"/>
<path d="M0 0 C0.99 0 1.98 0 3 0 C3.66 1.32 4.32 2.64 5 4 C3.02 4.99 3.02 4.99 1 6 C1 5.34 1 4.68 1 4 C0.01 4 -0.98 4 -2 4 C-1.34 2.68 -0.68 1.36 0 0 Z " fill="#E58239" transform="translate(99,30)"/>
<path d="M0 0 C-1.62339805 1.70884005 -3.29319053 3.37446717 -5 5 C-5.66 5 -6.32 5 -7 5 C-7 3.68 -7 2.36 -7 1 C-4.53721199 -0.231394 -2.7204945 -0.07159196 0 0 Z " fill="#E5A174" transform="translate(33,45)"/>
<path d="M0 0 C0.33 0 0.66 0 1 0 C1.06058594 0.84304687 1.12117188 1.68609375 1.18359375 2.5546875 C1.26738281 3.65039062 1.35117187 4.74609375 1.4375 5.875 C1.51871094 6.96554688 1.59992187 8.05609375 1.68359375 9.1796875 C1.83001703 11.94728971 1.83001703 11.94728971 3 14 C2.34 14.66 1.68 15.32 1 16 C0 15 0 15 -0.09765625 11.62109375 C-0.09098369 10.22652923 -0.07902532 8.83198257 -0.0625 7.4375 C-0.05798828 6.72658203 -0.05347656 6.01566406 -0.04882812 5.28320312 C-0.03700864 3.52209987 -0.01907263 1.76103964 0 0 Z " fill="#DE965F" transform="translate(19,100)"/>
<path d="M0 0 C1.65 0.33 3.3 0.66 5 1 C5 1.99 5 2.98 5 4 C2.69 3.67 0.38 3.34 -2 3 C-1.34 2.01 -0.68 1.02 0 0 Z " fill="#E28342" transform="translate(68,8)"/>
<path d="M0 0 C0.66 0.33 1.32 0.66 2 1 C-1.32307692 5.8 -1.32307692 5.8 -4.75 6.8125 C-5.4925 6.874375 -6.235 6.93625 -7 7 C-4.66666667 4.66666667 -2.33333333 2.33333333 0 0 Z " fill="#E8AD83" transform="translate(48,22)"/>
<path d="M0 0 C0.99 0 1.98 0 3 0 C3 0.66 3 1.32 3 2 C4.98 2 6.96 2 9 2 C9 2.33 9 2.66 9 3 C2.9453125 3.9765625 2.9453125 3.9765625 1 4 C0.34 3.34 -0.32 2.68 -1 2 C-0.67 1.34 -0.34 0.68 0 0 Z " fill="#E7823C" transform="translate(64,12)"/>
</svg>
