<?xml version="1.0" encoding="UTF-8"?>
<svg version="1.1" xmlns="http://www.w3.org/2000/svg" width="140" height="125">
<path d="M0 0 C1.55174446 1.55174446 1.12594875 3.01587976 1.12698364 5.17565918 C1.12980347 6.07590317 1.13262329 6.97614716 1.13552856 7.90367126 C1.13350433 8.89903397 1.1314801 9.89439667 1.12939453 10.91992188 C1.13114685 11.96209366 1.13289917 13.00426544 1.13470459 14.07801819 C1.13912538 17.54161213 1.13618431 21.00515549 1.1328125 24.46875 C1.13348547 26.8638917 1.13445544 29.25903334 1.13571167 31.6541748 C1.13718895 36.68140308 1.13503311 41.70861362 1.13037109 46.73583984 C1.1246738 53.19606691 1.12795264 59.65625243 1.13394356 66.11647797 C1.13754835 71.06451737 1.13641096 76.01254685 1.13381577 80.96058655 C1.13314627 83.34334823 1.1339757 85.72611081 1.13629532 88.10887146 C1.13882051 91.43263149 1.13498313 94.75632321 1.12939453 98.08007812 C1.13141876 99.07544083 1.13344299 100.07080353 1.13552856 101.09632874 C1.13270874 101.99657272 1.12988892 102.89681671 1.12698364 103.82434082 C1.12660662 104.611175 1.12622959 105.39800919 1.12584114 106.20868683 C1 108 1 108 0 109 C-3.97275815 109.25256877 -7.95766175 109.18522451 -11.9375 109.1875 C-13.62262695 109.20586914 -13.62262695 109.20586914 -15.34179688 109.22460938 C-16.41365234 109.22654297 -17.48550781 109.22847656 -18.58984375 109.23046875 C-20.07278931 109.23663208 -20.07278931 109.23663208 -21.58569336 109.24291992 C-24 109 -24 109 -26 107 C-26.19365497 104.02358413 -26.26214735 101.14053162 -26.24291992 98.16333008 C-26.24481827 97.24769287 -26.24671661 96.33205566 -26.24867249 95.38867188 C-26.25238957 92.34887236 -26.24165882 89.3093097 -26.23046875 86.26953125 C-26.22927685 84.15923592 -26.22882381 82.04894006 -26.2290802 79.93864441 C-26.22751347 75.50748388 -26.21921244 71.07640392 -26.20581055 66.64526367 C-26.18887237 60.97371388 -26.18499469 55.30225315 -26.18575573 49.63068104 C-26.18548324 45.26829686 -26.17998842 40.90593203 -26.17275429 36.54355431 C-26.16957765 34.45323521 -26.16760257 32.36291392 -26.16686058 30.27259254 C-26.16468341 27.34290496 -26.15590801 24.41331011 -26.14526367 21.48364258 C-26.14571686 20.62363144 -26.14617004 19.7636203 -26.14663696 18.87754822 C-26.12161591 14.14859877 -25.78766792 9.66463047 -25 5 C-24.34 5 -23.68 5 -23 5 C-23 4.01 -23 3.02 -23 2 C-15.16285479 -0.17425502 -8.06777797 -1.86179492 0 0 Z M-18 7 C-18 38.02 -18 69.04 -18 101 C-14.37 101 -10.74 101 -7 101 C-7 70.31 -7 39.62 -7 8 C-10.63 7.67 -14.26 7.34 -18 7 Z " fill="#E38442" transform="translate(46,6)"/>
<path d="M0 0 C2.41430664 -0.35644531 2.41430664 -0.35644531 5.41015625 -0.328125 C7.01793945 -0.32039062 7.01793945 -0.32039062 8.65820312 -0.3125 C10.34333008 -0.2815625 10.34333008 -0.2815625 12.0625 -0.25 C13.75342773 -0.24226562 13.75342773 -0.24226562 15.47851562 -0.234375 C23.8462291 -0.1537709 23.8462291 -0.1537709 25 1 C25.09543095 2.39143689 25.12188575 3.78768367 25.12025452 5.18238831 C25.12162918 6.08407745 25.12300385 6.9857666 25.12442017 7.91477966 C25.12082489 8.91171341 25.11722961 9.90864716 25.11352539 10.93579102 C25.11367142 11.97956909 25.11381744 13.02334717 25.1139679 14.09875488 C25.11326826 17.56715943 25.10547353 21.03551103 25.09765625 24.50390625 C25.09579225 26.90144318 25.09436826 29.2989805 25.09336853 31.69651794 C25.08954194 38.02095584 25.07971046 44.34537094 25.06866455 50.6697998 C25.05845345 57.11775402 25.05387156 63.56571191 25.04882812 70.01367188 C25.03808832 82.675791 25.02120119 95.33789429 25 108 C20.99700128 110.00149936 15.90083269 109.18485209 11.5 109.1875 C10.42878906 109.19974609 9.35757813 109.21199219 8.25390625 109.22460938 C7.23167969 109.22654297 6.20945312 109.22847656 5.15625 109.23046875 C3.74569336 109.23663208 3.74569336 109.23663208 2.30664062 109.24291992 C-0 109 -0 109 -2 107 C-2.25168228 105.13807774 -2.25168228 105.13807774 -2.25396729 102.83143616 C-2.25960693 101.95795029 -2.26524658 101.08446442 -2.27105713 100.18450928 C-2.26700867 99.22393616 -2.26296021 98.26336304 -2.25878906 97.27368164 C-2.2622937 96.26383713 -2.26579834 95.25399261 -2.26940918 94.21354675 C-2.27823974 90.86234745 -2.27237218 87.51135784 -2.265625 84.16015625 C-2.26697137 81.83849548 -2.26891167 79.51683498 -2.27142334 77.19517517 C-2.27437649 72.3235303 -2.2700712 67.45195865 -2.26074219 62.58032227 C-2.24935393 56.32766158 -2.25590203 50.0751727 -2.26788712 43.82251835 C-2.27510595 39.02622681 -2.27281756 34.22997615 -2.26763153 29.4336834 C-2.26629477 27.12793393 -2.26794366 24.82218079 -2.27259064 22.51643562 C-2.27765548 19.29609438 -2.26994574 16.07603322 -2.25878906 12.85571289 C-2.26283752 11.897164 -2.26688599 10.93861511 -2.27105713 9.95101929 C-2.26541748 9.07471359 -2.25977783 8.1984079 -2.25396729 7.29554749 C-2.25321323 6.53397874 -2.25245918 5.77240999 -2.25168228 4.9877634 C-2 3 -2 3 0 0 Z M7 7 C5.34330982 10.31338036 5.86194705 14.01427235 5.87060547 17.65649414 C5.86885315 18.55250839 5.86710083 19.44852264 5.86529541 20.37168884 C5.86088257 23.34286416 5.86381266 26.31398029 5.8671875 29.28515625 C5.86651436 31.34256502 5.86554425 33.39997371 5.86428833 35.4573822 C5.86281218 39.77245846 5.86496351 44.08751404 5.86962891 48.40258789 C5.87532971 53.94692916 5.87204444 59.49122206 5.86605644 65.03556156 C5.86245166 69.28446317 5.86358897 73.53335322 5.86618423 77.78225517 C5.86685355 79.82729536 5.86602493 81.87233658 5.86370468 83.91737556 C5.86117913 86.76924568 5.8650172 89.62103623 5.87060547 92.47290039 C5.86858124 93.32643097 5.86655701 94.17996155 5.86447144 95.05935669 C5.51097072 98.83588031 5.51097072 98.83588031 7 102 C8.47648876 102.09823996 9.95775417 102.12973519 11.4375 102.125 C12.24058594 102.12757812 13.04367188 102.13015625 13.87109375 102.1328125 C16.05397931 102.13578326 16.05397931 102.13578326 18 101 C18 70.31 18 39.62 18 8 C15.59454362 6.79727181 14.05003047 6.89928528 11.375 6.9375 C10.55773437 6.94652344 9.74046875 6.95554687 8.8984375 6.96484375 C8.27195312 6.97644531 7.64546875 6.98804688 7 7 Z " fill="#E38440" transform="translate(98,6)"/>
<path d="M0 0 C2.41430664 -0.35644531 2.41430664 -0.35644531 5.41015625 -0.328125 C7.01793945 -0.32039062 7.01793945 -0.32039062 8.65820312 -0.3125 C10.34333008 -0.2815625 10.34333008 -0.2815625 12.0625 -0.25 C13.75342773 -0.24226562 13.75342773 -0.24226562 15.47851562 -0.234375 C23.8462291 -0.1537709 23.8462291 -0.1537709 25 1 C25.0975858 2.38910633 25.12631639 3.78312949 25.12698364 5.17565918 C25.12980347 6.07590317 25.13262329 6.97614716 25.13552856 7.90367126 C25.13350433 8.89903397 25.1314801 9.89439667 25.12939453 10.91992188 C25.13114685 11.96209366 25.13289917 13.00426544 25.13470459 14.07801819 C25.13912538 17.54161213 25.13618431 21.00515549 25.1328125 24.46875 C25.13348547 26.8638917 25.13445544 29.25903334 25.13571167 31.6541748 C25.13718895 36.68140308 25.13503311 41.70861362 25.13037109 46.73583984 C25.1246738 53.19606691 25.12795264 59.65625243 25.13394356 66.11647797 C25.13754835 71.06451737 25.13641096 76.01254685 25.13381577 80.96058655 C25.13314627 83.34334823 25.1339757 85.72611081 25.13629532 88.10887146 C25.13882051 91.43263149 25.13498313 94.75632321 25.12939453 98.08007812 C25.13141876 99.07544083 25.13344299 100.07080353 25.13552856 101.09632874 C25.13270874 101.99657272 25.12988892 102.89681671 25.12698364 103.82434082 C25.12660662 104.611175 25.12622959 105.39800919 25.12584114 106.20868683 C25 108 25 108 24 109 C20.0279293 109.28011184 16.04327584 109.23179176 12.0625 109.25 C10.93908203 109.270625 9.81566406 109.29125 8.65820312 109.3125 C7.58634766 109.31765625 6.51449219 109.3228125 5.41015625 109.328125 C4.42152588 109.3374707 3.43289551 109.34681641 2.41430664 109.35644531 C1.61758545 109.23881836 0.82086426 109.12119141 0 109 C-2.06530039 105.90204941 -2.2504578 105.25324848 -2.25396729 101.74914551 C-2.25960693 100.88269913 -2.26524658 100.01625275 -2.27105713 99.12355042 C-2.26700867 98.17592331 -2.26296021 97.2282962 -2.25878906 96.25195312 C-2.2622937 95.25171616 -2.26579834 94.25147919 -2.26940918 93.22093201 C-2.27822692 89.90763451 -2.27237712 86.59454975 -2.265625 83.28125 C-2.26697164 80.98343871 -2.26891215 78.6856277 -2.27142334 76.38781738 C-2.27437466 71.569227 -2.27007664 66.75071069 -2.26074219 61.93212891 C-2.24934771 55.74787753 -2.25590713 49.56379975 -2.26788712 43.37955475 C-2.27510545 38.63387742 -2.27281789 33.88824142 -2.26763153 29.14256287 C-2.26629496 26.86193318 -2.26794299 24.58129978 -2.27259064 22.30067444 C-2.27765537 19.11636378 -2.2699462 15.93233638 -2.25878906 12.74804688 C-2.26283752 11.80041977 -2.26688599 10.85279266 -2.27105713 9.87644958 C-2.26541748 9.0100032 -2.25977783 8.14355682 -2.25396729 7.25085449 C-2.25321323 6.49795891 -2.25245918 5.74506332 -2.25168228 4.96935272 C-2 3 -2 3 0 0 Z M6 8 C5.90476095 10.89143151 5.87446973 13.75892064 5.88647461 16.65063477 C5.88632858 17.55786285 5.88618256 18.46509094 5.8860321 19.39981079 C5.88673159 22.41369985 5.89452566 25.42752793 5.90234375 28.44140625 C5.9042078 30.52505967 5.90563176 32.60871354 5.90663147 34.69236755 C5.91045766 40.18823446 5.9202888 45.68407513 5.93133545 51.17993164 C5.9415474 56.78336227 5.94612863 62.38679713 5.95117188 67.99023438 C5.96191098 78.99350114 5.97898861 89.99674839 6 101 C10.66066975 102.27109175 12.71728868 101.75467305 18 101 C18 70.31 18 39.62 18 8 C15.6203388 6.8101694 14.08514265 6.86650034 11.4375 6.875 C10.63183594 6.87242188 9.82617188 6.86984375 8.99609375 6.8671875 C7.00057979 6.77988609 7.00057979 6.77988609 6 8 Z " fill="#E18443" transform="translate(60,6)"/>
<path d="M0 0 C2.41430664 -0.35644531 2.41430664 -0.35644531 5.41015625 -0.328125 C7.01793945 -0.32039062 7.01793945 -0.32039062 8.65820312 -0.3125 C10.34333008 -0.2815625 10.34333008 -0.2815625 12.0625 -0.25 C13.75342773 -0.24226562 13.75342773 -0.24226562 15.47851562 -0.234375 C23.8462291 -0.1537709 23.8462291 -0.1537709 25 1 C25.09543095 2.39143689 25.12188575 3.78768367 25.12025452 5.18238831 C25.12162918 6.08407745 25.12300385 6.9857666 25.12442017 7.91477966 C25.12082489 8.91171341 25.11722961 9.90864716 25.11352539 10.93579102 C25.11367142 11.97956909 25.11381744 13.02334717 25.1139679 14.09875488 C25.11326826 17.56715943 25.10547353 21.03551103 25.09765625 24.50390625 C25.09579225 26.90144318 25.09436826 29.2989805 25.09336853 31.69651794 C25.08954194 38.02095584 25.07971046 44.34537094 25.06866455 50.6697998 C25.05845345 57.11775402 25.05387156 63.56571191 25.04882812 70.01367188 C25.03808832 82.675791 25.02120119 95.33789429 25 108 C20.99700128 110.00149936 15.90083269 109.18485209 11.5 109.1875 C10.42878906 109.19974609 9.35757813 109.21199219 8.25390625 109.22460938 C7.23167969 109.22654297 6.20945312 109.22847656 5.15625 109.23046875 C3.74569336 109.23663208 3.74569336 109.23663208 2.30664062 109.24291992 C-0 109 -0 109 -2 107 C-2.25168228 105.13807774 -2.25168228 105.13807774 -2.25396729 102.83143616 C-2.25960693 101.95795029 -2.26524658 101.08446442 -2.27105713 100.18450928 C-2.26700867 99.22393616 -2.26296021 98.26336304 -2.25878906 97.27368164 C-2.2622937 96.26383713 -2.26579834 95.25399261 -2.26940918 94.21354675 C-2.27823974 90.86234745 -2.27237218 87.51135784 -2.265625 84.16015625 C-2.26697137 81.83849548 -2.26891167 79.51683498 -2.27142334 77.19517517 C-2.27437649 72.3235303 -2.2700712 67.45195865 -2.26074219 62.58032227 C-2.24935393 56.32766158 -2.25590203 50.0751727 -2.26788712 43.82251835 C-2.27510595 39.02622681 -2.27281756 34.22997615 -2.26763153 29.4336834 C-2.26629477 27.12793393 -2.26794366 24.82218079 -2.27259064 22.51643562 C-2.27765548 19.29609438 -2.26994574 16.07603322 -2.25878906 12.85571289 C-2.26283752 11.897164 -2.26688599 10.93861511 -2.27105713 9.95101929 C-2.26541748 9.07471359 -2.25977783 8.1984079 -2.25396729 7.29554749 C-2.25321323 6.53397874 -2.25245918 5.77240999 -2.25168228 4.9877634 C-2 3 -2 3 0 0 Z M2 2 C0.85478387 4.29043226 0.8742976 5.56062926 0.87301636 8.10609436 C0.87019653 8.96564224 0.86737671 9.82519012 0.86447144 10.71078491 C0.86649567 11.65579865 0.8685199 12.60081238 0.87060547 13.57446289 C0.86885315 14.56801285 0.86710083 15.56156281 0.86529541 16.58522034 C0.86088124 19.88104989 0.86381315 23.17682612 0.8671875 26.47265625 C0.86651439 28.75426748 0.86554431 31.03587864 0.86428833 33.31748962 C0.86281199 38.10334963 0.86496408 42.88919099 0.86962891 47.67504883 C0.87532937 53.82473005 0.87204476 59.97436766 0.86605644 66.12404728 C0.86245186 70.83617993 0.86358888 75.54830215 0.86618423 80.2604351 C0.86685362 82.52876223 0.86602467 84.79709029 0.86370468 87.06541634 C0.8611795 90.22861382 0.8650167 93.39173954 0.87060547 96.55493164 C0.86858124 97.5019696 0.86655701 98.44900757 0.86447144 99.42474365 C0.45638044 103.53710999 0.45638044 103.53710999 2 107 C3.66617115 107.04063832 5.33388095 107.042721 7 107 C6.83748025 106.42508945 6.6749605 105.85017891 6.50751591 105.25784683 C6.00906686 103.04033684 5.87677773 101.14181068 5.87974548 98.87445068 C5.87837082 98.06119324 5.87699615 97.24793579 5.87557983 96.41003418 C5.87917511 95.52674438 5.88277039 94.64345459 5.88647461 93.73339844 C5.88632858 92.79647156 5.88618256 91.85954468 5.8860321 90.89422607 C5.88672843 87.79925212 5.89450777 84.70433844 5.90234375 81.609375 C5.90420892 79.46274854 5.90563236 77.31612166 5.90663147 75.16949463 C5.91044882 69.52078068 5.92027246 63.87209246 5.93133545 58.22338867 C5.94156636 52.45882516 5.9461327 46.69425748 5.95117188 40.9296875 C5.9618954 29.61978037 5.97896247 18.30989232 6 7 C9.96 7 13.92 7 18 7 C18 39.34 18 71.68 18 105 C16.68 104.67 15.36 104.34 14 104 C13.67 104.99 13.34 105.98 13 107 C14.45792884 107.05399736 15.91642712 107.09279177 17.375 107.125 C18.18710938 107.14820312 18.99921875 107.17140625 19.8359375 107.1953125 C22.21342243 107.21370051 22.21342243 107.21370051 24 105 C24.1937871 101.88670491 24.26210298 98.86263592 24.24291992 95.74853516 C24.24481827 94.78906479 24.24671661 93.82959442 24.24867249 92.84104919 C24.25238884 89.65697152 24.24166228 86.47312004 24.23046875 83.2890625 C24.22927713 81.08189928 24.22882375 78.87473555 24.2290802 76.66757202 C24.22751375 72.03551064 24.21921294 67.40352636 24.20581055 62.77148438 C24.18884036 56.83059925 24.18499558 50.88979911 24.18575573 44.94889259 C24.18548387 40.38847033 24.17999983 35.82806668 24.17275429 31.2676506 C24.16956912 29.07716386 24.16760057 26.886675 24.16686058 24.69618607 C24.16469431 21.6341721 24.15594313 18.57224849 24.14526367 15.51025391 C24.14571686 14.60205399 24.14617004 13.69385406 24.14663696 12.75813293 C24.14237198 11.92252335 24.13810699 11.08691376 24.13371277 10.22598267 C24.13203692 9.50220743 24.13036108 8.7784322 24.12863445 8.03272438 C24.03893293 5.64351705 24.03893293 5.64351705 23 2 C16.07 2 9.14 2 2 2 Z M7 7 C5.34330982 10.31338036 5.86194705 14.01427235 5.87060547 17.65649414 C5.86885315 18.55250839 5.86710083 19.44852264 5.86529541 20.37168884 C5.86088257 23.34286416 5.86381266 26.31398029 5.8671875 29.28515625 C5.86651436 31.34256502 5.86554425 33.39997371 5.86428833 35.4573822 C5.86281218 39.77245846 5.86496351 44.08751404 5.86962891 48.40258789 C5.87532971 53.94692916 5.87204444 59.49122206 5.86605644 65.03556156 C5.86245166 69.28446317 5.86358897 73.53335322 5.86618423 77.78225517 C5.86685355 79.82729536 5.86602493 81.87233658 5.86370468 83.91737556 C5.86117913 86.76924568 5.8650172 89.62103623 5.87060547 92.47290039 C5.86858124 93.32643097 5.86655701 94.17996155 5.86447144 95.05935669 C5.51097072 98.83588031 5.51097072 98.83588031 7 102 C8.47648876 102.09823996 9.95775417 102.12973519 11.4375 102.125 C12.24058594 102.12757812 13.04367188 102.13015625 13.87109375 102.1328125 C16.05397931 102.13578326 16.05397931 102.13578326 18 101 C18 70.31 18 39.62 18 8 C15.59454362 6.79727181 14.05003047 6.89928528 11.375 6.9375 C10.55773437 6.94652344 9.74046875 6.95554687 8.8984375 6.96484375 C8.27195312 6.97644531 7.64546875 6.98804688 7 7 Z " fill="#E9A779" transform="translate(98,6)"/>
<path d="M0 0 C1.55174446 1.55174446 1.12594875 3.01587976 1.12698364 5.17565918 C1.12980347 6.07590317 1.13262329 6.97614716 1.13552856 7.90367126 C1.13350433 8.89903397 1.1314801 9.89439667 1.12939453 10.91992188 C1.13114685 11.96209366 1.13289917 13.00426544 1.13470459 14.07801819 C1.13912538 17.54161213 1.13618431 21.00515549 1.1328125 24.46875 C1.13348547 26.8638917 1.13445544 29.25903334 1.13571167 31.6541748 C1.13718895 36.68140308 1.13503311 41.70861362 1.13037109 46.73583984 C1.1246738 53.19606691 1.12795264 59.65625243 1.13394356 66.11647797 C1.13754835 71.06451737 1.13641096 76.01254685 1.13381577 80.96058655 C1.13314627 83.34334823 1.1339757 85.72611081 1.13629532 88.10887146 C1.13882051 91.43263149 1.13498313 94.75632321 1.12939453 98.08007812 C1.13141876 99.07544083 1.13344299 100.07080353 1.13552856 101.09632874 C1.13270874 101.99657272 1.12988892 102.89681671 1.12698364 103.82434082 C1.12660662 104.611175 1.12622959 105.39800919 1.12584114 106.20868683 C1 108 1 108 0 109 C-3.97275815 109.25256877 -7.95766175 109.18522451 -11.9375 109.1875 C-13.62262695 109.20586914 -13.62262695 109.20586914 -15.34179688 109.22460938 C-16.41365234 109.22654297 -17.48550781 109.22847656 -18.58984375 109.23046875 C-20.07278931 109.23663208 -20.07278931 109.23663208 -21.58569336 109.24291992 C-24 109 -24 109 -26 107 C-26.19365497 104.02358413 -26.26214735 101.14053162 -26.24291992 98.16333008 C-26.24481827 97.24769287 -26.24671661 96.33205566 -26.24867249 95.38867188 C-26.25238957 92.34887236 -26.24165882 89.3093097 -26.23046875 86.26953125 C-26.22927685 84.15923592 -26.22882381 82.04894006 -26.2290802 79.93864441 C-26.22751347 75.50748388 -26.21921244 71.07640392 -26.20581055 66.64526367 C-26.18887237 60.97371388 -26.18499469 55.30225315 -26.18575573 49.63068104 C-26.18548324 45.26829686 -26.17998842 40.90593203 -26.17275429 36.54355431 C-26.16957765 34.45323521 -26.16760257 32.36291392 -26.16686058 30.27259254 C-26.16468341 27.34290496 -26.15590801 24.41331011 -26.14526367 21.48364258 C-26.14571686 20.62363144 -26.14617004 19.7636203 -26.14663696 18.87754822 C-26.12161591 14.14859877 -25.78766792 9.66463047 -25 5 C-24.67 5 -24.34 5 -24 5 C-24 38.66 -24 72.32 -24 107 C-16.41 106.67 -8.82 106.34 -1 106 C-1 72.01 -1 38.02 -1 3 C-2.65 3 -4.3 3 -6 3 C-6 35.67 -6 68.34 -6 102 C-10.29 102 -14.58 102 -19 102 C-20.88657671 100.11342329 -20.12667188 97.36827497 -20.13552856 94.85786438 C-20.13350433 93.97471054 -20.1314801 93.0915567 -20.12939453 92.18164062 C-20.13114685 91.25651169 -20.13289917 90.33138275 -20.13470459 89.3782196 C-20.13912467 86.30421095 -20.13618457 83.2302593 -20.1328125 80.15625 C-20.13348549 78.03015125 -20.13445548 75.90405258 -20.13571167 73.7779541 C-20.13718886 69.3156664 -20.13503342 64.85339867 -20.13037109 60.39111328 C-20.1246738 54.65729431 -20.12795269 48.92352215 -20.13394356 43.1897049 C-20.13754861 38.79754277 -20.13641084 34.40539183 -20.13381577 30.01322937 C-20.13314634 27.89841201 -20.13397545 25.78359366 -20.13629532 23.66877747 C-20.13882093 20.71861054 -20.13498254 17.76852054 -20.12939453 14.81835938 C-20.13141876 13.93520554 -20.13344299 13.0520517 -20.13552856 12.14213562 C-20.11426234 6.11426234 -20.11426234 6.11426234 -19 5 C-16.34536879 4.54540142 -13.67810862 4.29756762 -11 4 C-14.1113395 2.99992659 -15.88833588 3.12484447 -19 4 C-20.32 4 -21.64 4 -23 4 C-23 3.34 -23 2.68 -23 2 C-15.16285479 -0.17425502 -8.06777797 -1.86179492 0 0 Z M-18 7 C-18 38.02 -18 69.04 -18 101 C-14.37 101 -10.74 101 -7 101 C-7 70.31 -7 39.62 -7 8 C-10.63 7.67 -14.26 7.34 -18 7 Z " fill="#EAB287" transform="translate(46,6)"/>
<path d="M0 0 C1.65 0 3.3 0 5 0 C5 33.99 5 67.98 5 103 C-0.61 103 -6.22 103 -12 103 C-8 99 -8 99 -4.3125 98.8125 C-2.6728125 98.9053125 -2.6728125 98.9053125 -1 99 C0.92146774 97.07853226 0.12016542 94.21281685 0.12442017 91.65637207 C0.12082489 90.74359497 0.11722961 89.83081787 0.11352539 88.89038086 C0.11367142 87.93438492 0.11381744 86.97838898 0.1139679 85.99342346 C0.11326835 82.81720755 0.10547403 79.64104948 0.09765625 76.46484375 C0.09579222 74.26908907 0.09436825 72.07333398 0.09336853 69.87757874 C0.08954219 64.08579367 0.07971091 58.2940335 0.06866455 52.5022583 C0.05845293 46.59721209 0.05387145 40.69216187 0.04882812 34.78710938 C0.03808875 23.19139528 0.02101093 11.59569971 0 0 Z " fill="#E6833D" transform="translate(78,10)"/>
<path d="M0 0 C2.41430664 -0.35644531 2.41430664 -0.35644531 5.41015625 -0.328125 C7.01793945 -0.32039062 7.01793945 -0.32039062 8.65820312 -0.3125 C10.34333008 -0.2815625 10.34333008 -0.2815625 12.0625 -0.25 C13.75342773 -0.24226562 13.75342773 -0.24226562 15.47851562 -0.234375 C23.8462291 -0.1537709 23.8462291 -0.1537709 25 1 C25.0975858 2.38910633 25.12631639 3.78312949 25.12698364 5.17565918 C25.12980347 6.07590317 25.13262329 6.97614716 25.13552856 7.90367126 C25.13350433 8.89903397 25.1314801 9.89439667 25.12939453 10.91992188 C25.13114685 11.96209366 25.13289917 13.00426544 25.13470459 14.07801819 C25.13912538 17.54161213 25.13618431 21.00515549 25.1328125 24.46875 C25.13348547 26.8638917 25.13445544 29.25903334 25.13571167 31.6541748 C25.13718895 36.68140308 25.13503311 41.70861362 25.13037109 46.73583984 C25.1246738 53.19606691 25.12795264 59.65625243 25.13394356 66.11647797 C25.13754835 71.06451737 25.13641096 76.01254685 25.13381577 80.96058655 C25.13314627 83.34334823 25.1339757 85.72611081 25.13629532 88.10887146 C25.13882051 91.43263149 25.13498313 94.75632321 25.12939453 98.08007812 C25.13141876 99.07544083 25.13344299 100.07080353 25.13552856 101.09632874 C25.13270874 101.99657272 25.12988892 102.89681671 25.12698364 103.82434082 C25.12660662 104.611175 25.12622959 105.39800919 25.12584114 106.20868683 C25 108 25 108 24 109 C20.0279293 109.28011184 16.04327584 109.23179176 12.0625 109.25 C10.93908203 109.270625 9.81566406 109.29125 8.65820312 109.3125 C7.58634766 109.31765625 6.51449219 109.3228125 5.41015625 109.328125 C4.42152588 109.3374707 3.43289551 109.34681641 2.41430664 109.35644531 C1.61758545 109.23881836 0.82086426 109.12119141 0 109 C-2.06530039 105.90204941 -2.2504578 105.25324848 -2.25396729 101.74914551 C-2.25960693 100.88269913 -2.26524658 100.01625275 -2.27105713 99.12355042 C-2.26700867 98.17592331 -2.26296021 97.2282962 -2.25878906 96.25195312 C-2.2622937 95.25171616 -2.26579834 94.25147919 -2.26940918 93.22093201 C-2.27822692 89.90763451 -2.27237712 86.59454975 -2.265625 83.28125 C-2.26697164 80.98343871 -2.26891215 78.6856277 -2.27142334 76.38781738 C-2.27437466 71.569227 -2.27007664 66.75071069 -2.26074219 61.93212891 C-2.24934771 55.74787753 -2.25590713 49.56379975 -2.26788712 43.37955475 C-2.27510545 38.63387742 -2.27281789 33.88824142 -2.26763153 29.14256287 C-2.26629496 26.86193318 -2.26794299 24.58129978 -2.27259064 22.30067444 C-2.27765537 19.11636378 -2.2699462 15.93233638 -2.25878906 12.74804688 C-2.26283752 11.80041977 -2.26688599 10.85279266 -2.27105713 9.87644958 C-2.26541748 9.0100032 -2.25977783 8.14355682 -2.25396729 7.25085449 C-2.25321323 6.49795891 -2.25245918 5.74506332 -2.25168228 4.96935272 C-2 3 -2 3 0 0 Z M0 1 C0.33 1.66 0.66 2.32 1 3 C1 4.66194813 0.99607667 6.32389408 0.99327087 7.98583984 C0.97309553 19.96647841 0.95803413 31.94711322 0.94818783 43.92776489 C0.94295659 50.08531401 0.93585337 56.24284941 0.92456055 62.40039062 C0.91373423 68.34076066 0.90772384 74.28111745 0.90512276 80.22149658 C0.90326836 82.49261687 0.89964746 84.7637364 0.89426994 87.03485107 C0.88706271 90.20293778 0.88600891 93.37096898 0.88647461 96.5390625 C0.88287933 97.48767151 0.87928406 98.43628052 0.87557983 99.41363525 C0.45867311 103.53158788 0.45867311 103.53158788 2 107 C3.63472882 107.08700342 5.27314055 107.10701063 6.91015625 107.09765625 C8.39418945 107.09282227 8.39418945 107.09282227 9.90820312 107.08789062 C11.46958008 107.07532227 11.46958008 107.07532227 13.0625 107.0625 C14.10728516 107.05798828 15.15207031 107.05347656 16.22851562 107.04882812 C18.8190666 107.03699913 21.40950559 107.02051689 24 107 C24.0231205 93.32697438 24.04091359 79.65395336 24.05181217 65.98091221 C24.05704164 59.63269424 24.06414044 53.2844896 24.07543945 46.9362793 C24.08626606 40.81551418 24.09227635 34.69476191 24.09487724 28.57398796 C24.0967319 26.23309057 24.10035329 23.89219391 24.10573006 21.55130196 C24.11293748 18.28491798 24.11399107 15.01858785 24.11352539 11.75219727 C24.11712067 10.773965 24.12071594 9.79573273 24.12442017 8.78785706 C24.1230455 7.90299622 24.12167084 7.01813538 24.12025452 6.10646057 C24.12117631 5.33307626 24.1220981 4.55969194 24.12304783 3.76287174 C24.1918499 1.97313173 24.1918499 1.97313173 23 1 C21.29227642 0.91286169 19.58101351 0.89299993 17.87109375 0.90234375 C16.83662109 0.90556641 15.80214844 0.90878906 14.73632812 0.91210938 C13.64771484 0.92048828 12.55910156 0.92886719 11.4375 0.9375 C10.34501953 0.94201172 9.25253906 0.94652344 8.12695312 0.95117188 C5.41791505 0.96300174 2.70898401 0.97948457 0 1 Z " fill="#E6AA7F" transform="translate(60,6)"/>
<path d="M0 0 C2.41430664 -0.35644531 2.41430664 -0.35644531 5.41015625 -0.328125 C7.01793945 -0.32039062 7.01793945 -0.32039062 8.65820312 -0.3125 C10.34333008 -0.2815625 10.34333008 -0.2815625 12.0625 -0.25 C13.75342773 -0.24226562 13.75342773 -0.24226562 15.47851562 -0.234375 C23.8462291 -0.1537709 23.8462291 -0.1537709 25 1 C25.09543095 2.39143689 25.12188575 3.78768367 25.12025452 5.18238831 C25.12162918 6.08407745 25.12300385 6.9857666 25.12442017 7.91477966 C25.12082489 8.91171341 25.11722961 9.90864716 25.11352539 10.93579102 C25.11367142 11.97956909 25.11381744 13.02334717 25.1139679 14.09875488 C25.11326826 17.56715943 25.10547353 21.03551103 25.09765625 24.50390625 C25.09579225 26.90144318 25.09436826 29.2989805 25.09336853 31.69651794 C25.08954194 38.02095584 25.07971046 44.34537094 25.06866455 50.6697998 C25.05845345 57.11775402 25.05387156 63.56571191 25.04882812 70.01367188 C25.03808832 82.675791 25.02120119 95.33789429 25 108 C24.67 108 24.34 108 24 108 C23.67 73.02 23.34 38.04 23 2 C16.07 2 9.14 2 2 2 C1.15926373 8.36672871 1.15926373 8.36672871 0.87974548 14.64453125 C0.87837082 15.47170151 0.87699615 16.29887177 0.87557983 17.15110779 C0.88097275 18.46849693 0.88097275 18.46849693 0.88647461 19.8125 C0.88632858 20.75976456 0.88618256 21.70702911 0.8860321 22.68299866 C0.88672425 25.78868973 0.89448374 28.89431951 0.90234375 32 C0.90421041 34.16332974 0.90563314 36.32665991 0.90663147 38.48999023 C0.91043709 44.16494935 0.92025059 49.8398826 0.93133545 55.51483154 C0.9415917 61.31326955 0.9461381 67.11171177 0.95117188 72.91015625 C0.9618747 84.27345065 0.97945557 95.63671912 1 107 C8.26 107.33 15.52 107.66 23 108 C23 108.33 23 108.66 23 109 C19.20839703 109.05786668 15.41690689 109.09355054 11.625 109.125 C10.54476562 109.14175781 9.46453125 109.15851563 8.3515625 109.17578125 C7.3203125 109.18222656 6.2890625 109.18867187 5.2265625 109.1953125 C4.27346191 109.20578613 3.32036133 109.21625977 2.33837891 109.22705078 C0 109 0 109 -2 107 C-2.25168228 105.13807774 -2.25168228 105.13807774 -2.25396729 102.83143616 C-2.25960693 101.95795029 -2.26524658 101.08446442 -2.27105713 100.18450928 C-2.26700867 99.22393616 -2.26296021 98.26336304 -2.25878906 97.27368164 C-2.2622937 96.26383713 -2.26579834 95.25399261 -2.26940918 94.21354675 C-2.27823974 90.86234745 -2.27237218 87.51135784 -2.265625 84.16015625 C-2.26697137 81.83849548 -2.26891167 79.51683498 -2.27142334 77.19517517 C-2.27437649 72.3235303 -2.2700712 67.45195865 -2.26074219 62.58032227 C-2.24935393 56.32766158 -2.25590203 50.0751727 -2.26788712 43.82251835 C-2.27510595 39.02622681 -2.27281756 34.22997615 -2.26763153 29.4336834 C-2.26629477 27.12793393 -2.26794366 24.82218079 -2.27259064 22.51643562 C-2.27765548 19.29609438 -2.26994574 16.07603322 -2.25878906 12.85571289 C-2.26283752 11.897164 -2.26688599 10.93861511 -2.27105713 9.95101929 C-2.26541748 9.07471359 -2.25977783 8.1984079 -2.25396729 7.29554749 C-2.25321323 6.53397874 -2.25245918 5.77240999 -2.25168228 4.9877634 C-2 3 -2 3 0 0 Z " fill="#EBBF95" transform="translate(98,6)"/>
<path d="M0 0 C1.093125 0.00257812 2.18625 0.00515625 3.3125 0.0078125 C4.405625 0.00523438 5.49875 0.00265625 6.625 0 C9.3125 0.1328125 9.3125 0.1328125 10.3125 1.1328125 C10.41842717 4.07453683 10.45927624 6.99291055 10.45776367 9.93530273 C10.46112228 10.85882538 10.4644809 11.78234802 10.46794128 12.7338562 C10.47748199 15.80305303 10.47939594 18.87219549 10.48046875 21.94140625 C10.48367912 24.06510949 10.48704302 26.1888125 10.49055481 28.31251526 C10.49655387 32.77060458 10.49839391 37.2286745 10.49780273 41.68676758 C10.49770106 47.41155488 10.5113555 53.1362183 10.52857494 58.86097622 C10.5396696 63.24889197 10.54172273 67.63677754 10.54119301 72.02470589 C10.54237688 74.13590993 10.54682123 76.24711466 10.55452538 78.35830498 C10.56427444 81.30593526 10.56146745 84.25329349 10.55541992 87.20092773 C10.56103943 88.0804863 10.56665894 88.96004486 10.57244873 89.86625671 C10.54081522 95.90449728 10.54081522 95.90449728 8.3125 98.1328125 C5.58380593 98.09993667 3.0158382 97.56883479 0.3125 97.1328125 C2.3125 95.1328125 2.3125 95.1328125 5.9375 95.0078125 C7.05125 95.0490625 8.165 95.0903125 9.3125 95.1328125 C9.06802124 93.17214844 9.06802124 93.17214844 8.81860352 91.171875 C8.31258418 86.59667028 8.18283035 82.10678976 8.21484375 77.5078125 C8.21630402 76.6985582 8.21776428 75.88930389 8.2192688 75.05552673 C8.22304422 73.31719338 8.22912773 71.57886374 8.23733521 69.84054565 C8.25018931 67.09233833 8.25663622 64.34417968 8.26147461 61.59594727 C8.2728448 55.77488025 8.29212701 49.95385404 8.3125 44.1328125 C8.33608678 37.35799461 8.35644612 30.58319877 8.36843872 23.80834961 C8.37493962 21.09550973 8.38743986 18.38273878 8.40014648 15.66992188 C8.40377598 14.02083395 8.40712808 12.37174539 8.41015625 10.72265625 C8.41532257 9.96427963 8.42048889 9.20590302 8.42581177 8.42454529 C8.42599288 6.66023002 8.37484463 4.89602591 8.3125 3.1328125 C7.9825 2.8028125 7.6525 2.4728125 7.3125 2.1328125 C4.3425 2.1328125 1.3725 2.1328125 -1.6875 2.1328125 C-2.0175 32.8228125 -2.3475 63.5128125 -2.6875 95.1328125 C-2.0275 95.4628125 -1.3675 95.7928125 -0.6875 96.1328125 C-1.6775 96.1328125 -2.6675 96.1328125 -3.6875 96.1328125 C-3.71062154 83.76362535 -3.72841412 71.39444331 -3.73931217 59.02523899 C-3.74454141 53.28236188 -3.7516398 47.53949949 -3.76293945 41.79663086 C-3.77376687 36.25941255 -3.77977652 30.72220846 -3.78237724 25.18498039 C-3.78423176 23.06736973 -3.78785286 20.94975988 -3.79323006 18.83215523 C-3.80043856 15.87709976 -3.80149102 12.92210379 -3.80102539 9.96704102 C-3.80462067 9.08231613 -3.80821594 8.19759125 -3.81192017 7.28605652 C-3.79973393 0.18777755 -3.79973393 0.18777755 0 0 Z " fill="#EBB38A" transform="translate(68.6875,11.8671875)"/>
<path d="M0 0 C0 0.33 0 0.66 0 1 C-0.71027344 1.06058594 -1.42054687 1.12117187 -2.15234375 1.18359375 C-3.07144531 1.26738281 -3.99054687 1.35117188 -4.9375 1.4375 C-5.85402344 1.51871094 -6.77054688 1.59992187 -7.71484375 1.68359375 C-9.96159732 1.76044976 -9.96159732 1.76044976 -11 3 C-11.10060336 5.93126657 -11.13615028 8.83900868 -11.12939453 11.77075195 C-11.13114685 12.69106201 -11.13289917 13.61137207 -11.13470459 14.55957031 C-11.13912603 17.6191595 -11.13618337 20.67869142 -11.1328125 23.73828125 C-11.13348563 25.85719311 -11.13445573 27.97610489 -11.13571167 30.09501648 C-11.13718918 34.5447157 -11.13503303 38.9943949 -11.13037109 43.4440918 C-11.12468418 49.15071114 -11.1279459 54.85728335 -11.13394356 60.56390095 C-11.13755661 64.94331721 -11.13640696 69.3227223 -11.13381577 73.7021389 C-11.13314802 75.80610344 -11.13396961 77.910069 -11.13629532 80.01403236 C-11.13883286 82.95640371 -11.13496513 85.89869879 -11.12939453 88.84106445 C-11.13141876 89.71343246 -11.13344299 90.58580048 -11.13552856 91.48460388 C-11.13270874 92.28800201 -11.12988892 93.09140015 -11.12698364 93.91914368 C-11.1264181 94.96250869 -11.1264181 94.96250869 -11.12584114 96.02695179 C-10.9923848 98.11939784 -10.56806481 99.98553918 -10 102 C-10.99 101.67 -11.98 101.34 -13 101 C-13.90799717 98.2760085 -14.12383582 96.71577694 -14.12025452 93.91877747 C-14.12162918 93.09006638 -14.12300385 92.26135529 -14.12442017 91.40753174 C-14.12082489 90.50194519 -14.11722961 89.59635864 -14.11352539 88.66333008 C-14.11367142 87.70704208 -14.11381744 86.75075409 -14.1139679 85.76548767 C-14.11327044 82.6001459 -14.1054858 79.43486276 -14.09765625 76.26953125 C-14.09579148 74.07663505 -14.09436785 71.88373844 -14.09336853 69.69084167 C-14.08954802 63.91552584 -14.07972168 58.14023511 -14.06866455 52.3649292 C-14.05844044 46.47310729 -14.05386876 40.58128134 -14.04882812 34.68945312 C-14.03809902 23.12629105 -14.02102815 11.56314761 -14 0 C-13.37867187 -0.15082031 -12.75734375 -0.30164063 -12.1171875 -0.45703125 C-10.01960652 -0.95727832 -10.01960652 -0.95727832 -8.125 -1.6875 C-5.06970383 -2.13680826 -2.83516212 -1.09540355 0 0 Z " fill="#E8823B" transform="translate(37,10)"/>
</svg>
