<?xml version="1.0" encoding="UTF-8"?>
<!DOCTYPE svg PUBLIC "-//W3C//DTD SVG 1.1//EN" "http://www.w3.org/Graphics/SVG/1.1/DTD/svg11.dtd">
<svg xmlns="http://www.w3.org/2000/svg" version="1.1" width="78px" height="65px" style="shape-rendering:geometricPrecision; text-rendering:geometricPrecision; image-rendering:optimizeQuality; fill-rule:evenodd; clip-rule:evenodd" xmlns:xlink="http://www.w3.org/1999/xlink">
<g><path style="opacity:0.706" fill="#d59a70" d="M 29.5,3.5 C 28.1667,3.5 27.5,4.16667 27.5,5.5C 26.2035,4.1512 26.3702,2.81787 28,1.5C 28.7172,2.0442 29.2172,2.71087 29.5,3.5 Z"/></g>
<g><path style="opacity:0.729" fill="#da8447" d="M 29.5,3.5 C 29.5,4.16667 29.5,4.83333 29.5,5.5C 28.8333,5.5 28.1667,5.5 27.5,5.5C 27.5,4.16667 28.1667,3.5 29.5,3.5 Z"/></g>
<g><path style="opacity:0.902" fill="#da8d5d" d="M 29.5,3.5 C 30.5,3.83333 31.1667,4.5 31.5,5.5C 30.8333,5.5 30.1667,5.5 29.5,5.5C 29.5,4.83333 29.5,4.16667 29.5,3.5 Z"/></g>
<g><path style="opacity:0.71" fill="#eab690" d="M 27.5,6.5 C 28.8333,6.5 29.5,7.16667 29.5,8.5C 28.5,8.16667 27.8333,7.5 27.5,6.5 Z"/></g>
<g><path style="opacity:0.929" fill="#dd884e" d="M 27.5,6.5 C 27.5,6.16667 27.5,5.83333 27.5,5.5C 28.1667,5.5 28.8333,5.5 29.5,5.5C 30.1667,5.5 30.8333,5.5 31.5,5.5C 31.8333,5.5 32.1667,5.5 32.5,5.5C 32.5,6.16667 32.5,6.83333 32.5,7.5C 31.6618,7.84171 31.3284,8.50838 31.5,9.5C 30.8333,9.16667 30.1667,8.83333 29.5,8.5C 29.5,7.16667 28.8333,6.5 27.5,6.5 Z"/></g>
<g><path style="opacity:0.769" fill="#ecba8f" d="M 32.5,5.5 C 33.5,5.83333 34.1667,6.5 34.5,7.5C 34.1667,7.5 33.8333,7.5 33.5,7.5C 33.1667,7.5 32.8333,7.5 32.5,7.5C 32.5,6.83333 32.5,6.16667 32.5,5.5 Z"/></g>
<g><path style="opacity:1" fill="#e28541" d="M 32.5,7.5 C 32.8333,7.5 33.1667,7.5 33.5,7.5C 33.5,8.83333 32.8333,9.5 31.5,9.5C 31.3284,8.50838 31.6618,7.84171 32.5,7.5 Z"/></g>
<g><path style="opacity:0.784" fill="#e9b897" d="M 34.5,7.5 C 35.5,7.83333 36.1667,8.5 36.5,9.5C 35.1667,9.5 34.5,8.83333 34.5,7.5 Z"/></g>
<g><path style="opacity:0.004" fill="#ffefdf" d="M 29.5,8.5 C 30.1667,8.83333 30.8333,9.16667 31.5,9.5C 31.8333,10.5 32.5,11.1667 33.5,11.5C 33.8333,12.5 34.5,13.1667 35.5,13.5C 35.5,13.8333 35.5,14.1667 35.5,14.5C 32.5,13.5 30.5,11.5 29.5,8.5 Z"/></g>
<g><path style="opacity:1" fill="#db8951" d="M 33.5,7.5 C 33.8333,7.5 34.1667,7.5 34.5,7.5C 34.5,8.83333 35.1667,9.5 36.5,9.5C 36.5,10.1667 36.5,10.8333 36.5,11.5C 36.1667,11.5 35.8333,11.5 35.5,11.5C 34.8333,11.5 34.1667,11.5 33.5,11.5C 32.5,11.1667 31.8333,10.5 31.5,9.5C 32.8333,9.5 33.5,8.83333 33.5,7.5 Z"/></g>
<g><path style="opacity:0.824" fill="#e8b494" d="M 36.5,9.5 C 37.5,9.83333 38.1667,10.5 38.5,11.5C 38.1667,11.5 37.8333,11.5 37.5,11.5C 37.1667,11.5 36.8333,11.5 36.5,11.5C 36.5,10.8333 36.5,10.1667 36.5,9.5 Z"/></g>
<g><path style="opacity:1" fill="#d88e5b" d="M 33.5,11.5 C 34.1667,11.5 34.8333,11.5 35.5,11.5C 35.5,12.1667 35.5,12.8333 35.5,13.5C 34.5,13.1667 33.8333,12.5 33.5,11.5 Z"/></g>
<g><path style="opacity:1" fill="#db884f" d="M 35.5,11.5 C 35.8333,11.5 36.1667,11.5 36.5,11.5C 36.8333,11.5 37.1667,11.5 37.5,11.5C 37.5,11.8333 37.5,12.1667 37.5,12.5C 36.6618,12.8417 36.3284,13.5084 36.5,14.5C 36.1667,14.5 35.8333,14.5 35.5,14.5C 35.5,14.1667 35.5,13.8333 35.5,13.5C 35.5,12.8333 35.5,12.1667 35.5,11.5 Z"/></g>
<g><path style="opacity:1" fill="#d78b59" d="M 37.5,11.5 C 37.8333,11.5 38.1667,11.5 38.5,11.5C 38.8333,12.1667 39.1667,12.8333 39.5,13.5C 38.5084,13.6716 37.8417,13.3382 37.5,12.5C 37.5,12.1667 37.5,11.8333 37.5,11.5 Z"/></g>
<g><path style="opacity:1" fill="#ecb88d" d="M 35.5,14.5 C 35.8333,14.5 36.1667,14.5 36.5,14.5C 37.3382,14.8417 37.6716,15.5084 37.5,16.5C 36.5,16.1667 35.8333,15.5 35.5,14.5 Z"/></g>
<g><path style="opacity:1" fill="#de8646" d="M 37.5,12.5 C 37.8417,13.3382 38.5084,13.6716 39.5,13.5C 39.5,14.1667 39.5,14.8333 39.5,15.5C 39.5,15.8333 39.5,16.1667 39.5,16.5C 38.8333,16.5 38.1667,16.5 37.5,16.5C 37.6716,15.5084 37.3382,14.8417 36.5,14.5C 36.3284,13.5084 36.6618,12.8417 37.5,12.5 Z"/></g>
<g><path style="opacity:1" fill="#d78e55" d="M 39.5,13.5 C 40.5,13.8333 41.1667,14.5 41.5,15.5C 40.8333,15.5 40.1667,15.5 39.5,15.5C 39.5,14.8333 39.5,14.1667 39.5,13.5 Z"/></g>
<g><path style="opacity:1" fill="#e18643" d="M 39.5,15.5 C 40.1667,15.5 40.8333,15.5 41.5,15.5C 41.5,16.8333 40.8333,17.5 39.5,17.5C 39.5,17.1667 39.5,16.8333 39.5,16.5C 39.5,16.1667 39.5,15.8333 39.5,15.5 Z"/></g>
<g><path style="opacity:1" fill="#edb890" d="M 37.5,16.5 C 38.1667,16.5 38.8333,16.5 39.5,16.5C 39.5,16.8333 39.5,17.1667 39.5,17.5C 39.5,17.8333 39.5,18.1667 39.5,18.5C 38.5,18.1667 37.8333,17.5 37.5,16.5 Z"/></g>
<g><path style="opacity:1" fill="#db894f" d="M 41.5,15.5 C 42.5,15.8333 43.1667,16.5 43.5,17.5C 43.5,18.1667 43.5,18.8333 43.5,19.5C 42.8333,19.5 42.1667,19.5 41.5,19.5C 41.1583,18.6618 40.4916,18.3284 39.5,18.5C 39.5,18.1667 39.5,17.8333 39.5,17.5C 40.8333,17.5 41.5,16.8333 41.5,15.5 Z"/></g>
<g><path style="opacity:1" fill="#eab794" d="M 39.5,18.5 C 40.4916,18.3284 41.1583,18.6618 41.5,19.5C 41.5,19.8333 41.5,20.1667 41.5,20.5C 40.5,20.1667 39.8333,19.5 39.5,18.5 Z"/></g>
<g><path style="opacity:1" fill="#d88e5b" d="M 43.5,17.5 C 44.5,17.8333 45.1667,18.5 45.5,19.5C 44.8333,19.5 44.1667,19.5 43.5,19.5C 43.5,18.8333 43.5,18.1667 43.5,17.5 Z"/></g>
<g><path style="opacity:1" fill="#ecbb99" d="M 41.5,20.5 C 42.8333,20.5 43.5,21.1667 43.5,22.5C 42.5,22.1667 41.8333,21.5 41.5,20.5 Z"/></g>
<g><path style="opacity:1" fill="#d98a55" d="M 41.5,20.5 C 41.5,20.1667 41.5,19.8333 41.5,19.5C 42.1667,19.5 42.8333,19.5 43.5,19.5C 44.1667,19.5 44.8333,19.5 45.5,19.5C 46.1667,19.5 46.5,19.8333 46.5,20.5C 45.1667,20.5 44.5,21.1667 44.5,22.5C 44.1667,22.5 43.8333,22.5 43.5,22.5C 43.5,21.1667 42.8333,20.5 41.5,20.5 Z"/></g>
<g><path style="opacity:1" fill="#db884c" d="M 46.5,20.5 C 47.1667,20.5 47.5,20.8333 47.5,21.5C 46.5084,21.3284 45.8417,21.6618 45.5,22.5C 45.1667,22.5 44.8333,22.5 44.5,22.5C 44.5,21.1667 45.1667,20.5 46.5,20.5 Z"/></g>
<g><path style="opacity:1" fill="#e08542" d="M 47.5,21.5 C 47.5,22.1667 47.5,22.8333 47.5,23.5C 46.8333,23.5 46.1667,23.5 45.5,23.5C 45.5,23.1667 45.5,22.8333 45.5,22.5C 45.8417,21.6618 46.5084,21.3284 47.5,21.5 Z"/></g>
<g><path style="opacity:1" fill="#ecb790" d="M 43.5,22.5 C 43.8333,22.5 44.1667,22.5 44.5,22.5C 44.8333,22.5 45.1667,22.5 45.5,22.5C 45.5,22.8333 45.5,23.1667 45.5,23.5C 45.5,23.8333 45.5,24.1667 45.5,24.5C 44.5,24.1667 43.8333,23.5 43.5,22.5 Z"/></g>
<g><path style="opacity:1" fill="#d68f53" d="M 47.5,21.5 C 48.1667,21.8333 48.8333,22.1667 49.5,22.5C 49.5,22.8333 49.5,23.1667 49.5,23.5C 48.8333,23.5 48.1667,23.5 47.5,23.5C 47.5,22.8333 47.5,22.1667 47.5,21.5 Z"/></g>
<g><path style="opacity:1" fill="#d78e58" d="M 45.5,24.5 C 45.5,24.1667 45.5,23.8333 45.5,23.5C 46.1667,23.5 46.8333,23.5 47.5,23.5C 47.5,24.1667 47.5,24.8333 47.5,25.5C 46.8333,25.1667 46.1667,24.8333 45.5,24.5 Z"/></g>
<g><path style="opacity:1" fill="#de8a4f" d="M 47.5,23.5 C 48.1667,23.5 48.8333,23.5 49.5,23.5C 49.8417,24.3382 50.5084,24.6716 51.5,24.5C 51.5,25.8333 52.1667,26.5 53.5,26.5C 53.5,27.1667 53.5,27.8333 53.5,28.5C 52.596,29.209 52.2627,30.209 52.5,31.5C 52.5,31.8333 52.5,32.1667 52.5,32.5C 52.1667,32.5 51.8333,32.5 51.5,32.5C 51.5,32.1667 51.5,31.8333 51.5,31.5C 51.5,30.8333 51.5,30.1667 51.5,29.5C 51.5,28.1667 50.8333,27.5 49.5,27.5C 49.5,26.1667 48.8333,25.5 47.5,25.5C 47.5,24.8333 47.5,24.1667 47.5,23.5 Z"/></g>
<g><path style="opacity:0.969" fill="#eab494" d="M 49.5,22.5 C 50.5,22.8333 51.1667,23.5 51.5,24.5C 50.5084,24.6716 49.8417,24.3382 49.5,23.5C 49.5,23.1667 49.5,22.8333 49.5,22.5 Z"/></g>
<g><path style="opacity:0.004" fill="#fff0e2" d="M 45.5,24.5 C 46.1667,24.8333 46.8333,25.1667 47.5,25.5C 47.8333,26.5 48.5,27.1667 49.5,27.5C 49.8333,28.5 50.5,29.1667 51.5,29.5C 51.5,30.1667 51.5,30.8333 51.5,31.5C 51.1667,31.5 50.8333,31.5 50.5,31.5C 48.4202,29.4268 46.7536,27.0934 45.5,24.5 Z"/></g>
<g><path style="opacity:1" fill="#d78a5d" d="M 47.5,25.5 C 48.8333,25.5 49.5,26.1667 49.5,27.5C 48.5,27.1667 47.8333,26.5 47.5,25.5 Z"/></g>
<g><path style="opacity:0.918" fill="#eab88a" d="M 51.5,24.5 C 52.5,24.8333 53.1667,25.5 53.5,26.5C 52.1667,26.5 51.5,25.8333 51.5,24.5 Z"/></g>
<g><path style="opacity:1" fill="#d78a58" d="M 49.5,27.5 C 50.8333,27.5 51.5,28.1667 51.5,29.5C 50.5,29.1667 49.8333,28.5 49.5,27.5 Z"/></g>
<g><path style="opacity:0.867" fill="#ebba90" d="M 53.5,26.5 C 54.5,26.8333 55.1667,27.5 55.5,28.5C 55.1667,28.5 54.8333,28.5 54.5,28.5C 54.1667,28.5 53.8333,28.5 53.5,28.5C 53.5,27.8333 53.5,27.1667 53.5,26.5 Z"/></g>
<g><path style="opacity:0.996" fill="#de8444" d="M 53.5,28.5 C 53.8333,28.5 54.1667,28.5 54.5,28.5C 54.5,28.8333 54.5,29.1667 54.5,29.5C 53.8333,30.1667 53.1667,30.8333 52.5,31.5C 52.2627,30.209 52.596,29.209 53.5,28.5 Z"/></g>
<g><path style="opacity:1" fill="#ea863d" d="M 54.5,29.5 C 54.7148,31.1788 54.0481,32.1788 52.5,32.5C 52.5,32.1667 52.5,31.8333 52.5,31.5C 53.1667,30.8333 53.8333,30.1667 54.5,29.5 Z"/></g>
<g><path style="opacity:0.78" fill="#e8bb9c" d="M 55.5,28.5 C 58.1667,30.1667 58.1667,31.8333 55.5,33.5C 55.5,31.8333 55.5,30.1667 55.5,28.5 Z"/></g>
<g><path style="opacity:0.639" fill="#fcd5bb" d="M 50.5,31.5 C 50.8333,31.5 51.1667,31.5 51.5,31.5C 51.5,31.8333 51.5,32.1667 51.5,32.5C 50.8333,32.8333 50.1667,33.1667 49.5,33.5C 49.1667,33.5 48.8333,33.5 48.5,33.5C 48.8333,32.5 49.5,31.8333 50.5,31.5 Z"/></g>
<g><path style="opacity:1" fill="#e59e69" d="M 54.5,28.5 C 54.8333,28.5 55.1667,28.5 55.5,28.5C 55.5,30.1667 55.5,31.8333 55.5,33.5C 54.5,35.1667 53.1667,36.5 51.5,37.5C 51.5,36.5 51.5,35.5 51.5,34.5C 51.5,33.8333 51.5,33.1667 51.5,32.5C 51.8333,32.5 52.1667,32.5 52.5,32.5C 54.0481,32.1788 54.7148,31.1788 54.5,29.5C 54.5,29.1667 54.5,28.8333 54.5,28.5 Z"/></g>
<g><path style="opacity:0.675" fill="#fbd0b2" d="M 48.5,33.5 C 48.8333,33.5 49.1667,33.5 49.5,33.5C 49.5,33.8333 49.5,34.1667 49.5,34.5C 48.8333,34.5 48.5,34.8333 48.5,35.5C 48.1667,35.5 47.8333,35.5 47.5,35.5C 47.5,35.1667 47.5,34.8333 47.5,34.5C 47.5,33.8333 47.8333,33.5 48.5,33.5 Z"/></g>
<g><path style="opacity:1" fill="#da8548" d="M 51.5,32.5 C 51.5,33.1667 51.5,33.8333 51.5,34.5C 50.8333,34.5 50.1667,34.5 49.5,34.5C 49.5,34.1667 49.5,33.8333 49.5,33.5C 50.1667,33.1667 50.8333,32.8333 51.5,32.5 Z"/></g>
<g><path style="opacity:1" fill="#e59c67" d="M 48.5,35.5 C 48.5,34.8333 48.8333,34.5 49.5,34.5C 50.1667,34.5 50.8333,34.5 51.5,34.5C 51.5,35.5 51.5,36.5 51.5,37.5C 51.1667,38.5 50.5,39.1667 49.5,39.5C 49.7678,37.901 49.4345,36.5676 48.5,35.5 Z"/></g>
<g><path style="opacity:0.69" fill="#f7dbbf" d="M 47.5,34.5 C 47.5,34.8333 47.5,35.1667 47.5,35.5C 47.5,36.1667 47.1667,36.5 46.5,36.5C 46.1667,36.5 45.8333,36.5 45.5,36.5C 45.8333,35.5 46.5,34.8333 47.5,34.5 Z"/></g>
<g><path style="opacity:1" fill="#dd884a" d="M 47.5,35.5 C 47.8333,35.5 48.1667,35.5 48.5,35.5C 49.4345,36.5676 49.7678,37.901 49.5,39.5C 49.1667,39.5 48.8333,39.5 48.5,39.5C 48.5,38.1667 47.8333,37.5 46.5,37.5C 46.5,37.1667 46.5,36.8333 46.5,36.5C 47.1667,36.5 47.5,36.1667 47.5,35.5 Z"/></g>
<g><path style="opacity:0.667" fill="#f8d8b5" d="M 45.5,36.5 C 45.8333,36.5 46.1667,36.5 46.5,36.5C 46.5,36.8333 46.5,37.1667 46.5,37.5C 45.8333,37.5 45.5,37.8333 45.5,38.5C 44.8333,38.8333 44.1667,39.1667 43.5,39.5C 43.1667,39.5 42.8333,39.5 42.5,39.5C 43.1667,38.1667 44.1667,37.1667 45.5,36.5 Z"/></g>
<g><path style="opacity:1" fill="#e48241" d="M 46.5,37.5 C 47.8333,37.5 48.5,38.1667 48.5,39.5C 47.1667,39.5 46.5,38.8333 46.5,37.5 Z"/></g>
<g><path style="opacity:1" fill="#e9a67a" d="M 46.5,37.5 C 46.5,38.8333 47.1667,39.5 48.5,39.5C 48.8333,39.5 49.1667,39.5 49.5,39.5C 48.5,41.1667 47.1667,42.5 45.5,43.5C 45.5,42.5 45.5,41.5 45.5,40.5C 45.5,39.8333 45.5,39.1667 45.5,38.5C 45.5,37.8333 45.8333,37.5 46.5,37.5 Z"/></g>
<g><path style="opacity:1" fill="#d88850" d="M 45.5,38.5 C 45.5,39.1667 45.5,39.8333 45.5,40.5C 44.8333,40.5 44.1667,40.5 43.5,40.5C 43.5,40.1667 43.5,39.8333 43.5,39.5C 44.1667,39.1667 44.8333,38.8333 45.5,38.5 Z"/></g>
<g><path style="opacity:1" fill="#e39560" d="M 42.5,41.5 C 42.5,40.8333 42.8333,40.5 43.5,40.5C 44.1667,40.5 44.8333,40.5 45.5,40.5C 45.5,41.5 45.5,42.5 45.5,43.5C 45.5,44.1667 45.1667,44.5 44.5,44.5C 44.5,44.1667 44.5,43.8333 44.5,43.5C 44.5,42.1667 43.8333,41.5 42.5,41.5 Z"/></g>
<g><path style="opacity:0.737" fill="#f9d8ae" d="M 42.5,39.5 C 42.8333,39.5 43.1667,39.5 43.5,39.5C 43.5,39.8333 43.5,40.1667 43.5,40.5C 42.8333,40.5 42.5,40.8333 42.5,41.5C 41.8333,41.5 41.5,41.8333 41.5,42.5C 40.8333,42.5 40.5,42.8333 40.5,43.5C 40.1667,43.5 39.8333,43.5 39.5,43.5C 39.7376,41.5956 40.7376,40.2623 42.5,39.5 Z"/></g>
<g><path style="opacity:1" fill="#e28648" d="M 42.5,41.5 C 43.8333,41.5 44.5,42.1667 44.5,43.5C 44.5,43.8333 44.5,44.1667 44.5,44.5C 42.8212,44.7148 41.8212,44.0481 41.5,42.5C 41.5,41.8333 41.8333,41.5 42.5,41.5 Z"/></g>
<g><path style="opacity:1" fill="#e8823f" d="M 42.5,41.5 C 43.8333,41.5 44.5,42.1667 44.5,43.5C 43.1667,43.5 42.5,42.8333 42.5,41.5 Z"/></g>
<g><path style="opacity:1" fill="#e8a476" d="M 41.5,42.5 C 41.8212,44.0481 42.8212,44.7148 44.5,44.5C 43.5,46.1667 42.1667,47.5 40.5,48.5C 40.7373,47.209 40.404,46.209 39.5,45.5C 39.8333,44.8333 40.1667,44.1667 40.5,43.5C 40.5,42.8333 40.8333,42.5 41.5,42.5 Z"/></g>
<g><path style="opacity:1" fill="#dfa376" d="M 39.5,43.5 C 39.8333,43.5 40.1667,43.5 40.5,43.5C 40.1667,44.1667 39.8333,44.8333 39.5,45.5C 38.8333,45.5 38.1667,45.5 37.5,45.5C 37.8333,44.5 38.5,43.8333 39.5,43.5 Z"/></g>
<g><path style="opacity:1" fill="#df854f" d="M 37.5,46.5 C 37.5,46.1667 37.5,45.8333 37.5,45.5C 38.1667,45.5 38.8333,45.5 39.5,45.5C 40.404,46.209 40.7373,47.209 40.5,48.5C 40.1667,48.5 39.8333,48.5 39.5,48.5C 39.5,47.1667 38.8333,46.5 37.5,46.5 Z"/></g>
<g><path style="opacity:1" fill="#e3a77a" d="M 37.5,45.5 C 37.5,45.8333 37.5,46.1667 37.5,46.5C 37.1583,47.3382 36.4916,47.6716 35.5,47.5C 35.8333,46.5 36.5,45.8333 37.5,45.5 Z"/></g>
<g><path style="opacity:1" fill="#e48443" d="M 37.5,46.5 C 38.8333,46.5 39.5,47.1667 39.5,48.5C 38.1667,48.5 36.8333,48.5 35.5,48.5C 35.5,48.1667 35.5,47.8333 35.5,47.5C 36.4916,47.6716 37.1583,47.3382 37.5,46.5 Z"/></g>
<g><path style="opacity:0.682" fill="#f8d2b8" d="M 35.5,47.5 C 35.5,47.8333 35.5,48.1667 35.5,48.5C 34.8333,48.8333 34.1667,49.1667 33.5,49.5C 33.5,48.1667 34.1667,47.5 35.5,47.5 Z"/></g>
<g><path style="opacity:1" fill="#d88548" d="M 35.5,48.5 C 35.5,49.1667 35.5,49.8333 35.5,50.5C 34.8333,50.5 34.1667,50.5 33.5,50.5C 33.5,50.1667 33.5,49.8333 33.5,49.5C 34.1667,49.1667 34.8333,48.8333 35.5,48.5 Z"/></g>
<g><path style="opacity:1" fill="#eba877" d="M 35.5,48.5 C 36.8333,48.5 38.1667,48.5 39.5,48.5C 39.8333,48.5 40.1667,48.5 40.5,48.5C 39.5,50.1667 38.1667,51.5 36.5,52.5C 36.6716,51.5084 36.3382,50.8417 35.5,50.5C 35.5,49.8333 35.5,49.1667 35.5,48.5 Z"/></g>
<g><path style="opacity:0.608" fill="#fad5be" d="M 33.5,49.5 C 33.5,49.8333 33.5,50.1667 33.5,50.5C 32.8333,50.5 32.5,50.8333 32.5,51.5C 31.5,51.8333 30.8333,52.5 30.5,53.5C 30.1667,53.5 29.8333,53.5 29.5,53.5C 29.1667,53.5 28.8333,53.5 28.5,53.5C 29.5846,51.4131 31.2512,50.0798 33.5,49.5 Z"/></g>
<g><path style="opacity:1" fill="#e59f6b" d="M 32.5,51.5 C 32.5,50.8333 32.8333,50.5 33.5,50.5C 34.1667,50.5 34.8333,50.5 35.5,50.5C 36.3382,50.8417 36.6716,51.5084 36.5,52.5C 35.8333,53.8333 34.8333,54.8333 33.5,55.5C 33.7678,53.901 33.4345,52.5676 32.5,51.5 Z"/></g>
<g><path style="opacity:1" fill="#df8649" d="M 32.5,51.5 C 33.4345,52.5676 33.7678,53.901 33.5,55.5C 33.1667,55.5 32.8333,55.5 32.5,55.5C 32.5,54.1667 31.8333,53.5 30.5,53.5C 30.8333,52.5 31.5,51.8333 32.5,51.5 Z"/></g>
<g><path style="opacity:0.545" fill="#fcdbbb" d="M 28.5,53.5 C 28.8333,53.5 29.1667,53.5 29.5,53.5C 29.1667,54.1667 28.8333,54.8333 28.5,55.5C 27.8333,55.5 27.5,55.8333 27.5,56.5C 26.596,57.209 26.2627,58.209 26.5,59.5C 24.9844,56.9196 25.6511,54.9196 28.5,53.5 Z"/></g>
<g><path style="opacity:1" fill="#e7823b" d="M 30.5,53.5 C 31.8333,53.5 32.5,54.1667 32.5,55.5C 31.1667,55.5 30.5,54.8333 30.5,53.5 Z"/></g>
<g><path style="opacity:1" fill="#de8546" d="M 29.5,53.5 C 29.8333,53.5 30.1667,53.5 30.5,53.5C 30.5,54.8333 31.1667,55.5 32.5,55.5C 32.5,56.1667 32.1667,56.5 31.5,56.5C 30.209,56.7373 29.209,56.404 28.5,55.5C 28.8333,54.8333 29.1667,54.1667 29.5,53.5 Z"/></g>
<g><path style="opacity:1" fill="#dc8c53" d="M 28.5,55.5 C 29.209,56.404 30.209,56.7373 31.5,56.5C 31.5,56.8333 31.5,57.1667 31.5,57.5C 31.1667,57.5 30.8333,57.5 30.5,57.5C 29.209,57.7373 28.209,57.404 27.5,56.5C 27.5,55.8333 27.8333,55.5 28.5,55.5 Z"/></g>
<g><path style="opacity:0.008" fill="#fff0e4" d="M 32.5,55.5 C 32.8333,55.5 33.1667,55.5 33.5,55.5C 33.6716,56.4916 33.3382,57.1583 32.5,57.5C 32.1667,57.5 31.8333,57.5 31.5,57.5C 31.5,57.1667 31.5,56.8333 31.5,56.5C 32.1667,56.5 32.5,56.1667 32.5,55.5 Z"/></g>
<g><path style="opacity:1" fill="#c9906a" d="M 27.5,56.5 C 28.209,57.404 29.209,57.7373 30.5,57.5C 29.713,59.1042 28.3797,59.7709 26.5,59.5C 26.2627,58.209 26.596,57.209 27.5,56.5 Z"/></g>
<g><path style="opacity:0.11" fill="#fff6e5" d="M 30.5,57.5 C 30.8333,57.5 31.1667,57.5 31.5,57.5C 31.8333,57.5 32.1667,57.5 32.5,57.5C 31.0804,60.3489 29.0804,61.0156 26.5,59.5C 28.3797,59.7709 29.713,59.1042 30.5,57.5 Z"/></g>
</svg>
