<?xml version="1.0" encoding="UTF-8"?>
<svg version="1.1" xmlns="http://www.w3.org/2000/svg" width="568" height="204">
<path d="M0 0 C0.6909375 0.44730469 1.381875 0.89460938 2.09375 1.35546875 C3.78108822 2.49710036 5.39924674 3.73983254 7 5 C7 5.66 7 6.32 7 7 C7.556875 7.20625 8.11375 7.4125 8.6875 7.625 C11.92501302 9.55000774 13.68231141 12.03850902 16 15 C14.49389913 19.21708244 11.88228147 20.94467452 8 23 C5.125 22.75 5.125 22.75 3 22 C3 21.34 3 20.68 3 20 C1.515 19.505 1.515 19.505 0 19 C0 18.34 0 17.68 0 17 C-0.556875 16.7525 -1.11375 16.505 -1.6875 16.25 C-4 15 -4 15 -6.0625 13.1875 C-12.91407211 8.08526545 -20.6701995 5.50209517 -29 4 C-29 7.3 -29 10.6 -29 14 C-27.0509375 14.3403125 -27.0509375 14.3403125 -25.0625 14.6875 C-18.60999166 16.10440151 -13.44071433 19.37285712 -8 23 C-8 23.66 -8 24.32 -8 25 C-6.515 25.495 -6.515 25.495 -5 26 C-5 26.66 -5 27.32 -5 28 C-4.34 28 -3.68 28 -3 28 C4.05316071 39.46693109 6.35215496 49.615907 4 63 C3.12830736 65.72495514 2.12956748 68.28002385 0.9375 70.87890625 C0.0394704 72.91069821 -0.52850926 74.83408942 -1 77 C0.98 78.65 2.96 80.3 5 82 C12.66291952 68.45735606 15.90497569 56.81935791 12.51171875 41.44140625 C11.78576731 37.9778975 11.39063135 34.51568216 11 31 C12.45449401 29.9944239 13.91372443 28.99569565 15.375 28 C16.18710938 27.443125 16.99921875 26.88625 17.8359375 26.3125 C20 25 20 25 22 25 C22.63381508 26.32916561 23.25648484 27.66364609 23.875 29 C24.22304687 29.7425 24.57109375 30.485 24.9296875 31.25 C30.98367519 46.8047713 29.52290196 64.87241885 23 80 C20.09777432 86.29995331 16.02324092 91.361151 11.4375 96.5 C10.97843262 97.01723633 10.51936523 97.53447266 10.04638672 98.06738281 C7.27100432 101.0486069 4.90715047 102.81301758 1 104 C1 104.66 1 105.32 1 106 C-18.85592385 116.5801638 -18.85592385 116.5801638 -29 116 C-30 115 -30 115 -30.09765625 112.27734375 C-30.08605469 111.17519531 -30.07445313 110.07304687 -30.0625 108.9375 C-30.05347656 107.83277344 -30.04445313 106.72804688 -30.03515625 105.58984375 C-30.02355469 104.73519531 -30.01195313 103.88054687 -30 103 C-29.10539062 102.78085938 -28.21078125 102.56171875 -27.2890625 102.3359375 C-15.82122521 99.37765345 -15.82122521 99.37765345 -6 93 C-6 91.68 -6 90.36 -6 89 C-7.485 88.505 -7.485 88.505 -9 88 C-9 87.34 -9 86.68 -9 86 C-12.88006579 86.39795547 -15.99776942 87.36444054 -19.5 89 C-29.6162937 93.66126387 -39.68701872 92.51760602 -50 89 C-61.27810416 83.92972839 -67.71634528 75.89951678 -72.28515625 64.6015625 C-73 62 -73 62 -72 59 C-64.25 58.875 -64.25 58.875 -62 60 C-61.08457655 61.59129683 -60.23929925 63.22353288 -59.4375 64.875 C-59.00308594 65.75929688 -58.56867187 66.64359375 -58.12109375 67.5546875 C-57 70 -57 70 -56 73 C-54.28480253 74.02651373 -54.28480253 74.02651373 -52 75 C-50.88625 75.66 -49.7725 76.32 -48.625 77 C-42.2111911 80.63403972 -36.3425467 81.90812795 -29 81 C-20.57655739 78.37696972 -13.26769461 73.85678053 -9 66 C-5.42252398 58.03010168 -4.884199 49.7091655 -7.9453125 41.44921875 C-11.71030453 34.03143645 -17.36423932 29.22398784 -25 26 C-34.26789619 23.25039595 -42.85511202 25.27623577 -51.1875 29.6875 C-58.10771868 35.37745758 -60.85242636 41.40970544 -63 50 C-66.3 50 -69.6 50 -73 50 C-73.8198332 40.36695995 -69.01795892 33.16654785 -63 26 C-60.75 23.5 -60.75 23.5 -59 22 C-58.34 22 -57.68 22 -57 22 C-57 21.34 -57 20.68 -57 20 C-51.66068812 17.13965435 -46.92056432 15.26869235 -41 14 C-41 10.7 -41 7.4 -41 4 C-55.42222187 7.04799534 -68.40496098 12.65259093 -76.875 25.3125 C-84.24605717 37.81200496 -87.0745885 50.99401997 -83.75 65.25 C-79.85735214 79.10854726 -71.32740119 90.03628945 -58.78125 97.28125 C-52.79916133 100.14224893 -46.43827546 101.51993668 -40 103 C-40 107.29 -40 111.58 -40 116 C-55.12873911 116.45902622 -69.13635008 109.5889625 -80.19946289 99.60864258 C-87.64384452 92.46147216 -92.18229568 84.51829001 -96 75 C-96.37898438 74.10152344 -96.75796875 73.20304687 -97.1484375 72.27734375 C-102.20659031 57.63654365 -100.0340928 39.06907732 -93.43603516 25.39404297 C-84.83818052 8.54729307 -71.57038311 -1.65186382 -54 -8 C-35.82826703 -13.44778853 -15.80573784 -10.46158467 0 0 Z " fill="#FE941F" transform="translate(109,30)"/>
<path d="M0 0 C5.23117183 4.30067025 8.67941414 10.53022739 9.77362061 17.18417358 C9.93934911 20.65275363 9.92626938 24.07168366 9.8359375 27.54296875 C9.82744781 28.79257889 9.81895813 30.04218903 9.81021118 31.32966614 C9.78252937 34.61337953 9.72886644 37.89524189 9.6619873 41.17834473 C9.60003137 44.54379917 9.57308405 47.90952734 9.54296875 51.27539062 C9.47715851 57.85096938 9.37701469 64.42533373 9.25 71 C6.93756208 71.02685412 4.6250373 71.04632841 2.3125 71.0625 C1.02472656 71.07410156 -0.26304687 71.08570313 -1.58984375 71.09765625 C-4.75 71 -4.75 71 -5.75 70 C-5.84657018 68.47700874 -5.87515633 66.94963363 -5.87597656 65.42358398 C-5.87978333 64.44844345 -5.88359009 63.47330292 -5.88751221 62.46861267 C-5.88853943 61.40518143 -5.88956665 60.34175018 -5.890625 59.24609375 C-5.90896282 57.00715137 -5.92853402 54.76821881 -5.94921875 52.52929688 C-5.97812574 48.98966055 -5.99999818 45.45065046 -6.00048828 41.91088867 C-6.00383414 38.50122143 -6.03846772 35.09300769 -6.078125 31.68359375 C-6.0710553 30.63433212 -6.0639856 29.5850705 -6.05670166 28.50401306 C-6.16640449 21.839768 -7.24146945 17.07565495 -11.75 12 C-16.52617207 8.81588529 -21.07101524 8.60834588 -26.75 9 C-33.10947373 11.08327588 -36.93997911 14.05033632 -40.4375 19.75 C-43.29291266 26.82054564 -44.05564706 33.83945992 -44.1640625 41.41015625 C-44.18342865 42.26306747 -44.2027948 43.1159787 -44.2227478 43.99473572 C-44.28190102 46.68389294 -44.32866838 49.3730945 -44.375 52.0625 C-44.41323911 53.90040794 -44.45229417 55.7382991 -44.4921875 57.57617188 C-44.5875485 62.0506428 -44.67181253 66.52519738 -44.75 71 C-47.06243792 71.02685412 -49.3749627 71.04632841 -51.6875 71.0625 C-52.97527344 71.07410156 -54.26304687 71.08570313 -55.58984375 71.09765625 C-58.75 71 -58.75 71 -59.75 70 C-59.8496392 67.76612794 -59.87799795 65.52906141 -59.87939453 63.29296875 C-59.88114685 62.59217194 -59.88289917 61.89137512 -59.88470459 61.16934204 C-59.88912266 58.84203651 -59.88618529 56.51480636 -59.8828125 54.1875 C-59.88348555 52.57706691 -59.88445559 50.96663391 -59.88571167 49.35620117 C-59.88718858 45.97671545 -59.88503431 42.5972561 -59.88037109 39.21777344 C-59.8746738 34.87623495 -59.87795285 30.53475827 -59.88394356 26.19322205 C-59.88754936 22.86649099 -59.8864105 19.5397747 -59.88381577 16.21304321 C-59.88314655 14.61178582 -59.88397474 13.0105271 -59.88629532 11.40927124 C-59.88882216 9.17515489 -59.88498085 6.94114 -59.87939453 4.70703125 C-59.87859894 3.4331958 -59.87780334 2.15936035 -59.87698364 0.84692383 C-59.75 -2 -59.75 -2 -58.75 -3 C-56.39686445 -3.07271741 -54.04166332 -3.08370868 -51.6875 -3.0625 C-50.39714844 -3.05347656 -49.10679687 -3.04445313 -47.77734375 -3.03515625 C-46.77832031 -3.02355469 -45.77929688 -3.01195313 -44.75 -3 C-44.42 -0.03 -44.09 2.94 -43.75 6 C-43.25371094 5.52949219 -42.75742188 5.05898437 -42.24609375 4.57421875 C-30.32917315 -6.34774074 -14.22217265 -8.59581863 0 0 Z " fill="#010101" transform="translate(216.75,74)"/>
<path d="M0 0 C0.92490234 -0.01998047 1.84980469 -0.03996094 2.80273438 -0.06054688 C12.96128161 -0.05342806 21.62543754 3.4962417 29.0625 10.4375 C33.48184854 15.26771768 36.27838949 20.14063938 38.0625 26.4375 C37.62890625 28.671875 37.62890625 28.671875 37.0625 30.4375 C34.7525 30.4375 32.4425 30.4375 30.0625 30.4375 C29.546875 29.468125 29.03125 28.49875 28.5 27.5 C24.09607661 19.89743751 19.70801654 13.28543486 11.0625 10.4375 C1.15107514 8.00080419 -9.1606663 8.53644444 -18.0546875 13.65625 C-27.29521227 19.93283286 -32.02282501 29.82950739 -34.40234375 40.52734375 C-34.69802906 42.50803029 -34.85132095 44.43664732 -34.9375 46.4375 C-34.97746094 47.29085937 -35.01742187 48.14421875 -35.05859375 49.0234375 C-35.35198541 61.34588742 -32.61964398 73.9144672 -24.875 83.8125 C-18.6406198 90.19372856 -11.43433921 93.65460822 -2.5324707 93.99414062 C4.69674269 94.01322136 11.31572639 93.22240901 18.0625 90.4375 C18.0625 89.7775 18.0625 89.1175 18.0625 88.4375 C18.76375 87.963125 19.465 87.48875 20.1875 87 C24.42326003 83.22464867 26.54127905 78.46261392 29.0625 73.4375 C31.7025 73.4375 34.3425 73.4375 37.0625 73.4375 C38.37525643 77.3757693 37.43320685 78.45692325 35.625 82.125 C30.18200786 92.48545401 22.90775685 98.5044374 11.8125 102.18359375 C-0.05169307 105.25557231 -12.58618627 103.73032778 -23.25 97.6875 C-34.51446282 90.34032634 -40.26215732 80.22913384 -43.9375 67.4375 C-45.91114927 56.48568152 -46.08495729 44.16417915 -42.9375 33.4375 C-42.69257813 32.55964844 -42.44765625 31.68179688 -42.1953125 30.77734375 C-38.39666403 18.82672842 -30.95941568 9.51460305 -19.9375 3.4375 C-13.32047659 0.52022935 -7.17276198 -0.05475391 0 0 Z " fill="#FE9420" transform="translate(289.9375,42.5625)"/>
<path d="M0 0 C4.91725607 5.07624356 6.09413802 9.82049109 6.22119141 16.6706543 C6.24436432 17.80830734 6.26753723 18.94596039 6.29141235 20.11808777 C6.3112619 21.34111099 6.33111145 22.56413422 6.3515625 23.82421875 C6.37471527 25.08136185 6.39786804 26.33850494 6.42172241 27.63374329 C6.46932455 30.28910337 6.51502272 32.94441639 6.55761719 35.59985352 C6.61262084 39.00987593 6.67643164 42.41966787 6.74279213 45.82948589 C6.80474843 49.07764687 6.85905744 52.32593374 6.9140625 55.57421875 C6.93796051 56.80331467 6.96185852 58.03241058 6.98648071 59.29875183 C7.0033493 60.42694839 7.0202179 61.55514496 7.03759766 62.7175293 C7.05456696 63.71584274 7.07153625 64.71415619 7.08901978 65.74272156 C7 68 7 68 6 69 C3.66702567 69.04092937 1.33294775 69.04241723 -1 69 C-1.66 66.36 -2.32 63.72 -3 61 C-3.42410156 61.39832031 -3.84820312 61.79664063 -4.28515625 62.20703125 C-4.87167969 62.73683594 -5.45820313 63.26664062 -6.0625 63.8125 C-6.63097656 64.33457031 -7.19945312 64.85664063 -7.78515625 65.39453125 C-15.51964365 71.00101153 -23.88846852 70.94350178 -33 70 C-40.20874801 67.94687557 -44.31149207 64.42514285 -48 58 C-49.95234805 52.14295584 -50.15094928 44.56615374 -48.24609375 38.6640625 C-45.15188882 33.10662775 -41.41223521 29.8040784 -35.4375 27.8125 C-34.01244141 27.32716797 -34.01244141 27.32716797 -32.55859375 26.83203125 C-31.71425781 26.55746094 -30.86992187 26.28289062 -30 26 C-29.01 25.67 -28.02 25.34 -27 25 C-25.15533558 24.85110253 -23.30642725 24.7520899 -21.45703125 24.68359375 C-20.38388672 24.64169922 -19.31074219 24.59980469 -18.20507812 24.55664062 C-16.52575195 24.49766602 -16.52575195 24.49766602 -14.8125 24.4375 C-13.68134766 24.39431641 -12.55019531 24.35113281 -11.38476562 24.30664062 C-8.58996646 24.20050901 -5.79507838 24.09845615 -3 24 C-2.98453125 22.75734375 -2.9690625 21.5146875 -2.953125 20.234375 C-2.94442383 19.53538086 -2.93572266 18.83638672 -2.92675781 18.11621094 C-3.0821759 13.62566446 -4.09977992 10.10349558 -6.9375 6.625 C-10.90121943 3.50206954 -14.99880581 3.81686418 -19.8125 3.8125 C-20.51181641 3.80025391 -21.21113281 3.78800781 -21.93164062 3.77539062 C-26.32404373 3.76306396 -30.02988638 4.05667111 -34 6 C-35.31469997 8.09668307 -35.31469997 8.09668307 -35.8125 10.5625 C-36.97826087 14.97826087 -36.97826087 14.97826087 -38 16 C-40.33297433 16.04092937 -42.66705225 16.04241723 -45 16 C-46.18918221 12.24950226 -45.70719554 9.77695675 -44.21484375 6.09765625 C-41.50198717 1.41339907 -37.14991494 -1.8463871 -32.4375 -4.375 C-21.42128009 -7.19967177 -9.47483799 -6.89881127 0 0 Z M-37.3125 37.6875 C-40.10882858 41.51950583 -41.14117869 45.44466575 -40.8828125 50.12109375 C-40.13973502 54.13219564 -39.13801925 55.85570714 -36.25 58.875 C-29.91911438 63.01442521 -25.24973515 63.4745224 -18 62 C-11.78776648 60.48590724 -8.60204227 58.29712099 -5 53 C-2.37937343 47.88977818 -1.94128619 42.44313762 -1.9765625 36.76953125 C-1.98816406 34.90361328 -1.98816406 34.90361328 -2 33 C-6.18736668 32.91239819 -10.37449531 32.85940565 -14.5625 32.8125 C-15.74392578 32.78736328 -16.92535156 32.76222656 -18.14257812 32.73632812 C-25.8229395 32.67178727 -31.00021036 33.08123459 -37.3125 37.6875 Z " fill="#FE9420" transform="translate(419,76)"/>
<path d="M0 0 C2.55914551 2.78853671 4.25441244 5.91762723 5.39453125 9.51953125 C5.14453125 12.51953125 5.14453125 12.51953125 4.39453125 14.51953125 C1.76953125 15.08203125 1.76953125 15.08203125 -1.60546875 14.51953125 C-3.33477492 12.36454972 -4.68206534 10.08062703 -6.11328125 7.71875 C-9.01205768 3.44646956 -12.57402385 2.73934738 -17.41796875 1.70703125 C-23.06453086 1.18681056 -28.31300554 2.12168783 -33.16796875 5.08203125 C-35.30295073 8.70221809 -35.4439064 12.41798492 -34.60546875 16.51953125 C-30.8724972 21.96512057 -22.18826744 23.30245923 -16.16796875 24.95703125 C-7.35968465 27.48652667 0.01465943 29.60795505 5.39453125 37.51953125 C7.93606011 43.20771488 8.18861183 48.58305754 6.33203125 54.51953125 C3.83129557 60.53765683 -0.41284173 64.26080092 -5.98046875 67.45703125 C-14.85546448 70.23046741 -27.09643468 69.96093667 -35.51953125 65.921875 C-40.57183999 62.52528542 -45.13987442 57.54475238 -46.60546875 51.51953125 C-46.73046875 48.70703125 -46.73046875 48.70703125 -46.60546875 46.51953125 C-43.96546875 46.51953125 -41.32546875 46.51953125 -38.60546875 46.51953125 C-38.33734375 47.1228125 -38.06921875 47.72609375 -37.79296875 48.34765625 C-35.28963802 53.4531334 -33.19218516 56.68399561 -27.83984375 58.8671875 C-20.29555989 61.06980184 -13.71912291 61.11395693 -6.60546875 57.51953125 C-3.68578076 55.14728476 -3.34089327 52.73313577 -2.79296875 49.14453125 C-2.48380499 45.15171414 -2.67064759 42.12533433 -4.60546875 38.51953125 C-8.16097204 36.83931996 -11.90658865 35.77247918 -15.66796875 34.64453125 C-20.15564349 33.27428777 -24.63984402 31.89773342 -29.10546875 30.45703125 C-30.04390625 30.15667969 -30.98234375 29.85632813 -31.94921875 29.546875 C-34.75051899 28.46343094 -37.14162806 27.23797086 -39.60546875 25.51953125 C-39.60546875 24.85953125 -39.60546875 24.19953125 -39.60546875 23.51953125 C-40.26546875 23.51953125 -40.92546875 23.51953125 -41.60546875 23.51953125 C-44.41805986 16.65490209 -45.6437233 11.41498191 -42.73046875 4.41796875 C-39.66079731 -1.27371371 -35.5386945 -4.09685979 -29.60546875 -6.48046875 C-19.07853341 -9.26116865 -8.18644906 -7.14964285 0 0 Z " fill="#FE9421" transform="translate(486.60546875,77.48046875)"/>
<path d="M0 0 C3.32226593 3.1024101 5.86000634 6.55402471 7 11 C6.625 13.8125 6.625 13.8125 6 16 C3.375 16.5625 3.375 16.5625 0 16 C-1.76524061 13.8498573 -3.13174868 11.5738108 -4.578125 9.19921875 C-6.8283733 5.71875228 -9.00415581 4.45697411 -12.99609375 3.54296875 C-18.5251232 2.67097277 -23.76710256 2.89637523 -29 5 C-32.27912667 7.79925448 -32.90095514 9.29430538 -33.5 13.5625 C-33.27238417 16.98841888 -33.27238417 16.98841888 -31.375 19.25 C-26.51411475 22.83170492 -21.58470165 24.49566677 -15.75 25.875 C-6.07556671 28.33073543 2.39768599 31.27610143 8 40 C9.79671797 45.3901539 10.02020006 51.20185792 8.05859375 56.58203125 C4.71395998 62.9043327 0.61446107 67.07291914 -6.30078125 69.45703125 C-15.81716335 71.37132519 -26.7058765 71.50526975 -35 66 C-36.093125 65.278125 -37.18625 64.55625 -38.3125 63.8125 C-42.70516717 59.21552273 -45 54.37469367 -45 48 C-42.36 48 -39.72 48 -37 48 C-36.69707031 48.61488281 -36.39414062 49.22976562 -36.08203125 49.86328125 C-32.81042092 56.17497256 -30.47775837 58.63617319 -23.8125 61.25 C-17.71978166 62.44856754 -12.38633867 61.86775952 -6.5625 59.75 C-3.54625767 57.69012719 -2.35846394 56.39615986 -1 53 C-0.43843237 49.15482164 -0.69733619 45.95122912 -1.875 42.25 C-6.09826702 37.77830551 -12.21926401 36.5334743 -17.96875 34.78125 C-18.66460205 34.56855469 -19.3604541 34.35585937 -20.07739258 34.13671875 C-21.44916873 33.7227893 -22.82392929 33.31858179 -24.2019043 32.92578125 C-31.13688706 30.87275767 -36.79344066 28.14804827 -41 22 C-43.2403131 17.5193738 -42.67894998 11.34722708 -41.31640625 6.63671875 C-38.74088356 0.96201939 -35.09080203 -1.53186903 -29.5 -4.1875 C-19.32724012 -7.49364696 -8.60489228 -6.57710004 0 0 Z " fill="#FE9521" transform="translate(550,76)"/>
<path d="M0 0 C1.134375 0.020625 2.26875 0.04125 3.4375 0.0625 C4.59181183 2.37112367 4.5632159 3.67629315 4.56448364 6.24452209 C4.56730347 7.12089828 4.57012329 7.99727448 4.57302856 8.90020752 C4.57100433 9.86392273 4.5689801 10.82763794 4.56689453 11.82055664 C4.56864685 12.83361374 4.57039917 13.84667084 4.57220459 14.89042664 C4.576619 18.25118708 4.57368676 21.61189524 4.5703125 24.97265625 C4.5709856 27.29910797 4.57195568 29.62555963 4.57321167 31.95201111 C4.57468804 36.83202788 4.57253582 41.71202637 4.56787109 46.59204102 C4.56217069 52.86279026 4.56545518 59.13349674 4.57144356 65.40424442 C4.5750481 70.20902329 4.57391113 75.01379193 4.57131577 79.81857109 C4.57064636 82.13155561 4.57147537 84.44454104 4.57379532 86.75752449 C4.57632044 89.98298751 4.57248338 93.20838015 4.56689453 96.43383789 C4.56891876 97.39957733 4.57094299 98.36531677 4.57302856 99.36032104 C4.57020874 100.23387741 4.56738892 101.10743378 4.56448364 102.00746155 C4.56410662 102.77087388 4.56372959 103.53428621 4.56334114 104.32083225 C4.4375 106.0625 4.4375 106.0625 3.4375 107.0625 C-0.0625 107.1875 -0.0625 107.1875 -3.5625 107.0625 C-5.10260687 105.52239313 -4.68843583 104.1085141 -4.68948364 101.96276855 C-4.69230347 101.07935287 -4.69512329 100.19593719 -4.69802856 99.28575134 C-4.69600433 98.30909012 -4.6939801 97.33242889 -4.69189453 96.32617188 C-4.69364685 95.30350723 -4.69539917 94.28084259 -4.69720459 93.22718811 C-4.70162527 89.82852508 -4.69868435 86.42991361 -4.6953125 83.03125 C-4.69598548 80.68094879 -4.69695545 78.33064765 -4.69821167 75.98034668 C-4.69968894 71.04727518 -4.69753316 66.11422175 -4.69287109 61.18115234 C-4.6871738 54.84199333 -4.69045265 48.50287664 -4.69644356 42.16371918 C-4.70004839 37.30832599 -4.69891094 32.45294292 -4.69631577 27.59754944 C-4.69564628 25.25944514 -4.69647566 22.92133994 -4.69879532 20.58323669 C-4.70132057 17.32174223 -4.69748304 14.06031737 -4.69189453 10.79882812 C-4.69493088 9.33383629 -4.69493088 9.33383629 -4.69802856 7.83924866 C-4.69520874 6.95583298 -4.69238892 6.0724173 -4.68948364 5.16223145 C-4.68910662 4.39014595 -4.68872959 3.61806046 -4.68834114 2.82257843 C-4.44880429 -0.52770628 -3.45453324 0.06060585 0 0 Z " fill="#FF911B" transform="translate(349.5625,37.9375)"/>
<path d="M0 0 C4.45313331 3.54433059 6.69078232 6.53134357 7.40625 12.125 C7.5862435 17.64480065 7.14576976 21.68412579 4.0625 26.4375 C3.4025 26.4375 2.7425 26.4375 2.0625 26.4375 C2.0625 27.0975 2.0625 27.7575 2.0625 28.4375 C-3.45412939 32.0158542 -8.5787822 32.11133427 -14.9375 31.4375 C-19.70822359 29.93560554 -22.27999183 27.49768991 -24.9609375 23.3984375 C-27.11665759 19.06975155 -27.29237264 15.05055745 -26.25 10.3125 C-24.22697122 5.88110362 -22.35824793 2.47707166 -18.375 -0.4375 C-12.38007883 -2.3994742 -5.78578138 -2.89289069 0 0 Z " fill="#FE931E" transform="translate(84.9375,68.5625)"/>
<path d="M0 0 C2.31 0 4.62 0 7 0 C8.15431183 2.30862367 8.1257159 3.61379315 8.12698364 6.18202209 C8.12980347 7.05839828 8.13262329 7.93477448 8.13552856 8.83770752 C8.13350433 9.80142273 8.1314801 10.76513794 8.12939453 11.75805664 C8.13114685 12.77111374 8.13289917 13.78417084 8.13470459 14.82792664 C8.139119 18.18868708 8.13618676 21.54939524 8.1328125 24.91015625 C8.1334856 27.23660797 8.13445568 29.56305963 8.13571167 31.88951111 C8.13718804 36.76952788 8.13503582 41.64952637 8.13037109 46.52954102 C8.12467069 52.80029026 8.12795518 59.07099674 8.13394356 65.34174442 C8.1375481 70.14652329 8.13641113 74.95129193 8.13381577 79.75607109 C8.13314636 82.06905561 8.13397537 84.38204104 8.13629532 86.69502449 C8.13882044 89.92048751 8.13498338 93.14588015 8.12939453 96.37133789 C8.13141876 97.33707733 8.13344299 98.30281677 8.13552856 99.29782104 C8.13270874 100.17137741 8.12988892 101.04493378 8.12698364 101.94496155 C8.12660662 102.70837388 8.12622959 103.47178621 8.12584114 104.25833225 C8 106 8 106 7 107 C4.66702567 107.04092937 2.33294775 107.04241723 0 107 C0 106.34 0 105.68 0 105 C1.98 105 3.96 105 6 105 C6 71.01 6 37.02 6 2 C3.69 2.33 1.38 2.66 -1 3 C-0.67 2.01 -0.34 1.02 0 0 Z " fill="#FEA44F" transform="translate(346,38)"/>
<path d="M0 0 C-0.33 0.66 -0.66 1.32 -1 2 C-1.6084375 1.67386719 -2.216875 1.34773438 -2.84375 1.01171875 C-18.47496792 -6.78090313 -36.22326475 -8.2586277 -52.875 -2.875 C-65.07948809 1.66620487 -73.21972535 8.70742407 -82 18 C-83.32884403 19.33780757 -84.66046522 20.67289709 -86 22 C-82.66776378 12.2462669 -73.73326768 4.96788106 -65 0 C-43.1994538 -10.64220575 -21.739496 -11.31781395 0 0 Z " fill="#FEA647" transform="translate(106,28)"/>
<path d="M0 0 C1.79244141 0.01740234 1.79244141 0.01740234 3.62109375 0.03515625 C5.41740234 0.04869141 5.41740234 0.04869141 7.25 0.0625 C8.17683594 0.07410156 9.10367188 0.08570312 10.05859375 0.09765625 C9.72859375 0.75765625 9.39859375 1.41765625 9.05859375 2.09765625 C5.42859375 2.09765625 1.79859375 2.09765625 -1.94140625 2.09765625 C-1.94140625 25.19765625 -1.94140625 48.29765625 -1.94140625 72.09765625 C-2.27140625 72.09765625 -2.60140625 72.09765625 -2.94140625 72.09765625 C-3.09499631 62.85776445 -3.243178 53.61780665 -3.38436985 44.37771702 C-3.45009589 40.08761901 -3.5177161 35.79756797 -3.58959961 31.50756836 C-3.65884487 27.37092432 -3.72320028 23.23423098 -3.78410149 19.09745598 C-3.80825976 17.51570794 -3.8342087 15.93398625 -3.86194038 14.35229683 C-3.90034992 12.1444931 -3.93250929 9.9366832 -3.96313477 7.72875977 C-3.98312027 6.469673 -4.00310577 5.21058624 -4.0236969 3.91334534 C-3.910833 0.05154989 -3.87711262 0.1287222 0 0 Z " fill="#292421" transform="translate(160.94140625,70.90234375)"/>
<path d="M0 0 C0.33 0 0.66 0 1 0 C1 14.52 1 29.04 1 44 C4.96 44 8.92 44 13 44 C13 44.66 13 45.32 13 46 C10.85423363 46.02685938 8.70837355 46.04633088 6.5625 46.0625 C5.36753906 46.07410156 4.17257813 46.08570313 2.94140625 46.09765625 C0 46 0 46 -1 45 C-1.10055349 42.873009 -1.13081831 40.74264682 -1.1328125 38.61328125 C-1.13376923 37.95982224 -1.13472595 37.30636322 -1.13571167 36.63310242 C-1.13639452 35.23839218 -1.13453296 33.84367881 -1.13037109 32.44897461 C-1.12513524 30.36629545 -1.13025314 28.28384324 -1.13671875 26.20117188 C-1.14064615 17.42146815 -0.75374234 8.75216755 0 0 Z " fill="#13100D" transform="translate(212,99)"/>
<path d="M0 0 C0.66 0 1.32 0 2 0 C2.02465622 4.25414623 2.04283899 8.50825498 2.05493164 12.76245117 C2.05997101 14.21070073 2.06680253 15.65894517 2.07543945 17.10717773 C2.08752247 19.18474588 2.09323211 21.26224697 2.09765625 23.33984375 C2.10289307 24.59144287 2.10812988 25.84304199 2.11352539 27.13256836 C2 30 2 30 1 31 C-1.33297433 31.04092937 -3.66705225 31.04241723 -6 31 C-6 30.34 -6 29.68 -6 29 C-4.02 29 -2.04 29 0 29 C0 19.43 0 9.86 0 0 Z " fill="#FEA14A" transform="translate(352,114)"/>
<path d="M0 0 C0.99 0.33 1.98 0.66 3 1 C2.05125 1.7425 1.1025 2.485 0.125 3.25 C-4.99374092 7.57383056 -5.3520613 11.52061297 -6 18 C-6.66 17.34 -7.32 16.68 -8 16 C-7.88783962 9.38253758 -6.22450064 6.04879345 -2 1 C-1.34 0.67 -0.68 0.34 0 0 Z " fill="#FEAA38" transform="translate(66,69)"/>
<path d="M0 0 C0.33 0.66 0.66 1.32 1 2 C-3.61534219 6.06478107 -8.25585812 10.08608295 -13 14 C-10.27076097 7.54907138 -5.83503593 3.52816126 0 0 Z " fill="#FE9B30" transform="translate(267,48)"/>
<path d="M0 0 C1.42944945 2.35438733 2.08661261 3.48032433 1.625 6.25 C1.41875 6.8275 1.2125 7.405 1 8 C-0.98 8 -2.96 8 -5 8 C-5 7.34 -5 6.68 -5 6 C-3.35 6 -1.7 6 0 6 C0 4.02 0 2.04 0 0 Z " fill="#FEA13F" transform="translate(424,137)"/>
<path d="M0 0 C6.0546875 -0.1953125 6.0546875 -0.1953125 8 0 C8.66 0.66 9.32 1.32 10 2 C6.37 2.33 2.74 2.66 -1 3 C-0.67 2.01 -0.34 1.02 0 0 Z " fill="#FEA94A" transform="translate(37,89)"/>
<path d="M0 0 C0 0.66 0 1.32 0 2 C-2.1875 3.5078125 -2.1875 3.5078125 -5 5.125 C-5.928125 5.66382813 -6.85625 6.20265625 -7.8125 6.7578125 C-8.8953125 7.37269531 -8.8953125 7.37269531 -10 8 C-8.1771376 3.8284495 -4.90446377 0 0 0 Z " fill="#FEAE4E" transform="translate(43,28)"/>
<path d="M0 0 C2.64 0 5.28 0 8 0 C8.33 0.99 8.66 1.98 9 3 C6.03 2.67 3.06 2.34 0 2 C0 1.34 0 0.68 0 0 Z " fill="#FEAB44" transform="translate(319,116)"/>
</svg>
