<?xml version="1.0" encoding="UTF-8"?>
<svg version="1.1" xmlns="http://www.w3.org/2000/svg" width="131" height="78">
<path d="M0 0 C43.23 0 86.46 0 131 0 C131 25.74 131 51.48 131 78 C87.77 78 44.54 78 0 78 C0 52.26 0 26.52 0 0 Z " fill="#FEFDFC" transform="translate(0,0)"/>
<path d="M0 0 C3.89482915 0.29146343 5.8642869 1.36962363 8.56176758 4.12353516 C9.21627396 4.78157135 9.87078033 5.43960754 10.54512024 6.11758423 C11.58432869 7.19246597 11.58432869 7.19246597 12.64453125 8.2890625 C13.37314865 9.02571136 14.10176605 9.76236023 14.85246277 10.52133179 C17.18210496 12.87995958 19.49774485 15.25176834 21.8125 17.625 C24.11900555 19.97424098 26.42837771 22.32058877 28.74040222 24.66439819 C30.17672778 26.12212987 31.60950871 27.58336608 33.03804016 29.04873657 C36.96614113 33.05366636 41.00138568 36.84631406 45.26420593 40.4940033 C47.61873818 42.536825 49.8136439 44.71698208 52 46.9375 C52.763125 47.70964844 53.52625 48.48179688 54.3125 49.27734375 C54.869375 49.84582031 55.42625 50.41429687 56 51 C60.09772657 49.39017885 62.76485294 46.42394174 65.75 43.3125 C68.88796157 40.06246837 72.04326365 36.92616462 75.48828125 34 C81.45303761 28.84654738 86.95007062 23.19884086 92.51147461 17.61889648 C94.45377265 15.67118197 96.4014314 13.7289407 98.34960938 11.78710938 C99.58625875 10.54980017 100.82259842 9.31218132 102.05859375 8.07421875 C102.64080185 7.49403488 103.22300995 6.91385101 103.82286072 6.31608582 C106.77271086 3.43175555 106.77271086 3.43175555 109 0 C111.375 -0.125 111.375 -0.125 114 0 C114.99 0.99 114.99 0.99 116 2 C115.67370771 5.36855596 114.33185799 7.03348623 111.96826172 9.35644531 C111.33024628 9.99100647 110.69223083 10.62556763 110.03488159 11.27935791 C109.34016754 11.95545105 108.64545349 12.63154419 107.9296875 13.328125 C107.21523468 14.0359613 106.50078186 14.74379761 105.76467896 15.4730835 C103.47509693 17.73925249 101.17564114 19.99506377 98.875 22.25 C96.59746529 24.49228025 94.32213874 26.7367353 92.04959106 28.98406982 C90.63593261 30.38098491 89.21918979 31.77478833 87.79879761 33.16485596 C83.8564693 37.04862137 80.12920058 41.04854695 76.51641846 45.24066162 C73.61104751 48.61145324 70.53684643 51.80865659 67.4375 55 C66.80392578 55.67933594 66.17035156 56.35867187 65.51757812 57.05859375 C64.89173828 57.69925781 64.26589844 58.33992188 63.62109375 59 C63.0686499 59.5775 62.51620605 60.155 61.94702148 60.75 C59.10293255 62.57592293 57.33897362 62.40115618 54 62 C51.81755513 60.40034045 50.1447256 58.94721268 48.28588867 57.03051758 C47.75017242 56.50210266 47.21445618 55.97368774 46.6625061 55.42926025 C44.89920894 53.6821484 43.15851596 51.91428653 41.41796875 50.14453125 C40.19684853 48.92237349 38.97469033 47.70125202 37.75154114 46.48112488 C35.19270664 43.92211105 32.64451485 41.35308538 30.10375977 38.77612305 C26.8477608 35.47474927 23.57007863 32.19598029 20.28458691 28.92398548 C17.75904925 26.40513351 15.24359813 23.87640478 12.73125648 21.34439659 C11.52625682 20.13170316 10.31855404 18.92168949 9.10811424 17.71442604 C7.4176928 16.02474706 5.74086685 14.32265023 4.06713867 12.61645508 C3.5658696 12.12014084 3.06460052 11.6238266 2.54814148 11.11247253 C-0.24116361 8.23639482 -1.89524613 6.08562044 -2 2 C-1.34 1.34 -0.68 0.68 0 0 Z " fill="#E78745" transform="translate(6,10)"/>
</svg>
