<?xml version="1.0" encoding="UTF-8"?>
<svg version="1.1" xmlns="http://www.w3.org/2000/svg" width="166" height="140">
<path d="M0 0 C0.94875 0.268125 1.8975 0.53625 2.875 0.8125 C4.12774723 3.31799445 3.99529624 5.00985632 3.98852539 7.81298828 C3.98841209 9.37438034 3.98841209 9.37438034 3.98829651 10.96731567 C3.98313522 12.09442963 3.97797394 13.22154358 3.97265625 14.3828125 C3.9712413 15.53417694 3.96982635 16.68554138 3.96836853 17.87179565 C3.96275716 21.56038986 3.9502027 25.24892405 3.9375 28.9375 C3.93248647 31.43359288 3.92792331 33.9296867 3.92382812 36.42578125 C3.91278403 42.55470809 3.8960348 48.68359976 3.875 54.8125 C4.5323262 54.80139694 5.1896524 54.79029388 5.86689758 54.77885437 C12.69587646 54.66841038 19.52460257 54.59289472 26.35424805 54.5378418 C28.90448304 54.51266592 31.45464566 54.47852295 34.00463867 54.43530273 C37.66603424 54.37478968 41.32647768 54.34632036 44.98828125 54.32421875 C46.1321077 54.29841232 47.27593414 54.2726059 48.454422 54.24601746 C49.51529526 54.2456398 50.57616852 54.24526215 51.66918945 54.24487305 C52.60406693 54.23376999 53.5389444 54.22266693 54.50215149 54.21122742 C56.875 54.8125 56.875 54.8125 58.70036316 57.34797668 C59.08799332 58.16126938 59.47562347 58.97456207 59.875 59.8125 C58.70043945 61.77441406 58.70043945 61.77441406 56.875 63.8125 C54.49682617 64.35839844 54.49682617 64.35839844 51.66796875 64.421875 C50.61633545 64.4542627 49.56470215 64.48665039 48.48120117 64.52001953 C47.35302979 64.53403809 46.2248584 64.54805664 45.0625 64.5625 C43.33060425 64.60479736 43.33060425 64.60479736 41.5637207 64.64794922 C38.00075797 64.72654578 34.43860367 64.77397989 30.875 64.8125 C29.78703125 64.82764648 28.6990625 64.84279297 27.578125 64.85839844 C24.57285205 64.89671193 21.56797252 64.92214114 18.5625 64.9375 C17.65717529 64.94233398 16.75185059 64.94716797 15.8190918 64.95214844 C14.97515869 64.94989258 14.13122559 64.94763672 13.26171875 64.9453125 C12.53170654 64.94418457 11.80169434 64.94305664 11.04956055 64.94189453 C8.59069571 64.79558283 6.28407011 64.31377218 3.875 63.8125 C3.88610306 64.4698262 3.89720612 65.1271524 3.90864563 65.80439758 C4.01908962 72.63337646 4.09460528 79.46210257 4.1496582 86.29174805 C4.17483408 88.84198304 4.20897705 91.39214566 4.25219727 93.94213867 C4.31271032 97.60353424 4.34117964 101.26397768 4.36328125 104.92578125 C4.38908768 106.0696077 4.4148941 107.21343414 4.44148254 108.391922 C4.4418602 109.45279526 4.44223785 110.51366852 4.44262695 111.60668945 C4.45373001 112.54156693 4.46483307 113.4764444 4.47627258 114.43965149 C3.875 116.8125 3.875 116.8125 1.48014832 118.68083191 C-1.125 119.8125 -1.125 119.8125 -3.375 119.125 C-5.125 117.8125 -5.125 117.8125 -6.125 115.8125 C-6.24372573 114.17914808 -6.30209092 112.54122646 -6.33032227 110.90380859 C-6.3602401 109.37244766 -6.3602401 109.37244766 -6.39076233 107.81015015 C-6.40747482 106.70490997 -6.42418732 105.5996698 -6.44140625 104.4609375 C-6.46218735 103.3317691 -6.48296844 102.20260071 -6.50437927 101.03921509 C-6.56991335 97.42204028 -6.62877774 93.80479119 -6.6875 90.1875 C-6.73068154 87.73957556 -6.77429571 85.29165872 -6.81835938 82.84375 C-6.92559867 76.8334125 -7.02735787 70.82300065 -7.125 64.8125 C-7.72777267 64.81916183 -8.33054535 64.82582367 -8.95158386 64.83268738 C-15.22946841 64.89909636 -21.50725303 64.94432377 -27.78540039 64.97729492 C-30.12788954 64.99237428 -32.4703505 65.01284078 -34.81274414 65.03881836 C-38.18122317 65.07523821 -41.54932864 65.09223513 -44.91796875 65.10546875 C-46.48698189 65.12869453 -46.48698189 65.12869453 -48.08769226 65.15238953 C-57.40626308 65.15454274 -57.40626308 65.15454274 -61.125 61.8125 C-61.5625 59.25 -61.5625 59.25 -61.125 56.8125 C-59.125 54.8125 -59.125 54.8125 -56.87240601 54.57199097 C-55.46675888 54.5786528 -55.46675888 54.5786528 -54.03271484 54.58544922 C-52.97176605 54.58560028 -51.91081726 54.58575134 -50.81771851 54.58590698 C-49.66873077 54.59622955 -48.51974304 54.60655212 -47.3359375 54.6171875 C-46.16237701 54.6200174 -44.98881653 54.62284729 -43.7796936 54.62576294 C-40.01969338 54.63698645 -36.25992861 54.66209508 -32.5 54.6875 C-29.9557326 54.69752699 -27.41146148 54.70665332 -24.8671875 54.71484375 C-18.6197109 54.73693286 -12.37237227 54.77043176 -6.125 54.8125 C-6.13166183 54.16770187 -6.13832367 53.52290375 -6.14518738 52.85856628 C-6.21145798 46.15926083 -6.25676618 39.46004819 -6.28979492 32.76049805 C-6.30489944 30.25883198 -6.32538429 27.75719247 -6.35131836 25.25561523 C-6.38762775 21.66383316 -6.40470975 18.07240059 -6.41796875 14.48046875 C-6.44119453 12.79753975 -6.44119453 12.79753975 -6.46488953 11.08061218 C-6.46511612 10.03975967 -6.46534271 8.99890717 -6.46557617 7.92651367 C-6.47223801 7.00940109 -6.47889984 6.09228851 -6.48576355 5.14738464 C-6.125 2.8125 -6.125 2.8125 -4.79902649 0.9811554 C-3.125 -0.1875 -3.125 -0.1875 0 0 Z " fill="#FAF3F2" transform="translate(80.125,3.1875)"/>
<path d="M0 0 C0.94875 0.268125 1.8975 0.53625 2.875 0.8125 C4.12774723 3.31799445 3.99529624 5.00985632 3.98852539 7.81298828 C3.98840454 8.86848877 3.98828369 9.92398926 3.98815918 11.01147461 C3.98304321 12.12401611 3.97792725 13.23655762 3.97265625 14.3828125 C3.97164917 15.4030249 3.97064209 16.4232373 3.96960449 17.47436523 C3.96436163 21.29542155 3.95040043 25.11646187 3.9375 28.9375 C3.916875 37.47625 3.89625 46.015 3.875 54.8125 C21.365 54.8125 38.855 54.8125 56.875 54.8125 C56.875 55.1425 56.875 55.4725 56.875 55.8125 C38.725 55.8125 20.575 55.8125 1.875 55.8125 C1.545 54.8225 1.215 53.8325 0.875 52.8125 C1.37 51.8225 1.37 51.8225 1.875 50.8125 C0.225 50.8125 -1.425 50.8125 -3.125 50.8125 C-3.455 52.4625 -3.785 54.1125 -4.125 55.8125 C-21.615 56.1425 -39.105 56.4725 -57.125 56.8125 C-57.455 58.7925 -57.785 60.7725 -58.125 62.8125 C-57.13234886 62.80916908 -57.13234886 62.80916908 -56.11964417 62.80577087 C-49.2583978 62.78372035 -42.39716143 62.76859438 -35.53588867 62.75756836 C-32.97208243 62.7525263 -30.40827909 62.74569286 -27.84448242 62.73706055 C-24.16844979 62.72498936 -20.49245502 62.71927058 -16.81640625 62.71484375 C-15.66225723 62.70968246 -14.50810822 62.70452118 -13.31898499 62.69920349 C-11.7274485 62.69909019 -11.7274485 62.69909019 -10.10375977 62.69897461 C-8.69478172 62.69564369 -8.69478172 62.69564369 -7.25733948 62.69224548 C-5.125 62.8125 -5.125 62.8125 -4.125 63.8125 C-4.03159566 65.43924778 -4.00754829 67.07004051 -4.01147461 68.69946289 C-4.01155014 69.74046646 -4.01162567 70.78147003 -4.01170349 71.85401917 C-4.01686478 72.9862944 -4.02202606 74.11856964 -4.02734375 75.28515625 C-4.0287587 76.43793564 -4.03017365 77.59071503 -4.03163147 78.77842712 C-4.03724995 82.47731064 -4.04980558 86.17613464 -4.0625 89.875 C-4.06751262 92.37565017 -4.07207594 94.87630129 -4.07617188 97.37695312 C-4.08722538 103.52215588 -4.10398148 109.66732369 -4.125 115.8125 C-2.145 115.8125 -0.165 115.8125 1.875 115.8125 C1.87277939 115.2222554 1.87055878 114.6320108 1.86827087 114.02388 C1.84613215 107.87570807 1.8310575 101.72754747 1.82006836 95.5793457 C1.81504239 93.28539571 1.80822062 90.99144892 1.79956055 88.69750977 C1.78741904 85.39859222 1.78175428 82.09971707 1.77734375 78.80078125 C1.77218246 77.77664627 1.76702118 76.75251129 1.76170349 75.69734192 C1.76162796 74.73672348 1.76155243 73.77610504 1.76147461 72.78637695 C1.759254 71.94476517 1.75703339 71.10315338 1.75474548 70.23603821 C1.875 67.8125 1.875 67.8125 2.875 62.8125 C20.695 62.8125 38.515 62.8125 56.875 62.8125 C56.875 63.1425 56.875 63.4725 56.875 63.8125 C44.10727921 64.38770525 31.34485741 64.91131112 18.5625 64.9375 C17.65741699 64.94201172 16.75233398 64.94652344 15.81982422 64.95117188 C14.97564941 64.94923828 14.13147461 64.94730469 13.26171875 64.9453125 C12.53170654 64.94418457 11.80169434 64.94305664 11.04956055 64.94189453 C8.59069571 64.79558283 6.28407011 64.31377218 3.875 63.8125 C3.88610306 64.4698262 3.89720612 65.1271524 3.90864563 65.80439758 C4.01908962 72.63337646 4.09460528 79.46210257 4.1496582 86.29174805 C4.17483408 88.84198304 4.20897705 91.39214566 4.25219727 93.94213867 C4.31271032 97.60353424 4.34117964 101.26397768 4.36328125 104.92578125 C4.38908768 106.0696077 4.4148941 107.21343414 4.44148254 108.391922 C4.4418602 109.45279526 4.44223785 110.51366852 4.44262695 111.60668945 C4.45373001 112.54156693 4.46483307 113.4764444 4.47627258 114.43965149 C3.875 116.8125 3.875 116.8125 1.48014832 118.68083191 C-1.125 119.8125 -1.125 119.8125 -3.375 119.125 C-5.125 117.8125 -5.125 117.8125 -6.125 115.8125 C-6.24372573 114.17914808 -6.30209092 112.54122646 -6.33032227 110.90380859 C-6.3602401 109.37244766 -6.3602401 109.37244766 -6.39076233 107.81015015 C-6.40747482 106.70490997 -6.42418732 105.5996698 -6.44140625 104.4609375 C-6.46218735 103.3317691 -6.48296844 102.20260071 -6.50437927 101.03921509 C-6.56991335 97.42204028 -6.62877774 93.80479119 -6.6875 90.1875 C-6.73068154 87.73957556 -6.77429571 85.29165872 -6.81835938 82.84375 C-6.92559867 76.8334125 -7.02735787 70.82300065 -7.125 64.8125 C-7.72777267 64.81916183 -8.33054535 64.82582367 -8.95158386 64.83268738 C-15.22946841 64.89909636 -21.50725303 64.94432377 -27.78540039 64.97729492 C-30.12788954 64.99237428 -32.4703505 65.01284078 -34.81274414 65.03881836 C-38.18122317 65.07523821 -41.54932864 65.09223513 -44.91796875 65.10546875 C-46.48698189 65.12869453 -46.48698189 65.12869453 -48.08769226 65.15238953 C-57.40626308 65.15454274 -57.40626308 65.15454274 -61.125 61.8125 C-61.5625 59.25 -61.5625 59.25 -61.125 56.8125 C-59.125 54.8125 -59.125 54.8125 -56.87240601 54.57199097 C-55.46675888 54.5786528 -55.46675888 54.5786528 -54.03271484 54.58544922 C-52.97176605 54.58560028 -51.91081726 54.58575134 -50.81771851 54.58590698 C-49.66873077 54.59622955 -48.51974304 54.60655212 -47.3359375 54.6171875 C-46.16237701 54.6200174 -44.98881653 54.62284729 -43.7796936 54.62576294 C-40.01969338 54.63698645 -36.25992861 54.66209508 -32.5 54.6875 C-29.9557326 54.69752699 -27.41146148 54.70665332 -24.8671875 54.71484375 C-18.6197109 54.73693286 -12.37237227 54.77043176 -6.125 54.8125 C-6.13166183 54.16770187 -6.13832367 53.52290375 -6.14518738 52.85856628 C-6.21145798 46.15926083 -6.25676618 39.46004819 -6.28979492 32.76049805 C-6.30489944 30.25883198 -6.32538429 27.75719247 -6.35131836 25.25561523 C-6.38762775 21.66383316 -6.40470975 18.07240059 -6.41796875 14.48046875 C-6.44119453 12.79753975 -6.44119453 12.79753975 -6.46488953 11.08061218 C-6.46511612 10.03975967 -6.46534271 8.99890717 -6.46557617 7.92651367 C-6.47223801 7.00940109 -6.47889984 6.09228851 -6.48576355 5.14738464 C-6.125 2.8125 -6.125 2.8125 -4.79902649 0.9811554 C-3.125 -0.1875 -3.125 -0.1875 0 0 Z " fill="#F4E0D5" transform="translate(80.125,3.1875)"/>
<path d="M0 0 C1.65 0 3.3 0 5 0 C5 1.32 5 2.64 5 4 C7.50934299 5.2546715 9.28377355 5.15873558 12.09228516 5.20532227 C13.15323395 5.22526749 14.21418274 5.24521271 15.30728149 5.26576233 C16.45626923 5.28247482 17.60525696 5.29918732 18.7890625 5.31640625 C20.54940323 5.3475779 20.54940323 5.3475779 22.3453064 5.37937927 C26.10514304 5.44491983 29.86505122 5.50378076 33.625 5.5625 C36.16927832 5.60568092 38.71354933 5.64929507 41.2578125 5.69335938 C47.50513207 5.80060582 53.75252326 5.9023638 60 6 C60 7.32 60 8.64 60 10 C57.51644959 11.24177521 55.86892378 11.12036681 53.09130859 11.11352539 C52.07040131 11.11344986 51.04949402 11.11337433 49.99765015 11.11329651 C48.33978989 11.10555458 48.33978989 11.10555458 46.6484375 11.09765625 C45.5192691 11.0962413 44.39010071 11.09482635 43.22671509 11.09336853 C39.60945012 11.08775744 35.99224636 11.07520303 32.375 11.0625 C29.92708423 11.05748643 27.47916748 11.05292328 25.03125 11.04882812 C19.02081234 11.0377844 13.01041054 11.02103544 7 11 C7 10.01 7 9.02 7 8 C5.02 8 3.04 8 1 8 C1 9.32 1 10.64 1 12 C-16.82 11.67 -34.64 11.34 -53 11 C-53.33 9.68 -53.66 8.36 -54 7 C-50.99217389 6.13613342 -48.26472596 5.85224495 -45.13964844 5.79467773 C-44.17895447 5.77473251 -43.2182605 5.75478729 -42.22845459 5.73423767 C-41.19915833 5.71752518 -40.16986206 5.70081268 -39.109375 5.68359375 C-37.51974945 5.6524221 -37.51974945 5.6524221 -35.89801025 5.62062073 C-32.51540562 5.55527814 -29.13272388 5.49631119 -25.75 5.4375 C-23.45572122 5.39430025 -21.16145021 5.35068549 -18.8671875 5.30664062 C-13.24487298 5.1996124 -7.6224819 5.09781761 -2 5 C-1.34 3.35 -0.68 1.7 0 0 Z " fill="#F7F6FA" transform="translate(77,54)"/>
<path d="M0 0 C0.33 0 0.66 0 1 0 C1 17.49 1 34.98 1 53 C-16.16 53.33 -33.32 53.66 -51 54 C-51.33 55.98 -51.66 57.96 -52 60 C-51.00734886 59.99666908 -51.00734886 59.99666908 -49.99464417 59.99327087 C-43.1333978 59.97122035 -36.27216143 59.95609438 -29.41088867 59.94506836 C-26.84708243 59.9400263 -24.28327909 59.93319286 -21.71948242 59.92456055 C-18.04344979 59.91248936 -14.36745502 59.90677058 -10.69140625 59.90234375 C-9.53725723 59.89718246 -8.38310822 59.89202118 -7.19398499 59.88670349 C-5.6024485 59.88659019 -5.6024485 59.88659019 -3.97875977 59.88647461 C-2.56978172 59.88314369 -2.56978172 59.88314369 -1.13233948 59.87974548 C1 60 1 60 2 61 C2.09340434 62.62674778 2.11745171 64.25754051 2.11352539 65.88696289 C2.11344986 66.92796646 2.11337433 67.96897003 2.11329651 69.04151917 C2.10813522 70.1737944 2.10297394 71.30606964 2.09765625 72.47265625 C2.0962413 73.62543564 2.09482635 74.77821503 2.09336853 75.96592712 C2.08775005 79.66481064 2.07519442 83.36363464 2.0625 87.0625 C2.05748738 89.56315017 2.05292406 92.06380129 2.04882812 94.56445312 C2.03777462 100.70965588 2.02101852 106.85482369 2 113 C3.98 113 5.96 113 8 113 C7.99777939 112.4097554 7.99555878 111.8195108 7.99327087 111.21138 C7.97113215 105.06320807 7.9560575 98.91504747 7.94506836 92.7668457 C7.94004239 90.47289571 7.93322062 88.17894892 7.92456055 85.88500977 C7.91241904 82.58609222 7.90675428 79.28721707 7.90234375 75.98828125 C7.89718246 74.96414627 7.89202118 73.94001129 7.88670349 72.88484192 C7.88662796 71.92422348 7.88655243 70.96360504 7.88647461 69.97387695 C7.884254 69.13226517 7.88203339 68.29065338 7.87974548 67.42353821 C8 65 8 65 9 60 C26.82 60 44.64 60 63 60 C63 60.33 63 60.66 63 61 C50.23227921 61.57520525 37.46985741 62.09881112 24.6875 62.125 C23.78241699 62.12951172 22.87733398 62.13402344 21.94482422 62.13867188 C21.10064941 62.13673828 20.25647461 62.13480469 19.38671875 62.1328125 C18.65670654 62.13168457 17.92669434 62.13055664 17.17456055 62.12939453 C14.71569571 61.98308283 12.40907011 61.50127218 10 61 C10.01110306 61.6573262 10.02220612 62.3146524 10.03364563 62.99189758 C10.14408962 69.82087646 10.21960528 76.64960257 10.2746582 83.47924805 C10.29983408 86.02948304 10.33397705 88.57964566 10.37719727 91.12963867 C10.43771032 94.79103424 10.46617964 98.45147768 10.48828125 102.11328125 C10.51408768 103.2571077 10.5398941 104.40093414 10.56648254 105.579422 C10.5668602 106.64029526 10.56723785 107.70116852 10.56762695 108.79418945 C10.57873001 109.72906693 10.58983307 110.6639444 10.60127258 111.62715149 C10 114 10 114 7.60514832 115.86833191 C5 117 5 117 2.75 116.3125 C1 115 1 115 0 113 C-0.11872573 111.36664808 -0.17709092 109.72872646 -0.20532227 108.09130859 C-0.2352401 106.55994766 -0.2352401 106.55994766 -0.26576233 104.99765015 C-0.28247482 103.89240997 -0.29918732 102.7871698 -0.31640625 101.6484375 C-0.33718735 100.5192691 -0.35796844 99.39010071 -0.37937927 98.22671509 C-0.44491335 94.60954028 -0.50377774 90.99229119 -0.5625 87.375 C-0.60568154 84.92707556 -0.64929571 82.47915872 -0.69335938 80.03125 C-0.80059867 74.0209125 -0.90235787 68.01050065 -1 62 C-1.60277267 62.00666183 -2.20554535 62.01332367 -2.82658386 62.02018738 C-9.10446841 62.08659636 -15.38225303 62.13182377 -21.66040039 62.16479492 C-24.00288954 62.17987428 -26.3453505 62.20034078 -28.68774414 62.22631836 C-32.05622317 62.26273821 -35.42432864 62.27973513 -38.79296875 62.29296875 C-40.36198189 62.31619453 -40.36198189 62.31619453 -41.96269226 62.33988953 C-51.28126308 62.34204274 -51.28126308 62.34204274 -55 59 C-55.4375 56.4375 -55.4375 56.4375 -55 54 C-53 52 -53 52 -50.74740601 51.75949097 C-49.34175888 51.7661528 -49.34175888 51.7661528 -47.90771484 51.77294922 C-46.84676605 51.77310028 -45.78581726 51.77325134 -44.69271851 51.77340698 C-43.54373077 51.78372955 -42.39474304 51.79405212 -41.2109375 51.8046875 C-40.03737701 51.8075174 -38.86381653 51.81034729 -37.6546936 51.81326294 C-33.89469338 51.82448645 -30.13492861 51.84959508 -26.375 51.875 C-23.8307326 51.88502699 -21.28646148 51.89415332 -18.7421875 51.90234375 C-12.49462728 51.92273396 -6.24757818 51.96187918 0 52 C0 34.84 0 17.68 0 0 Z " fill="#F2C89F" transform="translate(74,6)"/>
<path d="M0 0 C0.33 0 0.66 0 1 0 C1 17.49 1 34.98 1 53 C-16.16 53.33 -33.32 53.66 -51 54 C-51.33 55.98 -51.66 57.96 -52 60 C-34.51 60 -17.02 60 1 60 C1 77.49 1 94.98 1 113 C0.67 113 0.34 113 0 113 C-0.33 96.17 -0.66 79.34 -1 62 C-16.90091069 62.11860735 -16.90091069 62.11860735 -32.80151367 62.27026367 C-34.79866048 62.27902759 -36.79581264 62.28667175 -38.79296875 62.29296875 C-39.82538696 62.30831665 -40.85780518 62.32366455 -41.92150879 62.33947754 C-51.28032003 62.34289026 -51.28032003 62.34289026 -55 59 C-55.4375 56.4375 -55.4375 56.4375 -55 54 C-53 52 -53 52 -50.74740601 51.75949097 C-49.34175888 51.7661528 -49.34175888 51.7661528 -47.90771484 51.77294922 C-46.84676605 51.77310028 -45.78581726 51.77325134 -44.69271851 51.77340698 C-43.54373077 51.78372955 -42.39474304 51.79405212 -41.2109375 51.8046875 C-40.03737701 51.8075174 -38.86381653 51.81034729 -37.6546936 51.81326294 C-33.89469338 51.82448645 -30.13492861 51.84959508 -26.375 51.875 C-23.8307326 51.88502699 -21.28646148 51.89415332 -18.7421875 51.90234375 C-12.49462728 51.92273396 -6.24757818 51.96187918 0 52 C0 34.84 0 17.68 0 0 Z " fill="#E09F73" transform="translate(74,6)"/>
<path d="M0 0 C17.82 0 35.64 0 54 0 C54.66 1.32 55.32 2.64 56 4 C55.01 4.99 54.02 5.98 53 7 C53 5.02 53 3.04 53 1 C35.51 1 18.02 1 0 1 C0 0.67 0 0.34 0 0 Z " fill="#FBE4D3" transform="translate(84,59)"/>
<path d="M0 0 C0.99 0.33 1.98 0.66 3 1 C2.67 2.65 2.34 4.3 2 6 C1.01 6 0.02 6 -1 6 C-1.042721 4.33388095 -1.04063832 2.66617115 -1 1 C-0.67 0.67 -0.34 0.34 0 0 Z " fill="#EABB97" transform="translate(20,59)"/>
<path d="M0 0 C1.32 0 2.64 0 4 0 C4.33 1.32 4.66 2.64 5 4 C3.35 4 1.7 4 0 4 C0 2.68 0 1.36 0 0 Z " fill="#F1F7FE" transform="translate(86,61)"/>
</svg>
