<?xml version="1.0" encoding="UTF-8"?>
<!DOCTYPE svg PUBLIC "-//W3C//DTD SVG 1.1//EN" "http://www.w3.org/Graphics/SVG/1.1/DTD/svg11.dtd">
<svg xmlns="http://www.w3.org/2000/svg" version="1.1" width="78px" height="65px" style="shape-rendering:geometricPrecision; text-rendering:geometricPrecision; image-rendering:optimizeQuality; fill-rule:evenodd; clip-rule:evenodd" xmlns:xlink="http://www.w3.org/1999/xlink">
<g><path style="opacity:0.827" fill="#e7b692" d="M 47.5,2.5 C 47.5,2.83333 47.5,3.16667 47.5,3.5C 47.5,3.83333 47.5,4.16667 47.5,4.5C 46.609,5.10978 45.609,5.44312 44.5,5.5C 45.1667,4.16667 46.1667,3.16667 47.5,2.5 Z"/></g>
<g><path style="opacity:1" fill="#da8a57" d="M 47.5,4.5 C 47.5,4.16667 47.5,3.83333 47.5,3.5C 48.8333,3.5 49.5,4.16667 49.5,5.5C 49.5,6.16667 49.1667,6.5 48.5,6.5C 48.6716,5.50838 48.3382,4.84171 47.5,4.5 Z"/></g>
<g><path style="opacity:0.898" fill="#e1b08f" d="M 50.5,5.5 C 50.1667,5.5 49.8333,5.5 49.5,5.5C 49.5,4.16667 48.8333,3.5 47.5,3.5C 47.5,3.16667 47.5,2.83333 47.5,2.5C 48.2506,1.42654 49.2506,1.25988 50.5,2C 51.7911,3.29167 51.7911,4.45834 50.5,5.5 Z"/></g>
<g><path style="opacity:1" fill="#d78952" d="M 47.5,4.5 C 48.3382,4.84171 48.6716,5.50838 48.5,6.5C 48.5,6.83333 48.5,7.16667 48.5,7.5C 47.8333,7.83333 47.1667,8.16667 46.5,8.5C 46.5,7.16667 45.8333,6.5 44.5,6.5C 44.5,6.16667 44.5,5.83333 44.5,5.5C 45.609,5.44312 46.609,5.10978 47.5,4.5 Z"/></g>
<g><path style="opacity:0.949" fill="#ebbc96" d="M 44.5,5.5 C 44.5,5.83333 44.5,6.16667 44.5,6.5C 44.5,7.16667 44.1667,7.5 43.5,7.5C 43.1667,7.5 42.8333,7.5 42.5,7.5C 42.8333,6.5 43.5,5.83333 44.5,5.5 Z"/></g>
<g><path style="opacity:0.004" fill="#ffefe1" d="M 49.5,5.5 C 49.8333,5.5 50.1667,5.5 50.5,5.5C 50.6716,6.49162 50.3382,7.15829 49.5,7.5C 49.1667,7.5 48.8333,7.5 48.5,7.5C 48.5,7.16667 48.5,6.83333 48.5,6.5C 49.1667,6.5 49.5,6.16667 49.5,5.5 Z"/></g>
<g><path style="opacity:1" fill="#d9884d" d="M 44.5,6.5 C 45.8333,6.5 46.5,7.16667 46.5,8.5C 46.5,8.83333 46.5,9.16667 46.5,9.5C 45.8333,9.83333 45.1667,10.1667 44.5,10.5C 44.6716,9.50838 44.3382,8.84171 43.5,8.5C 43.5,8.16667 43.5,7.83333 43.5,7.5C 44.1667,7.5 44.5,7.16667 44.5,6.5 Z"/></g>
<g><path style="opacity:0.945" fill="#ebb287" d="M 42.5,7.5 C 42.8333,7.5 43.1667,7.5 43.5,7.5C 43.5,7.83333 43.5,8.16667 43.5,8.5C 42.8333,8.83333 42.1667,9.16667 41.5,9.5C 41.1667,9.5 40.8333,9.5 40.5,9.5C 40.8333,8.5 41.5,7.83333 42.5,7.5 Z"/></g>
<g><path style="opacity:0.008" fill="#fff5eb" d="M 48.5,7.5 C 48.8333,7.5 49.1667,7.5 49.5,7.5C 49.1667,8.5 48.5,9.16667 47.5,9.5C 47.1667,9.5 46.8333,9.5 46.5,9.5C 46.5,9.16667 46.5,8.83333 46.5,8.5C 47.1667,8.16667 47.8333,7.83333 48.5,7.5 Z"/></g>
<g><path style="opacity:1" fill="#de8f54" d="M 43.5,8.5 C 44.3382,8.84171 44.6716,9.50838 44.5,10.5C 44.1667,11.1667 43.8333,11.8333 43.5,12.5C 43.5,13.1667 43.1667,13.5 42.5,13.5C 42.5,12.1667 41.8333,11.5 40.5,11.5C 40.8333,10.8333 41.1667,10.1667 41.5,9.5C 42.1667,9.16667 42.8333,8.83333 43.5,8.5 Z"/></g>
<g><path style="opacity:0.922" fill="#eab087" d="M 40.5,9.5 C 40.8333,9.5 41.1667,9.5 41.5,9.5C 41.1667,10.1667 40.8333,10.8333 40.5,11.5C 39.609,12.1098 38.609,12.4431 37.5,12.5C 38.1667,11.1667 39.1667,10.1667 40.5,9.5 Z"/></g>
<g><path style="opacity:0.004" fill="#fff6eb" d="M 46.5,9.5 C 46.8333,9.5 47.1667,9.5 47.5,9.5C 46.7377,11.2624 45.4044,12.2624 43.5,12.5C 43.8333,11.8333 44.1667,11.1667 44.5,10.5C 45.1667,10.1667 45.8333,9.83333 46.5,9.5 Z"/></g>
<g><path style="opacity:1" fill="#e19963" d="M 40.5,11.5 C 41.8333,11.5 42.5,12.1667 42.5,13.5C 41.8333,14.8333 40.8333,15.8333 39.5,16.5C 39.5,15.1667 38.8333,14.5 37.5,14.5C 37.5,13.8333 37.5,13.1667 37.5,12.5C 38.609,12.4431 39.609,12.1098 40.5,11.5 Z"/></g>
<g><path style="opacity:0.894" fill="#e6b691" d="M 37.5,12.5 C 37.5,13.1667 37.5,13.8333 37.5,14.5C 36.8333,14.5 36.5,14.8333 36.5,15.5C 35.8333,15.5 35.1667,15.5 34.5,15.5C 35.1667,14.1667 36.1667,13.1667 37.5,12.5 Z"/></g>
<g><path style="opacity:1" fill="#e29c69" d="M 36.5,15.5 C 36.5,14.8333 36.8333,14.5 37.5,14.5C 38.8333,14.5 39.5,15.1667 39.5,16.5C 39.1667,17.5 38.5,18.1667 37.5,18.5C 37.5,18.1667 37.5,17.8333 37.5,17.5C 37.6716,16.5084 37.3382,15.8417 36.5,15.5 Z"/></g>
<g><path style="opacity:1" fill="#e18642" d="M 34.5,15.5 C 35.1667,15.5 35.8333,15.5 36.5,15.5C 37.3382,15.8417 37.6716,16.5084 37.5,17.5C 36.5,17.5 35.5,17.5 34.5,17.5C 34.5,16.8333 34.5,16.1667 34.5,15.5 Z"/></g>
<g><path style="opacity:0.875" fill="#edb994" d="M 34.5,15.5 C 34.5,16.1667 34.5,16.8333 34.5,17.5C 34.1667,17.5 33.8333,17.5 33.5,17.5C 33.1667,17.5 32.8333,17.5 32.5,17.5C 32.8333,16.5 33.5,15.8333 34.5,15.5 Z"/></g>
<g><path style="opacity:1" fill="#e4a275" d="M 33.5,18.5 C 33.5,18.1667 33.5,17.8333 33.5,17.5C 33.8333,17.5 34.1667,17.5 34.5,17.5C 35.5,17.5 36.5,17.5 37.5,17.5C 37.5,17.8333 37.5,18.1667 37.5,18.5C 36.8333,19.8333 35.8333,20.8333 34.5,21.5C 34.7373,20.209 34.404,19.209 33.5,18.5 Z"/></g>
<g><path style="opacity:1" fill="#d9854d" d="M 32.5,19.5 C 32.5,18.8333 32.8333,18.5 33.5,18.5C 34.404,19.209 34.7373,20.209 34.5,21.5C 34.1667,21.5 33.8333,21.5 33.5,21.5C 33.6716,20.5084 33.3382,19.8417 32.5,19.5 Z"/></g>
<g><path style="opacity:0.878" fill="#e9b185" d="M 32.5,17.5 C 32.8333,17.5 33.1667,17.5 33.5,17.5C 33.5,17.8333 33.5,18.1667 33.5,18.5C 32.8333,18.5 32.5,18.8333 32.5,19.5C 31.8333,19.5 31.5,19.8333 31.5,20.5C 31.1667,20.5 30.8333,20.5 30.5,20.5C 30.1667,20.5 29.8333,20.5 29.5,20.5C 30.1667,19.1667 31.1667,18.1667 32.5,17.5 Z"/></g>
<g><path style="opacity:1" fill="#e4843e" d="M 32.5,19.5 C 33.3382,19.8417 33.6716,20.5084 33.5,21.5C 32.5084,21.6716 31.8417,21.3382 31.5,20.5C 31.5,19.8333 31.8333,19.5 32.5,19.5 Z"/></g>
<g><path style="opacity:0.878" fill="#e3b28a" d="M 29.5,20.5 C 29.8333,20.5 30.1667,20.5 30.5,20.5C 30.5,20.8333 30.5,21.1667 30.5,21.5C 29.5,21.8333 28.8333,22.5 28.5,23.5C 28.1667,23.5 27.8333,23.5 27.5,23.5C 27.1667,23.5 26.8333,23.5 26.5,23.5C 27.1667,22.1667 28.1667,21.1667 29.5,20.5 Z"/></g>
<g><path style="opacity:1" fill="#eaa879" d="M 30.5,20.5 C 30.8333,20.5 31.1667,20.5 31.5,20.5C 31.8417,21.3382 32.5084,21.6716 33.5,21.5C 33.8333,21.5 34.1667,21.5 34.5,21.5C 33.8333,22.8333 32.8333,23.8333 31.5,24.5C 31.4431,23.391 31.1098,22.391 30.5,21.5C 30.5,21.1667 30.5,20.8333 30.5,20.5 Z"/></g>
<g><path style="opacity:1" fill="#e09a68" d="M 30.5,21.5 C 31.1098,22.391 31.4431,23.391 31.5,24.5C 31.1667,25.5 30.5,26.1667 29.5,26.5C 29.7373,25.209 29.404,24.209 28.5,23.5C 28.8333,22.5 29.5,21.8333 30.5,21.5 Z"/></g>
<g><path style="opacity:0.875" fill="#e3a579" d="M 26.5,23.5 C 26.8333,23.5 27.1667,23.5 27.5,23.5C 27.5,23.8333 27.5,24.1667 27.5,24.5C 26.8333,24.5 26.5,24.8333 26.5,25.5C 26.1667,25.5 25.8333,25.5 25.5,25.5C 25.5,25.1667 25.5,24.8333 25.5,24.5C 25.5,23.8333 25.8333,23.5 26.5,23.5 Z"/></g>
<g><path style="opacity:1" fill="#e29762" d="M 27.5,24.5 C 27.5,24.1667 27.5,23.8333 27.5,23.5C 27.8333,23.5 28.1667,23.5 28.5,23.5C 29.404,24.209 29.7373,25.209 29.5,26.5C 29.5,27.1667 29.1667,27.5 28.5,27.5C 28.7373,26.209 28.404,25.209 27.5,24.5 Z"/></g>
<g><path style="opacity:1" fill="#dd844b" d="M 26.5,25.5 C 26.5,24.8333 26.8333,24.5 27.5,24.5C 28.404,25.209 28.7373,26.209 28.5,27.5C 28.1667,27.5 27.8333,27.5 27.5,27.5C 27.6716,26.5084 27.3382,25.8417 26.5,25.5 Z"/></g>
<g><path style="opacity:0.902" fill="#efbb92" d="M 25.5,24.5 C 25.5,24.8333 25.5,25.1667 25.5,25.5C 25.5,25.8333 25.5,26.1667 25.5,26.5C 25.1667,26.5 24.8333,26.5 24.5,26.5C 24.1667,26.5 23.8333,26.5 23.5,26.5C 23.8333,25.5 24.5,24.8333 25.5,24.5 Z"/></g>
<g><path style="opacity:1" fill="#e28444" d="M 25.5,25.5 C 25.8333,25.5 26.1667,25.5 26.5,25.5C 27.3382,25.8417 27.6716,26.5084 27.5,27.5C 26.5084,27.6716 25.8417,27.3382 25.5,26.5C 25.5,26.1667 25.5,25.8333 25.5,25.5 Z"/></g>
<g><path style="opacity:0.941" fill="#e5b68d" d="M 23.5,26.5 C 23.8333,26.5 24.1667,26.5 24.5,26.5C 24.5,26.8333 24.5,27.1667 24.5,27.5C 23.8333,27.8333 23.1667,28.1667 22.5,28.5C 22.1667,28.5 21.8333,28.5 21.5,28.5C 21.8333,27.5 22.5,26.8333 23.5,26.5 Z"/></g>
<g><path style="opacity:1" fill="#e59d67" d="M 24.5,26.5 C 24.8333,26.5 25.1667,26.5 25.5,26.5C 25.8417,27.3382 26.5084,27.6716 27.5,27.5C 27.8333,27.5 28.1667,27.5 28.5,27.5C 28.1667,28.5 27.5,29.1667 26.5,29.5C 25.6618,29.8417 25.3284,30.5084 25.5,31.5C 25.1667,31.5 24.8333,31.5 24.5,31.5C 24.5,30.1667 24.5,28.8333 24.5,27.5C 24.5,27.1667 24.5,26.8333 24.5,26.5 Z"/></g>
<g><path style="opacity:1" fill="#db854a" d="M 24.5,27.5 C 24.5,28.8333 24.5,30.1667 24.5,31.5C 23.8333,31.1667 23.1667,30.8333 22.5,30.5C 22.5,29.8333 22.5,29.1667 22.5,28.5C 23.1667,28.1667 23.8333,27.8333 24.5,27.5 Z"/></g>
<g><path style="opacity:0.945" fill="#e5bd9d" d="M 21.5,28.5 C 21.5,30.1667 21.5,31.8333 21.5,33.5C 18.8333,31.8333 18.8333,30.1667 21.5,28.5 Z"/></g>
<g><path style="opacity:1" fill="#d78855" d="M 21.5,28.5 C 21.8333,28.5 22.1667,28.5 22.5,28.5C 22.5,29.1667 22.5,29.8333 22.5,30.5C 22.5569,31.609 22.8902,32.609 23.5,33.5C 22.8333,33.5 22.1667,33.5 21.5,33.5C 21.5,31.8333 21.5,30.1667 21.5,28.5 Z"/></g>
<g><path style="opacity:1" fill="#e48344" d="M 22.5,30.5 C 23.1667,30.8333 23.8333,31.1667 24.5,31.5C 24.8333,31.5 25.1667,31.5 25.5,31.5C 25.5,32.1667 25.5,32.8333 25.5,33.5C 24.8333,33.5 24.1667,33.5 23.5,33.5C 22.8902,32.609 22.5569,31.609 22.5,30.5 Z"/></g>
<g><path style="opacity:1" fill="#ecbb95" d="M 26.5,29.5 C 26.4326,30.9587 26.7659,32.2921 27.5,33.5C 26.8333,33.5 26.1667,33.5 25.5,33.5C 25.5,32.8333 25.5,32.1667 25.5,31.5C 25.3284,30.5084 25.6618,29.8417 26.5,29.5 Z"/></g>
<g><path style="opacity:1" fill="#ebc3a3" d="M 21.5,33.5 C 22.1667,33.5 22.8333,33.5 23.5,33.5C 23.5,34.1667 23.5,34.8333 23.5,35.5C 22.5,35.1667 21.8333,34.5 21.5,33.5 Z"/></g>
<g><path style="opacity:1" fill="#d98852" d="M 23.5,33.5 C 24.1667,33.5 24.8333,33.5 25.5,33.5C 26.1667,33.5 26.8333,33.5 27.5,33.5C 27.5,33.8333 27.5,34.1667 27.5,34.5C 26.5084,34.3284 25.8417,34.6618 25.5,35.5C 24.8333,35.5 24.1667,35.5 23.5,35.5C 23.5,34.8333 23.5,34.1667 23.5,33.5 Z"/></g>
<g><path style="opacity:1" fill="#dd8750" d="M 27.5,34.5 C 27.5,34.8333 27.5,35.1667 27.5,35.5C 26.4937,35.9377 26.4937,36.6043 27.5,37.5C 26.8333,37.5 26.1667,37.5 25.5,37.5C 25.5,36.8333 25.5,36.1667 25.5,35.5C 25.8417,34.6618 26.5084,34.3284 27.5,34.5 Z"/></g>
<g><path style="opacity:1" fill="#e1a277" d="M 27.5,33.5 C 28.5,33.8333 29.1667,34.5 29.5,35.5C 29.1667,35.5 28.8333,35.5 28.5,35.5C 28.1667,35.5 27.8333,35.5 27.5,35.5C 27.5,35.1667 27.5,34.8333 27.5,34.5C 27.5,34.1667 27.5,33.8333 27.5,33.5 Z"/></g>
<g><path style="opacity:1" fill="#e3be9f" d="M 23.5,35.5 C 24.1667,35.5 24.8333,35.5 25.5,35.5C 25.5,36.1667 25.5,36.8333 25.5,37.5C 24.5,37.1667 23.8333,36.5 23.5,35.5 Z"/></g>
<g><path style="opacity:1" fill="#e28445" d="M 27.5,35.5 C 27.8333,35.5 28.1667,35.5 28.5,35.5C 28.6716,36.4916 28.3382,37.1583 27.5,37.5C 26.4937,36.6043 26.4937,35.9377 27.5,35.5 Z"/></g>
<g><path style="opacity:1" fill="#da8548" d="M 28.5,35.5 C 28.8333,35.5 29.1667,35.5 29.5,35.5C 29.5,36.8333 30.1667,37.5 31.5,37.5C 31.5,37.8333 31.5,38.1667 31.5,38.5C 30.8333,38.5 30.1667,38.5 29.5,38.5C 28.8333,38.5 28.1667,38.5 27.5,38.5C 27.5,38.1667 27.5,37.8333 27.5,37.5C 28.3382,37.1583 28.6716,36.4916 28.5,35.5 Z"/></g>
<g><path style="opacity:1" fill="#e1a778" d="M 29.5,35.5 C 30.5,35.8333 31.1667,36.5 31.5,37.5C 30.1667,37.5 29.5,36.8333 29.5,35.5 Z"/></g>
<g><path style="opacity:1" fill="#e8bf9c" d="M 25.5,37.5 C 26.1667,37.5 26.8333,37.5 27.5,37.5C 27.5,37.8333 27.5,38.1667 27.5,38.5C 27.5,38.8333 27.5,39.1667 27.5,39.5C 26.5,39.1667 25.8333,38.5 25.5,37.5 Z"/></g>
<g><path style="opacity:1" fill="#d69160" d="M 27.5,39.5 C 27.5,39.1667 27.5,38.8333 27.5,38.5C 28.1667,38.5 28.8333,38.5 29.5,38.5C 29.5,39.1667 29.5,39.8333 29.5,40.5C 28.8333,40.1667 28.1667,39.8333 27.5,39.5 Z"/></g>
<g><path style="opacity:1" fill="#db894a" d="M 29.5,38.5 C 30.1667,38.5 30.8333,38.5 31.5,38.5C 31.5,38.8333 31.5,39.1667 31.5,39.5C 30.6618,39.8417 30.3284,40.5084 30.5,41.5C 29.8333,41.5 29.5,41.1667 29.5,40.5C 29.5,39.8333 29.5,39.1667 29.5,38.5 Z"/></g>
<g><path style="opacity:1" fill="#dfa87a" d="M 31.5,37.5 C 32.5,37.8333 33.1667,38.5 33.5,39.5C 33.1667,39.5 32.8333,39.5 32.5,39.5C 32.1667,39.5 31.8333,39.5 31.5,39.5C 31.5,39.1667 31.5,38.8333 31.5,38.5C 31.5,38.1667 31.5,37.8333 31.5,37.5 Z"/></g>
<g><path style="opacity:1" fill="#e1853d" d="M 31.5,39.5 C 31.8333,39.5 32.1667,39.5 32.5,39.5C 32.5,40.8333 31.8333,41.5 30.5,41.5C 30.3284,40.5084 30.6618,39.8417 31.5,39.5 Z"/></g>
<g><path style="opacity:0.004" fill="#fff5e6" d="M 27.5,39.5 C 28.1667,39.8333 28.8333,40.1667 29.5,40.5C 29.5,41.1667 29.8333,41.5 30.5,41.5C 30.5,41.8333 30.5,42.1667 30.5,42.5C 28.5,42.5 27.5,41.5 27.5,39.5 Z"/></g>
<g><path style="opacity:1" fill="#dd8746" d="M 32.5,39.5 C 32.8333,39.5 33.1667,39.5 33.5,39.5C 33.5,40.1667 33.5,40.8333 33.5,41.5C 33.5,42.1667 33.1667,42.5 32.5,42.5C 31.8333,42.5 31.1667,42.5 30.5,42.5C 30.5,42.1667 30.5,41.8333 30.5,41.5C 31.8333,41.5 32.5,40.8333 32.5,39.5 Z"/></g>
<g><path style="opacity:1" fill="#dfa67d" d="M 33.5,39.5 C 34.5,39.8333 35.1667,40.5 35.5,41.5C 35.1667,41.5 34.8333,41.5 34.5,41.5C 34.1667,41.5 33.8333,41.5 33.5,41.5C 33.5,40.8333 33.5,40.1667 33.5,39.5 Z"/></g>
<g><path style="opacity:1" fill="#f1c29c" d="M 30.5,42.5 C 31.1667,42.5 31.8333,42.5 32.5,42.5C 32.5,42.8333 32.5,43.1667 32.5,43.5C 32.5,43.8333 32.5,44.1667 32.5,44.5C 31.5,44.1667 30.8333,43.5 30.5,42.5 Z"/></g>
<g><path style="opacity:1" fill="#df834a" d="M 33.5,41.5 C 33.8333,41.5 34.1667,41.5 34.5,41.5C 34.5,42.8333 33.8333,43.5 32.5,43.5C 32.5,43.1667 32.5,42.8333 32.5,42.5C 33.1667,42.5 33.5,42.1667 33.5,41.5 Z"/></g>
<g><path style="opacity:1" fill="#dea37f" d="M 35.5,41.5 C 36.5,41.8333 37.1667,42.5 37.5,43.5C 36.1667,43.5 35.5,42.8333 35.5,41.5 Z"/></g>
<g><path style="opacity:1" fill="#dd8754" d="M 34.5,41.5 C 34.8333,41.5 35.1667,41.5 35.5,41.5C 35.5,42.8333 36.1667,43.5 37.5,43.5C 37.5,44.1667 37.5,44.8333 37.5,45.5C 36.6618,45.8417 36.3284,46.5084 36.5,47.5C 36.1667,47.5 35.8333,47.5 35.5,47.5C 35.5,45.5 34.5,44.5 32.5,44.5C 32.5,44.1667 32.5,43.8333 32.5,43.5C 33.8333,43.5 34.5,42.8333 34.5,41.5 Z"/></g>
<g><path style="opacity:1" fill="#ecbf9f" d="M 32.5,44.5 C 34.5,44.5 35.5,45.5 35.5,47.5C 34.1667,46.8333 33.1667,45.8333 32.5,44.5 Z"/></g>
<g><path style="opacity:1" fill="#dfa77d" d="M 37.5,43.5 C 38.5,43.8333 39.1667,44.5 39.5,45.5C 38.8333,45.5 38.1667,45.5 37.5,45.5C 37.5,44.8333 37.5,44.1667 37.5,43.5 Z"/></g>
<g><path style="opacity:1" fill="#de8541" d="M 37.5,45.5 C 38.1667,45.5 38.8333,45.5 39.5,45.5C 39.5,46.1667 39.5,46.8333 39.5,47.5C 39.1583,48.3382 38.4916,48.6716 37.5,48.5C 37.5,47.8333 37.1667,47.5 36.5,47.5C 36.3284,46.5084 36.6618,45.8417 37.5,45.5 Z"/></g>
<g><path style="opacity:1" fill="#dfa879" d="M 39.5,45.5 C 40.5,45.8333 41.1667,46.5 41.5,47.5C 41.1667,47.5 40.8333,47.5 40.5,47.5C 40.1667,47.5 39.8333,47.5 39.5,47.5C 39.5,46.8333 39.5,46.1667 39.5,45.5 Z"/></g>
<g><path style="opacity:1" fill="#eec19d" d="M 35.5,47.5 C 35.8333,47.5 36.1667,47.5 36.5,47.5C 37.1667,47.5 37.5,47.8333 37.5,48.5C 37.5,48.8333 37.5,49.1667 37.5,49.5C 36.5,49.1667 35.8333,48.5 35.5,47.5 Z"/></g>
<g><path style="opacity:1" fill="#dd8749" d="M 39.5,47.5 C 39.8333,47.5 40.1667,47.5 40.5,47.5C 40.6716,48.4916 40.3382,49.1583 39.5,49.5C 38.8333,49.5 38.1667,49.5 37.5,49.5C 37.5,49.1667 37.5,48.8333 37.5,48.5C 38.4916,48.6716 39.1583,48.3382 39.5,47.5 Z"/></g>
<g><path style="opacity:1" fill="#da8e5a" d="M 40.5,47.5 C 40.8333,47.5 41.1667,47.5 41.5,47.5C 41.5,48.8333 42.1667,49.5 43.5,49.5C 43.5,49.8333 43.5,50.1667 43.5,50.5C 42.1667,50.5 41.5,51.1667 41.5,52.5C 40.5084,52.6716 39.8417,52.3382 39.5,51.5C 39.5,50.8333 39.5,50.1667 39.5,49.5C 40.3382,49.1583 40.6716,48.4916 40.5,47.5 Z"/></g>
<g><path style="opacity:1" fill="#e4a477" d="M 41.5,47.5 C 42.5,47.8333 43.1667,48.5 43.5,49.5C 42.1667,49.5 41.5,48.8333 41.5,47.5 Z"/></g>
<g><path style="opacity:1" fill="#eac3a2" d="M 37.5,49.5 C 38.1667,49.5 38.8333,49.5 39.5,49.5C 39.5,50.1667 39.5,50.8333 39.5,51.5C 38.5,51.1667 37.8333,50.5 37.5,49.5 Z"/></g>
<g><path style="opacity:1" fill="#db854b" d="M 43.5,50.5 C 43.8417,51.3382 44.5084,51.6716 45.5,51.5C 45.5,51.8333 45.5,52.1667 45.5,52.5C 44.8333,52.5 44.1667,52.5 43.5,52.5C 42.8333,52.5 42.1667,52.5 41.5,52.5C 41.5,51.1667 42.1667,50.5 43.5,50.5 Z"/></g>
<g><path style="opacity:1" fill="#e0a378" d="M 43.5,49.5 C 44.5,49.8333 45.1667,50.5 45.5,51.5C 44.5084,51.6716 43.8417,51.3382 43.5,50.5C 43.5,50.1667 43.5,49.8333 43.5,49.5 Z"/></g>
<g><path style="opacity:1" fill="#d59360" d="M 41.5,52.5 C 42.1667,52.5 42.8333,52.5 43.5,52.5C 43.5,53.1667 43.5,53.8333 43.5,54.5C 42.5,54.1667 41.8333,53.5 41.5,52.5 Z"/></g>
<g><path style="opacity:1" fill="#da844a" d="M 43.5,52.5 C 44.1667,52.5 44.8333,52.5 45.5,52.5C 45.8417,53.3382 46.5084,53.6716 47.5,53.5C 47.5,53.8333 47.5,54.1667 47.5,54.5C 46.8333,54.5 46.1667,54.5 45.5,54.5C 44.8333,54.5 44.1667,54.5 43.5,54.5C 43.5,53.8333 43.5,53.1667 43.5,52.5 Z"/></g>
<g><path style="opacity:1" fill="#e4a577" d="M 45.5,51.5 C 46.5,51.8333 47.1667,52.5 47.5,53.5C 46.5084,53.6716 45.8417,53.3382 45.5,52.5C 45.5,52.1667 45.5,51.8333 45.5,51.5 Z"/></g>
<g><path style="opacity:1" fill="#d59162" d="M 43.5,54.5 C 44.1667,54.5 44.8333,54.5 45.5,54.5C 45.5,55.1667 45.5,55.8333 45.5,56.5C 44.5,56.1667 43.8333,55.5 43.5,54.5 Z"/></g>
<g><path style="opacity:1" fill="#dd8547" d="M 45.5,54.5 C 46.1667,54.5 46.8333,54.5 47.5,54.5C 47.5,54.8333 47.5,55.1667 47.5,55.5C 46.8333,55.5 46.5,55.8333 46.5,56.5C 46.1667,56.5 45.8333,56.5 45.5,56.5C 45.5,55.8333 45.5,55.1667 45.5,54.5 Z"/></g>
<g><path style="opacity:1" fill="#dda87d" d="M 47.5,53.5 C 48.5,53.8333 49.1667,54.5 49.5,55.5C 49.1667,55.5 48.8333,55.5 48.5,55.5C 48.1667,55.5 47.8333,55.5 47.5,55.5C 47.5,55.1667 47.5,54.8333 47.5,54.5C 47.5,54.1667 47.5,53.8333 47.5,53.5 Z"/></g>
<g><path style="opacity:1" fill="#e48444" d="M 46.5,56.5 C 46.5,55.8333 46.8333,55.5 47.5,55.5C 47.8333,55.5 48.1667,55.5 48.5,55.5C 48.6716,56.4916 48.3382,57.1583 47.5,57.5C 47.5,56.8333 47.1667,56.5 46.5,56.5 Z"/></g>
<g><path style="opacity:1" fill="#d88d58" d="M 45.5,56.5 C 45.8333,56.5 46.1667,56.5 46.5,56.5C 47.1667,56.5 47.5,56.8333 47.5,57.5C 47.5,57.8333 47.5,58.1667 47.5,58.5C 46.5,58.1667 45.8333,57.5 45.5,56.5 Z"/></g>
<g><path style="opacity:1" fill="#deab89" d="M 49.5,55.5 C 51.0847,56.0024 51.5847,57.0024 51,58.5C 49.7083,59.7911 48.5417,59.7911 47.5,58.5C 49.0481,58.1788 49.7148,57.1788 49.5,55.5 Z"/></g>
<g><path style="opacity:1" fill="#dd864e" d="M 48.5,55.5 C 48.8333,55.5 49.1667,55.5 49.5,55.5C 49.7148,57.1788 49.0481,58.1788 47.5,58.5C 47.5,58.1667 47.5,57.8333 47.5,57.5C 48.3382,57.1583 48.6716,56.4916 48.5,55.5 Z"/></g>
</svg>
