<?xml version="1.0" encoding="UTF-8"?>
<!DOCTYPE svg PUBLIC "-//W3C//DTD SVG 1.1//EN" "http://www.w3.org/Graphics/SVG/1.1/DTD/svg11.dtd">
<svg xmlns="http://www.w3.org/2000/svg" version="1.1" width="187px" height="201px" style="shape-rendering:geometricPrecision; text-rendering:geometricPrecision; image-rendering:optimizeQuality; fill-rule:evenodd; clip-rule:evenodd" xmlns:xlink="http://www.w3.org/1999/xlink">
<g><path style="opacity:1" fill="#fefefe" d="M -0.5,-0.5 C 61.8333,-0.5 124.167,-0.5 186.5,-0.5C 186.5,66.5 186.5,133.5 186.5,200.5C 124.167,200.5 61.8333,200.5 -0.5,200.5C -0.5,169.5 -0.5,138.5 -0.5,107.5C 8.54346,151.711 35.2101,178.544 79.5,188C 125.371,191.492 158.204,172.659 178,131.5C 192.886,89.2086 183.719,53.0419 150.5,23C 109.747,-5.22325 69.7474,-4.22325 30.5,26C 13.4231,41.9899 3.08977,61.4899 -0.5,84.5C -0.5,56.1667 -0.5,27.8333 -0.5,-0.5 Z"/></g>
<g><path style="opacity:1" fill="#03b880" d="M -0.5,107.5 C -0.5,99.8333 -0.5,92.1667 -0.5,84.5C 3.08977,61.4899 13.4231,41.9899 30.5,26C 69.7474,-4.22325 109.747,-5.22325 150.5,23C 183.719,53.0419 192.886,89.2086 178,131.5C 158.204,172.659 125.371,191.492 79.5,188C 35.2101,178.544 8.54346,151.711 -0.5,107.5 Z"/></g>
<g><path style="opacity:1" fill="#f9fdfc" d="M 133.5,61.5 C 138.547,61.3756 140.38,63.7089 139,68.5C 118.833,88.6667 98.6667,108.833 78.5,129C 76.8333,129.667 75.1667,129.667 73.5,129C 64,119.5 54.5,110 45,100.5C 44.3357,95.5036 46.5023,93.6703 51.5,95C 59.6667,103.167 67.8333,111.333 76,119.5C 95.3684,100.299 114.535,80.9653 133.5,61.5 Z"/></g>
</svg>
