<?xml version="1.0" encoding="UTF-8"?>
<svg version="1.1" xmlns="http://www.w3.org/2000/svg" width="768" height="768">
<path d="M0 0 C1.23845673 0.00149048 2.47691345 0.00298096 3.75289917 0.0045166 C21.53992337 0.04304123 38.91269713 0.47849808 56.5 3.3125 C58.42574722 3.59398293 60.35152855 3.87523255 62.27734375 4.15625 C97.93742257 9.63098354 132.96487151 20.8038803 165.5 36.3125 C166.85037354 36.95251953 166.85037354 36.95251953 168.22802734 37.60546875 C199.19211477 52.39089158 227.76094676 71.63701119 253.5 94.3125 C254.21293213 94.93785645 254.92586426 95.56321289 255.66040039 96.20751953 C262.13432234 101.953312 268.32311533 107.94938772 274.44116211 114.06835938 C276.05890192 115.6839068 277.68450636 117.29125034 279.31054688 118.8984375 C285.82615798 125.37895555 291.80589127 132.08511247 297.5 139.3125 C298.524707 140.56726211 299.55173333 141.82013708 300.58203125 143.0703125 C312.48248572 157.68576427 322.9878225 173.04550389 332.5 189.3125 C332.91459473 190.01922852 333.32918945 190.72595703 333.75634766 191.45410156 C359.6695852 235.96776448 376.15686571 285.2171698 382.5 336.3125 C382.58720306 336.99195679 382.67440613 337.67141357 382.76425171 338.37145996 C384.66218175 353.51065074 384.85892714 368.56976915 384.8125 383.8125 C384.80976578 385.67217911 384.80976578 385.67217911 384.80697632 387.56942749 C384.76294091 405.34036656 384.43681778 422.75123857 381.5 440.3125 C381.32307617 441.41577637 381.14615234 442.51905273 380.96386719 443.65576172 C374.98382213 480.30548517 364.48814337 515.7713913 348.5 549.3125 C348.07332031 550.21274902 347.64664063 551.11299805 347.20703125 552.04052734 C332.47097522 582.9012293 313.29386626 611.80932721 290.5 637.3125 C289.71367188 638.2096875 288.92734375 639.106875 288.1171875 640.03125 C282.14012766 646.71940699 275.84233918 653.09752405 269.52529907 659.46243286 C268.52569029 660.47008155 267.52756645 661.47920601 266.53109741 662.48995972 C259.87307322 669.23322957 252.93610253 675.4239345 245.5 681.3125 C244.28027638 682.31364009 243.06250937 683.31717403 241.84765625 684.32421875 C227.27839362 696.24789522 211.85656841 706.9906064 195.5 716.3125 C194.84451172 716.69293457 194.18902344 717.07336914 193.51367188 717.46533203 C152.70682026 741.12750405 108.2253476 756.92798082 61.6875 764.5625 C60.77154053 764.71364258 59.85558105 764.86478516 58.91186523 765.02050781 C39.61314373 767.99548254 20.44057888 768.68606141 0.9375 768.625 C-0.3014502 768.62284485 -1.54040039 768.6206897 -2.81689453 768.61846924 C-20.55697355 768.56892394 -37.9676349 768.25882679 -55.5 765.3125 C-56.73862793 765.11382324 -57.97725586 764.91514648 -59.25341797 764.71044922 C-130.52687985 753.16804337 -198.5065109 722.58937944 -252.5 674.3125 C-253.22034424 673.67828125 -253.94068848 673.0440625 -254.68286133 672.390625 C-261.14900037 666.65274533 -267.33093702 660.66778941 -273.44116211 654.55664062 C-275.05890192 652.9410932 -276.68450636 651.33374966 -278.31054688 649.7265625 C-284.82632106 643.2458197 -290.80287382 636.53769933 -296.5 629.3125 C-297.50084453 628.09253385 -298.50435758 626.87474699 -299.51171875 625.66015625 C-311.43539522 611.09089362 -322.1781064 595.66906841 -331.5 579.3125 C-331.88043457 578.65701172 -332.26086914 578.00152344 -332.65283203 577.32617188 C-356.31500405 536.51932026 -372.11548082 492.0378476 -379.75 445.5 C-379.97671387 444.12606079 -379.97671387 444.12606079 -380.20800781 442.72436523 C-383.18302797 423.42534902 -383.87211513 404.25329236 -383.8125 384.75 C-383.81067719 383.51271149 -383.80885437 382.27542297 -383.80697632 381.00064087 C-383.7629156 363.24819169 -383.43376664 345.8555166 -380.5 328.3125 C-380.32307617 327.20922363 -380.14615234 326.10594727 -379.96386719 324.96923828 C-373.98382213 288.31951483 -363.48814337 252.8536087 -347.5 219.3125 C-347.07332031 218.41225098 -346.64664063 217.51200195 -346.20703125 216.58447266 C-331.42160842 185.62038523 -312.17548881 157.05155324 -289.5 131.3125 C-288.87464355 130.59956787 -288.24928711 129.88663574 -287.60498047 129.15209961 C-281.859188 122.67817766 -275.86311228 116.48938467 -269.74414062 110.37133789 C-268.1285932 108.75359808 -266.52124966 107.12799364 -264.9140625 105.50195312 C-258.43354445 98.98634202 -251.72738753 93.00660873 -244.5 87.3125 C-243.24523789 86.287793 -241.99236292 85.26076667 -240.7421875 84.23046875 C-226.12673573 72.33001428 -210.76699611 61.8246775 -194.5 52.3125 C-193.43990723 51.69060791 -193.43990723 51.69060791 -192.35839844 51.05615234 C-151.20314227 27.09798176 -106.48930146 11.74642071 -59.5625 4.0625 C-58.18179321 3.83578613 -58.18179321 3.83578613 -56.77319336 3.60449219 C-53.68664642 3.1276932 -50.59790275 2.70932429 -47.5 2.3125 C-46.82870056 2.22529694 -46.15740112 2.13809387 -45.46575928 2.04824829 C-30.32066902 0.14016081 -15.24899741 -0.04531459 0 0 Z " fill="#4F5D73" transform="translate(383.5,-0.3125)"/>
<path d="M0 0 C0.74556152 0.18804199 1.49112305 0.37608398 2.25927734 0.56982422 C25.63045818 6.52514032 45.73745438 17.31949323 64 33 C64.84433594 33.72058594 65.68867188 34.44117188 66.55859375 35.18359375 C101.43146812 65.70415931 122.9025131 112.24917446 126.16064453 158.26904297 C126.2120459 159.05553223 126.26344727 159.84202148 126.31640625 160.65234375 C126.96761886 171.59405632 126.96761886 171.59405632 133.24609375 180.23828125 C138.12342406 185.13733686 139.24613172 191.70103115 139.4375 198.375 C138.75790283 217.14065094 129.7224017 236.26677724 117.98046875 250.72265625 C114.32158215 255.54310334 112.67258962 260.79637829 110.8125 266.5 C100.46555752 296.57267947 85.50496528 324.63840728 64.33203125 348.49609375 C63.02129877 349.97595301 61.72920937 351.47225744 60.4375 352.96875 C56.33218103 357.63855033 52.39902129 361.53326421 47.3125 365.125 C44.01894535 367.54493919 44.01894535 367.54493919 42.4921875 371.140625 C42.70563227 373.58243313 43.25487903 375.66659485 44 378 C44.16242188 378.73605469 44.32484375 379.47210938 44.4921875 380.23046875 C50.45302474 404.60457721 68.59819327 423.63104025 89 437 C89.93070312 437.61488281 90.86140625 438.22976563 91.8203125 438.86328125 C109.54832159 449.84858603 129.89787343 455.98140856 149.7734375 461.76171875 C156.54831979 463.7381112 163.28219773 465.8387034 170 468 C171.44028564 468.4630957 171.44028564 468.4630957 172.90966797 468.93554688 C176.10923836 469.96949085 179.30501844 471.01446851 182.5 472.0625 C183.51521729 472.39096924 184.53043457 472.71943848 185.57641602 473.05786133 C191.33678253 474.96307055 196.64749387 477.13895803 202 480 C198.55216579 484.94449432 195.05155329 489.13163952 190.40625 492.98828125 C188.64085138 494.46422328 186.91699031 495.99022375 185.21875 497.54296875 C169.45417391 511.84786187 150.91830945 523.33572599 132 533 C131.16275391 533.43086914 130.32550781 533.86173828 129.46289062 534.30566406 C113.43523711 542.47213514 96.88495103 548.88109214 80 555 C78.61432841 555.51754715 77.22885736 556.03563219 75.84375 556.5546875 C52.78318313 564.79830136 28.19993335 568.80802564 4 572 C3.30723969 572.0932254 2.61447937 572.18645081 1.90072632 572.28250122 C-10.02465403 573.85939851 -21.78947687 574.36421101 -33.8125 574.3125 C-34.6998584 574.31067719 -35.5872168 574.30885437 -36.50146484 574.30697632 C-60.15348847 574.22577696 -83.07085949 571.79784011 -106.17724609 566.62646484 C-108.76563928 566.05201259 -111.3586553 565.51529797 -113.95703125 564.98828125 C-139.26612976 559.64499393 -164.4124238 550.70150005 -187.5546875 539.21240234 C-189.79597892 538.10115502 -192.04957758 537.02333809 -194.3125 535.95703125 C-216.5264653 525.36605401 -237.50635965 511.71143401 -255.2578125 494.62109375 C-257.62785402 492.35571218 -260.04981642 490.22810695 -262.5625 488.125 C-265.74743182 485.38447727 -267.88030557 482.62114465 -270 479 C-263.70028941 475.63665867 -257.3462864 473.26843183 -250.5625 471.0625 C-249.59634766 470.74087891 -248.63019531 470.41925781 -247.63476562 470.08789062 C-241.00799634 467.90480289 -234.33674317 465.90287076 -227.64028931 463.94786072 C-220.28754304 461.79939326 -212.95793413 459.5808715 -205.64282227 457.30761719 C-204.1719802 456.85234492 -202.69996431 456.4008478 -201.22680664 455.953125 C-167.94026816 445.82995626 -136.1006222 428.65107365 -119.02539062 397.0234375 C-113.88209467 386.87400015 -110.98863381 376.16425999 -109 365 C-109.59224365 364.73155273 -110.1844873 364.46310547 -110.79467773 364.18652344 C-114.47539999 362.20619462 -117.13902724 359.19926919 -120.0625 356.25 C-120.72934814 355.57751221 -121.39619629 354.90502441 -122.08325195 354.2121582 C-143.22952003 332.55316102 -158.61736332 305.53911681 -170.0625 277.69921875 C-170.38436279 276.91957764 -170.70622559 276.13993652 -171.0378418 275.33666992 C-171.68961517 273.75379173 -172.33410033 272.16789632 -172.97192383 270.5793457 C-174.94939636 265.84076283 -176.98215411 262.47011197 -180.6875 258.8125 C-196.27833743 242.35040989 -207.51668095 219.52216885 -207.34765625 196.6796875 C-206.56325037 188.37732414 -202.95596224 180.81069487 -197 175 C-195.989375 174.51144531 -194.97875 174.02289063 -193.9375 173.51953125 C-190.11263572 170.23889633 -190.12038219 168.14354492 -189.66088867 163.28369141 C-189.55031128 161.75107666 -189.55031128 161.75107666 -189.4375 160.1875 C-189.22188327 158.01087628 -188.99770109 155.83508661 -188.765625 153.66015625 C-188.64767578 152.55172363 -188.52972656 151.44329102 -188.40820312 150.30126953 C-184.15831806 115.9310866 -169.7327722 82.86113264 -148 56 C-147.55043945 55.4436084 -147.10087891 54.8872168 -146.63769531 54.31396484 C-121.81865672 23.84048719 -86.27298213 1.32243215 -46.61523438 -2.80371094 C-31.08455232 -3.969382 -15.1008091 -4.05670357 0 0 Z " fill="#FEFEFE" transform="translate(418,98)"/>
<path d="M0 0 C1.78115605 1.37255482 3.5030427 2.82286004 5.1875 4.3125 C42.05863351 35.90319535 89.70238516 55.08018941 136.375 66.4375 C137.26040466 66.6530957 138.14580933 66.86869141 139.05804443 67.09082031 C148.6523826 69.41094258 158.21642277 71.62694225 168 73 C168.9806543 73.14139404 169.96130859 73.28278809 170.97167969 73.4284668 C204.01561042 77.93469374 237.11751638 77.27491773 270 72 C271.05799805 71.83983398 272.11599609 71.67966797 273.20605469 71.51464844 C326.43130967 63.45125342 394.68566729 42.31270406 433.26171875 2.109375 C435.95515297 0.39041923 437.85804733 0.64962467 441 1 C444.4296875 2.3125 444.4296875 2.3125 447.875 4 C449.02742188 4.556875 450.17984375 5.11375 451.3671875 5.6875 C452.23601562 6.120625 453.10484375 6.55375 454 7 C449.9383151 12.92329047 445.51106888 17.43472512 440 22 C439.07445312 22.81210937 438.14890625 23.62421875 437.1953125 24.4609375 C378.86784749 75.51376978 295.05773634 101.18278947 218.5 101.25 C217.69585663 101.25100708 216.89171326 101.25201416 216.0632019 101.25305176 C146.36515381 101.19457952 71.84822468 79.39218679 16 37 C15.39397949 36.54206055 14.78795898 36.08412109 14.16357422 35.61230469 C7.968885 30.90735564 1.85924096 26.21319016 -3.4921875 20.5390625 C-5.09156656 18.90653568 -6.78688398 17.49990345 -8.5625 16.0625 C-12.38589847 12.87056779 -15.17578985 9.0759663 -18 5 C-4.89945666 -1.84952266 -4.89945666 -1.84952266 0 0 Z " fill="#475162" transform="translate(166,595)"/>
<path d="M0 0 C2.46459778 2.46459778 2.32353917 3.21829301 2.375 6.625 C1.94171404 25.08779634 -6.84892002 40.79048579 -16.921875 55.71875 C-21.63779388 63.1649377 -24.62283684 71.07323612 -27.6875 79.3125 C-38.59719809 108.01694944 -52.8950306 135.21910939 -73.98046875 157.82421875 C-75.93713306 159.93226908 -77.77966276 162.10709696 -79.625 164.3125 C-82.72702748 167.89399777 -86.03928337 170.41340955 -90 173 C-93.35411326 166.90161225 -96.01845057 160.0405931 -95 153 C-92.90646756 150.81898565 -91.00091674 149.12488241 -88.625 147.3125 C-87.32635558 146.26058492 -86.03211403 145.2032125 -84.7421875 144.140625 C-84.10249023 143.61404297 -83.46279297 143.08746094 -82.80371094 142.54492188 C-57.58379743 120.94345833 -38.36541467 84.96980646 -28.30859375 53.86328125 C-25.42127157 44.94965967 -22.55681968 37.528655 -16.77758789 30.09790039 C-13.48401664 25.83759392 -10.93995169 21.45505755 -8.5625 16.625 C-8.24482666 15.98272461 -7.92715332 15.34044922 -7.59985352 14.67871094 C-6.00743351 11.36634037 -4.6345692 8.04911522 -3.40234375 4.5859375 C-2 1 -2 1 0 0 Z " fill="#485264" transform="translate(555,314)"/>
<path d="M0 0 C1.828125 0.078125 1.828125 0.078125 4 1 C5.10675256 3.2743157 5.94550483 5.3709595 6.75 7.75 C11.63738457 20.94342232 19.99473158 34.81109837 30.56640625 44.3046875 C33.81339184 47.90086737 35.10967955 51.61693495 36.75 56.125 C47.6870608 84.66952682 68.76692695 132.38346347 98 147 C98.62621031 153.88831341 96.35806067 159.58902255 94 166 C83.44555948 161.48010292 75.71651949 148.9521158 69 140 C68.57187012 139.43796875 68.14374023 138.8759375 67.70263672 138.296875 C60.44699717 128.73807938 54.58591308 118.60735495 49 108 C48.64695801 107.33774414 48.29391602 106.67548828 47.93017578 105.99316406 C44.55033176 99.62177786 41.43398548 93.23821451 38.85546875 86.49609375 C35.12954285 76.75724332 32.10568854 68.96472985 24.546875 61.6171875 C10.61599758 47.30171531 -0.33298085 24.64058263 -0.0625 4.625 C-0.05347656 3.75101562 -0.04445312 2.87703125 -0.03515625 1.9765625 C-0.02355469 1.32429688 -0.01195312 0.67203125 0 0 Z " fill="#485263" transform="translate(211,316)"/>
</svg>
